<?xml version="1.0" encoding="utf-8"?>
<!-- Generator: Adobe Illustrator 21.0.2, SVG Export Plug-In . SVG Version: 6.00 Build 0)  -->
<svg version="1.1" id="Layer_1" xmlns="http://www.w3.org/2000/svg" xmlns:xlink="http://www.w3.org/1999/xlink" x="0px" y="0px"
	 viewBox="0 0 295 262" style="enable-background:new 0 0 295 262;" xml:space="preserve">
<style type="text/css">
	.st0{fill:#003CA6;}
	.st1{fill:#63B4FC;}
	.st2{fill:#9046FF;}
	.st3{fill:#87BDFF;}
	.st4{fill:#4BAAFC;}
	.st5{fill:url(#SVGID_1_);}
	.st6{fill:#B9DDFF;}
	.st7{fill:#2599FF;}
	.st8{fill:#9022FF;}
	.st9{fill:#3C84E3;}
	.st10{fill:url(#SVGID_2_);}
	.st11{fill:url(#SVGID_3_);}
	.st12{fill:#007EE3;}
	.st13{fill:url(#SVGID_4_);}
	.st14{clip-path:url(#SVGID_6_);}
	.st15{fill:#0F3872;}
	.st16{fill:#7AB0F6;}
	.st17{fill:#FFFFFF;}
	.st18{fill:#F3AC1F;}
	.st19{fill:#91CEFF;}
	.st20{fill:#4060AB;}
	.st21{fill:#8422FF;}
	.st22{fill:#F9C4C8;}
	.st23{fill:#FCD3B2;}
	.st24{fill:#DCB59A;}
	.st25{fill:#203B70;}
	.st26{clip-path:url(#SVGID_8_);fill:url(#SVGID_9_);}
	.st27{clip-path:url(#SVGID_11_);fill:#B9DDFF;}
	.st28{clip-path:url(#SVGID_13_);fill:#B9DDFF;}
	.st29{opacity:0.13;}
	.st30{fill:#0062C7;}
	.st31{fill:#F3901F;}
	.st32{fill:#F3CC1F;}
</style>
<g id="Layer_1_1_">
</g>
<g id="Layer_2">
	<g>
		<path class="st0" d="M41.4,253.6h100.3h0.1h57.8h0.1h94.7c0.6,0,1.1-0.5,1.1-1.2l0,0v2.3l0,0l0,0l0,0c0,0.6-0.5,1.2-1.1,1.2h-253
			c-0.7,0-1.2-0.6-1.1-1.3v-2.2C40.3,253.1,40.8,253.6,41.4,253.6z"/>
		<path class="st1" d="M99,53c0.1,0.2,0.2,0.3,0.3,0.5H99V53z"/>
		<path class="st2" d="M71.1,180.9c0,0.1-0.1,0.2-0.1,0.4v-127c0-5.4,4.2-9.7,9.3-9.7h9.2v8.9h-6.6v122.3h176V53.5h-30v-8.9h30.4
			c5.1,0,9.3,4.4,9.3,9.7v127.8c-0.2-0.3-0.3-0.7-0.6-0.9L71.1,180.9z"/>
		<path class="st3" d="M99,53.6L99,53.6l0.3-0.1l0,0v29.8c0,2.3,1.5,4.2,3.6,4.8v0.1h15.4V79l0,0v96.7H229V53.5h30v122.3H83V53.5
			h6.6v0.1H99z"/>
		<path class="st2" d="M295.5,252.5c0-0.2,0-0.3-0.1-0.5l-26.2-68.5c-0.1-0.3-0.3-0.8-0.5-1.3c-0.2-0.3-0.3-0.7-0.6-0.9L71,181
			c0,0.1-0.1,0.2-0.1,0.4c-0.3,0.6-0.8,1.5-0.9,1.8l-29.7,68.9c-0.1,0.2-0.1,0.4-0.1,0.6c0.1,0.6,0.5,1.1,1.1,1.1h100.3
			c-0.4-0.1-0.8-0.5-0.8-1s0.4-1,0.9-1h57.8c0.5,0,0.9,0.4,0.9,1c0,0.5-0.4,0.9-0.8,1h94.7C295,253.6,295.5,253.1,295.5,252.5z
			 M115.9,247.7l3-15.8c0.1-0.8,1-1.5,2.2-2h-0.4c1.4-0.6,3.3-1,5.3-1h0.4l0,0h61.2l0,0h22.7c0.7,0,1.4,0,2.1,0.1
			c2.9,0.4,5.2,1.5,5.3,2.8l2.3,15.8c0.2,1.6-2.9,2.9-7,2.9h-90.3C118.7,250.7,115.6,249.4,115.9,247.7z M261.9,185l13.9,39.5
			l-214.4-0.1l15.9-39.7L261.9,185z"/>
		<path class="st4" d="M261.9,185l-184.7-0.3l-15.9,39.7l214.4,0.1L261.9,185z M117,193.3c-0.1,0.3-0.3,0.5-0.6,0.5h-13
			c-0.4,0-0.7-0.4-0.5-0.8l0.1-0.2c-0.1-0.1-0.1-0.3-0.1-0.5l1.6-5.4c0.1-0.3,0.3-0.4,0.5-0.4h12.7c0.4,0,0.6,0.4,0.6,0.7l-0.1,0.3
			c0.1,0.1,0.1,0.3,0.1,0.4L117,193.3z M97.2,193.4c-0.1,0.2-0.3,0.4-0.5,0.4H83.8c-0.4,0-0.7-0.4-0.5-0.8l0.1-0.2
			c-0.1-0.2-0.1-0.4-0.1-0.6l2-5.4c0.1-0.2,0.3-0.4,0.5-0.4h12.6c0.4,0,0.7,0.4,0.5,0.8l-0.1,0.2c0.1,0.1,0.1,0.3,0.1,0.5
			L97.2,193.4z M79.8,202c-0.1-0.2-0.1-0.4-0.1-0.6l2-5.4c0.1-0.2,0.3-0.4,0.5-0.4H90h8.2h7.5c0.4,0,0.6,0.4,0.5,0.8l-0.1,0.3
			c0.1,0.1,0.1,0.3,0.1,0.5l-1.5,5.4c-0.1,0.3-0.3,0.4-0.5,0.4h-8h-8.4h-7.6c-0.4,0-0.7-0.4-0.5-0.8L79.8,202z M110.6,202
			c-0.1-0.1-0.1-0.3-0.1-0.5l1.3-5.4c0.1-0.3,0.3-0.4,0.6-0.4h13.2c0.4,0,0.6,0.3,0.6,0.7l-0.1,0.3c0.1,0.1,0.1,0.3,0.1,0.4l-1,5.4
			c-0.1,0.3-0.3,0.5-0.6,0.5h-13.5c-0.4,0-0.6-0.4-0.5-0.7V202z M118.9,211.3c-0.1-0.1-0.1-0.3-0.1-0.4l1.1-5.4
			c0.1-0.3,0.3-0.5,0.6-0.5h13.7c0.3,0,0.6,0.3,0.6,0.7l-0.1,0.4c0.1,0.1,0.1,0.2,0.1,0.4l-0.8,5.4c0,0.3-0.3,0.5-0.6,0.5h-14
			c-0.4,0-0.6-0.3-0.6-0.7L118.9,211.3z M140.1,211.3c0-0.1-0.1-0.2-0.1-0.3l0.7-5.4c0-0.3,0.3-0.5,0.6-0.5H155
			c0.3,0,0.6,0.3,0.6,0.6v0.5c0,0.1,0,0.2,0,0.3l-0.4,5.4c0,0.3-0.3,0.5-0.6,0.5h-14c-0.3,0-0.6-0.3-0.6-0.7L140.1,211.3z
			 M161.4,211.2c0-0.1,0-0.1,0-0.2l0.3-5.4c0-0.3,0.3-0.6,0.6-0.6H176c0.3,0,0.6,0.3,0.6,0.6v5.4l0,0v0.7c0,0.3-0.3,0.6-0.6,0.6h-14
			c-0.3,0-0.6-0.3-0.6-0.6V211.2z M182.5,206.2v-0.6c0-0.3,0.2-0.6,0.6-0.6h13.7c0.3,0,0.5,0.2,0.6,0.5l0.4,5.4c0,0.1,0,0.2,0,0.3
			v0.5c0,0.3-0.2,0.6-0.6,0.6h-14c-0.3,0-0.6-0.3-0.6-0.6L182.5,206.2C182.4,206.3,182.4,206.3,182.5,206.2z M203.3,206.2v-0.4
			c0-0.4,0.2-0.7,0.6-0.7h13.7c0.3,0,0.5,0.2,0.6,0.5l0.9,5.4c0,0.1,0,0.3-0.1,0.4l0.1,0.4c0.1,0.4-0.2,0.7-0.6,0.7h-14
			c-0.3,0-0.5-0.2-0.6-0.5l-0.6-5.4C203.3,206.4,203.3,206.3,203.3,206.2z M227.7,202.2l0.1,0.3c0.1,0.4-0.2,0.7-0.6,0.7h-13.5
			c-0.3,0-0.5-0.2-0.6-0.5l-0.8-5.4c0-0.1,0-0.2,0.1-0.3l-0.1-0.4c-0.1-0.4,0.2-0.7,0.6-0.7h13.2c0.3,0,0.5,0.2,0.6,0.5l1.1,5.4
			C227.8,201.9,227.8,202,227.7,202.2z M216,192.9l0.1,0.4c0.1,0.4-0.2,0.7-0.6,0.7h-13c-0.3,0-0.5-0.2-0.6-0.5l-0.6-5.4
			c0-0.1,0-0.2,0-0.3v-0.4c0-0.4,0.2-0.7,0.6-0.7h12.7c0.3,0,0.5,0.2,0.6,0.5l0.9,5.4C216.1,192.6,216.1,192.8,216,192.9z
			 M156.6,193.3c0,0.3-0.3,0.5-0.6,0.5h-13c-0.3,0-0.6-0.3-0.6-0.7l0.1-0.4c0-0.1-0.1-0.2-0.1-0.3l0.7-5.4c0-0.3,0.3-0.5,0.6-0.5
			h12.7c0.3,0,0.6,0.3,0.6,0.6v0.5c0,0.1,0,0.2,0,0.3L156.6,193.3z M162.6,187.1c0-0.3,0.3-0.6,0.6-0.6h12.7c0.3,0,0.6,0.3,0.6,0.6
			v5.4l0,0v0.7c0,0.3-0.3,0.6-0.6,0.6h-13c-0.3,0-0.6-0.3-0.6-0.6v-0.5c0-0.1,0-0.1,0-0.2L162.6,187.1z M182,187.7v-0.6
			c0-0.3,0.2-0.6,0.6-0.6h12.7c0.3,0,0.5,0.2,0.6,0.5l0.4,5.4c0,0.1,0,0.2,0,0.3v0.5c0,0.3-0.2,0.6-0.6,0.6h-13
			c-0.3,0-0.6-0.3-0.6-0.6L182,187.7C182,187.8,182,187.8,182,187.7z M193.2,203.2c-0.3,0-0.5-0.2-0.6-0.6l-0.3-5.4
			c0-0.1,0-0.2,0-0.2v-0.5c0-0.3,0.2-0.6,0.6-0.6h13.2c0.3,0,0.5,0.2,0.6,0.5l0.6,5.4c0,0.1,0,0.2-0.1,0.3l0.1,0.4
			c0,0.4-0.2,0.7-0.6,0.7L193.2,203.2z M172.6,203.1c-0.3,0-0.6-0.3-0.6-0.6v-0.6v-0.1l0.1-5.4c0-0.3,0.3-0.6,0.6-0.6h13.2
			c0.3,0,0.6,0.3,0.6,0.6l0.2,5.4c0,0.1,0,0.1,0,0.2v0.6c0,0.3-0.2,0.6-0.6,0.6L172.6,203.1z M152.1,203.1c-0.3,0-0.6-0.3-0.6-0.6
			V202c0-0.1-0.1-0.2,0-0.3l0.5-5.4c0-0.3,0.3-0.5,0.6-0.5h13.2c0.3,0,0.6,0.3,0.6,0.6v0.6c0,0.1,0,0.1,0,0.2l-0.2,5.4
			c0,0.3-0.3,0.6-0.6,0.6L152.1,203.1z M131.6,203.1c-0.4,0-0.6-0.3-0.6-0.7l0.1-0.4c-0.1-0.1-0.1-0.2-0.1-0.4l0.9-5.4
			c0-0.3,0.3-0.5,0.6-0.5h13.2c0.3,0,0.6,0.3,0.6,0.7v0.4c0,0.1,0.1,0.2,0,0.3l-0.6,5.4c0,0.3-0.3,0.5-0.6,0.5L131.6,203.1z
			 M123.8,186.9c0.1-0.3,0.3-0.5,0.6-0.5h12.7c0.3,0,0.6,0.3,0.6,0.7l-0.1,0.4c0.1,0.1,0.1,0.2,0.1,0.4l-0.8,5.4
			c0,0.3-0.3,0.5-0.6,0.5h-13c-0.4,0-0.6-0.3-0.6-0.7l0.1-0.3c-0.1-0.1-0.1-0.3-0.1-0.4L123.8,186.9z M221.3,186.6H234
			c0.3,0,0.5,0.2,0.6,0.5l1.3,5.4c0,0.2,0,0.3-0.1,0.4l0.1,0.3c0.1,0.4-0.2,0.7-0.6,0.7h-13c-0.3,0-0.5-0.2-0.6-0.5l-1-5.4
			c0-0.1,0-0.3,0.1-0.4l-0.1-0.3C220.7,186.9,221,186.6,221.3,186.6z M232,196.9l-0.1-0.3c-0.1-0.4,0.2-0.7,0.6-0.7h7.6h8.3h7.9
			c0.2,0,0.5,0.2,0.5,0.4l1.7,5.4c0.1,0.2,0,0.4-0.1,0.5l0.1,0.2c0.1,0.4-0.2,0.8-0.5,0.8h-7.7h-8.5h-8.1c-0.3,0-0.5-0.2-0.6-0.5
			l-1.2-5.4C231.9,197.2,232,197,232,196.9z M240.3,187.7l-0.1-0.3c-0.1-0.4,0.2-0.7,0.5-0.7h12.7c0.2,0,0.5,0.2,0.5,0.4l1.7,5.4
			c0.1,0.2,0,0.4-0.1,0.5l0.1,0.2c0.1,0.4-0.2,0.8-0.5,0.8h-13c-0.3,0-0.5-0.2-0.5-0.4l-1.4-5.4C240.1,188,240.2,187.8,240.3,187.7z
			 M247.4,215.4l-0.1-0.3c-0.1-0.4,0.2-0.7,0.5-0.7H262c0.2,0,0.5,0.2,0.5,0.4l1.7,5.4c0.1,0.2,0,0.4-0.1,0.5l0.1,0.2
			c0.1,0.4-0.2,0.8-0.5,0.8h-14.5c-0.3,0-0.5-0.2-0.5-0.4l-1.4-5.4C247.3,215.7,247.3,215.5,247.4,215.4z M225.8,215.4l-0.1-0.3
			c-0.1-0.4,0.2-0.7,0.6-0.7h14.2c0.3,0,0.5,0.2,0.6,0.5l1.3,5.4c0,0.2,0,0.3-0.1,0.4l0.1,0.3c0.1,0.4-0.2,0.7-0.6,0.7h-14.5
			c-0.3,0-0.5-0.2-0.6-0.5l-1-5.4C225.8,215.6,225.8,215.5,225.8,215.4z M224.2,206.1l-0.1-0.3c-0.1-0.4,0.2-0.7,0.6-0.7h12h2.2
			h20.4c0.2,0,0.5,0.2,0.5,0.4l1.7,5.4c0.1,0.2,0,0.4-0.1,0.5l0.1,0.2c0.1,0.4-0.2,0.8-0.5,0.8h-20.5h-2.3h-12.5
			c-0.3,0-0.5-0.2-0.6-0.5l-1-5.4C224.1,206.4,224.1,206.3,224.2,206.1z M117,220.6c-0.1-0.1-0.1-0.3-0.1-0.4l1.1-5.4
			c0.1-0.3,0.3-0.5,0.6-0.5h14.9h6.1H155h6.1h15.4h6.1H198h21c0.3,0,0.5,0.2,0.6,0.5l0.9,5.4c0,0.1,0,0.3-0.1,0.4l0.1,0.4
			c0.1,0.4-0.2,0.7-0.6,0.7h-21.3h-15.7h-6.3h-15.7h-6.3h-15.7h-6.3h-15c-0.4,0-0.6-0.3-0.6-0.7L117,220.6z M112.2,212.3H99.8h-2.3
			H77c-0.4,0-0.7-0.4-0.5-0.8l0.1-0.2c-0.1-0.2-0.1-0.4-0.1-0.6l2-5.4c0.1-0.2,0.3-0.4,0.5-0.4h20.4h2.3h11.9c0.4,0,0.6,0.4,0.6,0.7
			l-0.1,0.3c0.1,0.1,0.1,0.3,0.1,0.4l-1.3,5.4C112.7,212.1,112.4,212.3,112.2,212.3z M95,220.6c-0.1-0.1-0.1-0.3-0.1-0.5l1.6-5.4
			c0.1-0.3,0.3-0.4,0.5-0.4h14.2c0.4,0,0.6,0.4,0.6,0.7l-0.1,0.3c0.1,0.1,0.1,0.3,0.1,0.4l-1.3,5.4c-0.1,0.3-0.3,0.5-0.6,0.5H95.4
			c-0.4,0-0.7-0.4-0.5-0.8L95,220.6z M75,214.6c0.1-0.2,0.3-0.4,0.5-0.4h14.2c0.4,0,0.7,0.4,0.5,0.8l-0.1,0.2
			c0.1,0.1,0.1,0.3,0.1,0.5l-1.7,5.4c-0.1,0.2-0.3,0.4-0.5,0.4H73.5c-0.4,0-0.7-0.4-0.5-0.8l0.1-0.2c-0.1-0.2-0.1-0.4-0.1-0.6
			L75,214.6z"/>
		
			<linearGradient id="SVGID_1_" gradientUnits="userSpaceOnUse" x1="2057.4988" y1="59.4" x2="2271.8987" y2="59.4" gradientTransform="matrix(-1 0 0 -1 2333.1987 264)">
			<stop  offset="7.081330e-02" style="stop-color:#EEF7FF"/>
			<stop  offset="0.9454" style="stop-color:#9ECDFD"/>
		</linearGradient>
		<path class="st5" d="M261.9,185l-184.7-0.3l-15.9,39.7l214.4,0.1L261.9,185z M117,193.3c-0.1,0.3-0.3,0.5-0.6,0.5h-13
			c-0.4,0-0.7-0.4-0.5-0.8l0.1-0.2c-0.1-0.1-0.1-0.3-0.1-0.5l1.6-5.4c0.1-0.3,0.3-0.4,0.5-0.4h12.7c0.4,0,0.6,0.4,0.6,0.7l-0.1,0.3
			c0.1,0.1,0.1,0.3,0.1,0.4L117,193.3z M97.2,193.4c-0.1,0.2-0.3,0.4-0.5,0.4H83.8c-0.4,0-0.7-0.4-0.5-0.8l0.1-0.2
			c-0.1-0.2-0.1-0.4-0.1-0.6l2-5.4c0.1-0.2,0.3-0.4,0.5-0.4h12.6c0.4,0,0.7,0.4,0.5,0.8l-0.1,0.2c0.1,0.1,0.1,0.3,0.1,0.5
			L97.2,193.4z M79.8,202c-0.1-0.2-0.1-0.4-0.1-0.6l2-5.4c0.1-0.2,0.3-0.4,0.5-0.4H90h8.2h7.5c0.4,0,0.6,0.4,0.5,0.8l-0.1,0.3
			c0.1,0.1,0.1,0.3,0.1,0.5l-1.5,5.4c-0.1,0.3-0.3,0.4-0.5,0.4h-8h-8.4h-7.6c-0.4,0-0.7-0.4-0.5-0.8L79.8,202z M110.6,202
			c-0.1-0.1-0.1-0.3-0.1-0.5l1.3-5.4c0.1-0.3,0.3-0.4,0.6-0.4h13.2c0.4,0,0.6,0.3,0.6,0.7l-0.1,0.3c0.1,0.1,0.1,0.3,0.1,0.4l-1,5.4
			c-0.1,0.3-0.3,0.5-0.6,0.5h-13.5c-0.4,0-0.6-0.4-0.5-0.7V202z M118.9,211.3c-0.1-0.1-0.1-0.3-0.1-0.4l1.1-5.4
			c0.1-0.3,0.3-0.5,0.6-0.5h13.7c0.3,0,0.6,0.3,0.6,0.7l-0.1,0.4c0.1,0.1,0.1,0.2,0.1,0.4l-0.8,5.4c0,0.3-0.3,0.5-0.6,0.5h-14
			c-0.4,0-0.6-0.3-0.6-0.7L118.9,211.3z M140.1,211.3c0-0.1-0.1-0.2-0.1-0.3l0.7-5.4c0-0.3,0.3-0.5,0.6-0.5H155
			c0.3,0,0.6,0.3,0.6,0.6v0.5c0,0.1,0,0.2,0,0.3l-0.4,5.4c0,0.3-0.3,0.5-0.6,0.5h-14c-0.3,0-0.6-0.3-0.6-0.7L140.1,211.3z
			 M161.4,211.2c0-0.1,0-0.1,0-0.2l0.3-5.4c0-0.3,0.3-0.6,0.6-0.6H176c0.3,0,0.6,0.3,0.6,0.6v5.4l0,0v0.7c0,0.3-0.3,0.6-0.6,0.6h-14
			c-0.3,0-0.6-0.3-0.6-0.6V211.2z M182.5,206.2v-0.6c0-0.3,0.2-0.6,0.6-0.6h13.7c0.3,0,0.5,0.2,0.6,0.5l0.4,5.4c0,0.1,0,0.2,0,0.3
			v0.5c0,0.3-0.2,0.6-0.6,0.6h-14c-0.3,0-0.6-0.3-0.6-0.6L182.5,206.2C182.4,206.3,182.4,206.3,182.5,206.2z M203.3,206.2v-0.4
			c0-0.4,0.2-0.7,0.6-0.7h13.7c0.3,0,0.5,0.2,0.6,0.5l0.9,5.4c0,0.1,0,0.3-0.1,0.4l0.1,0.4c0.1,0.4-0.2,0.7-0.6,0.7h-14
			c-0.3,0-0.5-0.2-0.6-0.5l-0.6-5.4C203.3,206.4,203.3,206.3,203.3,206.2z M227.7,202.2l0.1,0.3c0.1,0.4-0.2,0.7-0.6,0.7h-13.5
			c-0.3,0-0.5-0.2-0.6-0.5l-0.8-5.4c0-0.1,0-0.2,0.1-0.3l-0.1-0.4c-0.1-0.4,0.2-0.7,0.6-0.7h13.2c0.3,0,0.5,0.2,0.6,0.5l1.1,5.4
			C227.8,201.9,227.8,202,227.7,202.2z M216,192.9l0.1,0.4c0.1,0.4-0.2,0.7-0.6,0.7h-13c-0.3,0-0.5-0.2-0.6-0.5l-0.6-5.4
			c0-0.1,0-0.2,0-0.3v-0.4c0-0.4,0.2-0.7,0.6-0.7h12.7c0.3,0,0.5,0.2,0.6,0.5l0.9,5.4C216.1,192.6,216.1,192.8,216,192.9z
			 M156.6,193.3c0,0.3-0.3,0.5-0.6,0.5h-13c-0.3,0-0.6-0.3-0.6-0.7l0.1-0.4c0-0.1-0.1-0.2-0.1-0.3l0.7-5.4c0-0.3,0.3-0.5,0.6-0.5
			h12.7c0.3,0,0.6,0.3,0.6,0.6v0.5c0,0.1,0,0.2,0,0.3L156.6,193.3z M162.6,187.1c0-0.3,0.3-0.6,0.6-0.6h12.7c0.3,0,0.6,0.3,0.6,0.6
			v5.4l0,0v0.7c0,0.3-0.3,0.6-0.6,0.6h-13c-0.3,0-0.6-0.3-0.6-0.6v-0.5c0-0.1,0-0.1,0-0.2L162.6,187.1z M182,187.7v-0.6
			c0-0.3,0.2-0.6,0.6-0.6h12.7c0.3,0,0.5,0.2,0.6,0.5l0.4,5.4c0,0.1,0,0.2,0,0.3v0.5c0,0.3-0.2,0.6-0.6,0.6h-13
			c-0.3,0-0.6-0.3-0.6-0.6L182,187.7C182,187.8,182,187.8,182,187.7z M193.2,203.2c-0.3,0-0.5-0.2-0.6-0.6l-0.3-5.4
			c0-0.1,0-0.2,0-0.2v-0.5c0-0.3,0.2-0.6,0.6-0.6h13.2c0.3,0,0.5,0.2,0.6,0.5l0.6,5.4c0,0.1,0,0.2-0.1,0.3l0.1,0.4
			c0,0.4-0.2,0.7-0.6,0.7L193.2,203.2z M172.6,203.1c-0.3,0-0.6-0.3-0.6-0.6v-0.6v-0.1l0.1-5.4c0-0.3,0.3-0.6,0.6-0.6h13.2
			c0.3,0,0.6,0.3,0.6,0.6l0.2,5.4c0,0.1,0,0.1,0,0.2v0.6c0,0.3-0.2,0.6-0.6,0.6L172.6,203.1z M152.1,203.1c-0.3,0-0.6-0.3-0.6-0.6
			V202c0-0.1-0.1-0.2,0-0.3l0.5-5.4c0-0.3,0.3-0.5,0.6-0.5h13.2c0.3,0,0.6,0.3,0.6,0.6v0.6c0,0.1,0,0.1,0,0.2l-0.2,5.4
			c0,0.3-0.3,0.6-0.6,0.6L152.1,203.1z M131.6,203.1c-0.4,0-0.6-0.3-0.6-0.7l0.1-0.4c-0.1-0.1-0.1-0.2-0.1-0.4l0.9-5.4
			c0-0.3,0.3-0.5,0.6-0.5h13.2c0.3,0,0.6,0.3,0.6,0.7v0.4c0,0.1,0.1,0.2,0,0.3l-0.6,5.4c0,0.3-0.3,0.5-0.6,0.5L131.6,203.1z
			 M123.8,186.9c0.1-0.3,0.3-0.5,0.6-0.5h12.7c0.3,0,0.6,0.3,0.6,0.7l-0.1,0.4c0.1,0.1,0.1,0.2,0.1,0.4l-0.8,5.4
			c0,0.3-0.3,0.5-0.6,0.5h-13c-0.4,0-0.6-0.3-0.6-0.7l0.1-0.3c-0.1-0.1-0.1-0.3-0.1-0.4L123.8,186.9z M221.3,186.6H234
			c0.3,0,0.5,0.2,0.6,0.5l1.3,5.4c0,0.2,0,0.3-0.1,0.4l0.1,0.3c0.1,0.4-0.2,0.7-0.6,0.7h-13c-0.3,0-0.5-0.2-0.6-0.5l-1-5.4
			c0-0.1,0-0.3,0.1-0.4l-0.1-0.3C220.7,186.9,221,186.6,221.3,186.6z M232,196.9l-0.1-0.3c-0.1-0.4,0.2-0.7,0.6-0.7h7.6h8.3h7.9
			c0.2,0,0.5,0.2,0.5,0.4l1.7,5.4c0.1,0.2,0,0.4-0.1,0.5l0.1,0.2c0.1,0.4-0.2,0.8-0.5,0.8h-7.7h-8.5h-8.1c-0.3,0-0.5-0.2-0.6-0.5
			l-1.2-5.4C231.9,197.2,232,197,232,196.9z M240.3,187.7l-0.1-0.3c-0.1-0.4,0.2-0.7,0.5-0.7h12.7c0.2,0,0.5,0.2,0.5,0.4l1.7,5.4
			c0.1,0.2,0,0.4-0.1,0.5l0.1,0.2c0.1,0.4-0.2,0.8-0.5,0.8h-13c-0.3,0-0.5-0.2-0.5-0.4l-1.4-5.4C240.1,188,240.2,187.8,240.3,187.7z
			 M247.4,215.4l-0.1-0.3c-0.1-0.4,0.2-0.7,0.5-0.7H262c0.2,0,0.5,0.2,0.5,0.4l1.7,5.4c0.1,0.2,0,0.4-0.1,0.5l0.1,0.2
			c0.1,0.4-0.2,0.8-0.5,0.8h-14.5c-0.3,0-0.5-0.2-0.5-0.4l-1.4-5.4C247.3,215.7,247.3,215.5,247.4,215.4z M225.8,215.4l-0.1-0.3
			c-0.1-0.4,0.2-0.7,0.6-0.7h14.2c0.3,0,0.5,0.2,0.6,0.5l1.3,5.4c0,0.2,0,0.3-0.1,0.4l0.1,0.3c0.1,0.4-0.2,0.7-0.6,0.7h-14.5
			c-0.3,0-0.5-0.2-0.6-0.5l-1-5.4C225.8,215.6,225.8,215.5,225.8,215.4z M224.2,206.1l-0.1-0.3c-0.1-0.4,0.2-0.7,0.6-0.7h12h2.2
			h20.4c0.2,0,0.5,0.2,0.5,0.4l1.7,5.4c0.1,0.2,0,0.4-0.1,0.5l0.1,0.2c0.1,0.4-0.2,0.8-0.5,0.8h-20.5h-2.3h-12.5
			c-0.3,0-0.5-0.2-0.6-0.5l-1-5.4C224.1,206.4,224.1,206.3,224.2,206.1z M117,220.6c-0.1-0.1-0.1-0.3-0.1-0.4l1.1-5.4
			c0.1-0.3,0.3-0.5,0.6-0.5h14.9h6.1H155h6.1h15.4h6.1H198h21c0.3,0,0.5,0.2,0.6,0.5l0.9,5.4c0,0.1,0,0.3-0.1,0.4l0.1,0.4
			c0.1,0.4-0.2,0.7-0.6,0.7h-21.3h-15.7h-6.3h-15.7h-6.3h-15.7h-6.3h-15c-0.4,0-0.6-0.3-0.6-0.7L117,220.6z M112.2,212.3H99.8h-2.3
			H77c-0.4,0-0.7-0.4-0.5-0.8l0.1-0.2c-0.1-0.2-0.1-0.4-0.1-0.6l2-5.4c0.1-0.2,0.3-0.4,0.5-0.4h20.4h2.3h11.9c0.4,0,0.6,0.4,0.6,0.7
			l-0.1,0.3c0.1,0.1,0.1,0.3,0.1,0.4l-1.3,5.4C112.7,212.1,112.4,212.3,112.2,212.3z M95,220.6c-0.1-0.1-0.1-0.3-0.1-0.5l1.6-5.4
			c0.1-0.3,0.3-0.4,0.5-0.4h14.2c0.4,0,0.6,0.4,0.6,0.7l-0.1,0.3c0.1,0.1,0.1,0.3,0.1,0.4l-1.3,5.4c-0.1,0.3-0.3,0.5-0.6,0.5H95.4
			c-0.4,0-0.7-0.4-0.5-0.8L95,220.6z M75,214.6c0.1-0.2,0.3-0.4,0.5-0.4h14.2c0.4,0,0.7,0.4,0.5,0.8l-0.1,0.2
			c0.1,0.1,0.1,0.3,0.1,0.5l-1.7,5.4c-0.1,0.2-0.3,0.4-0.5,0.4H73.5c-0.4,0-0.7-0.4-0.5-0.8l0.1-0.2c-0.1-0.2-0.1-0.4-0.1-0.6
			L75,214.6z"/>
		<path class="st6" d="M249.3,221h14.5c0.2,0,0.4-0.1,0.5-0.3l0.1,0.2c0.1,0.4-0.2,0.8-0.5,0.8h-14.5c-0.3,0-0.5-0.2-0.5-0.4
			l-1.4-5.4c0-0.2,0-0.3,0.1-0.5l1.3,5.1C248.8,220.8,249,221,249.3,221z"/>
		<path class="st6" d="M227.3,220.9h14.5c0.2,0,0.4-0.1,0.5-0.3l0.1,0.3c0.1,0.4-0.2,0.7-0.6,0.7h-14.5c-0.3,0-0.5-0.2-0.6-0.5
			l-1-5.4c0-0.1,0-0.3,0.1-0.4l0.9,5.1C226.8,220.7,227,220.9,227.3,220.9z"/>
		<path class="st6" d="M117.5,220.9h15h6.3h15.7h6.3h15.7h6.3h15.7h21.3c0.2,0,0.4-0.1,0.5-0.3l0.1,0.4c0.1,0.4-0.2,0.7-0.6,0.7
			h-21.3h-15.7h-6.3h-15.7h-6.3h-15.7h-6.3h-15c-0.4,0-0.6-0.3-0.6-0.7l0.1-0.3C117.1,220.7,117.3,220.9,117.5,220.9z"/>
		<path class="st6" d="M95.5,220.8H110c0.3,0,0.5-0.2,0.6-0.5l1.2-5.1c0.1,0.1,0.1,0.3,0.1,0.4l-1.3,5.4c-0.1,0.3-0.3,0.5-0.6,0.5
			H95.5c-0.4,0-0.7-0.4-0.5-0.8l0.1-0.2C95.1,220.7,95.3,220.8,95.5,220.8z"/>
		<path class="st6" d="M73.6,220.8h14.5c0.2,0,0.5-0.2,0.5-0.4l1.6-5.2c0.1,0.1,0.1,0.3,0.1,0.5l-1.7,5.4c-0.1,0.2-0.3,0.4-0.5,0.4
			H73.6c-0.4,0-0.7-0.4-0.5-0.8l0.1-0.2C73.2,220.7,73.4,220.8,73.6,220.8z"/>
		<path class="st6" d="M225.6,211.7h12.5h2.3h20.5c0.2,0,0.4-0.1,0.5-0.3l0.1,0.2c0.1,0.4-0.2,0.8-0.5,0.8h-20.5h-2.3h-12.5
			c-0.3,0-0.5-0.2-0.6-0.5l-1-5.4c0-0.1,0-0.3,0.1-0.4l0.9,5.1C225.1,211.5,225.4,211.7,225.6,211.7z"/>
		<path class="st6" d="M204.4,211.7h14c0.2,0,0.4-0.1,0.5-0.3l0.1,0.4c0.1,0.4-0.2,0.7-0.6,0.7h-14c-0.3,0-0.5-0.2-0.6-0.5l-0.6-5.4
			c0-0.1,0-0.2,0-0.3l0.5,5C203.9,211.4,204.1,211.7,204.4,211.7z"/>
		<path class="st6" d="M183.1,211.7h14c0.2,0,0.4-0.2,0.5-0.4v0.5c0,0.3-0.2,0.6-0.6,0.6h-14c-0.3,0-0.6-0.3-0.6-0.6l-0.1-5.4v-0.1
			l0.1,4.8C182.6,211.4,182.8,211.7,183.1,211.7z"/>
		<path class="st6" d="M161.9,211.6h14c0.3,0,0.6-0.3,0.6-0.6v0.7c0,0.3-0.3,0.6-0.6,0.6h-14c-0.3,0-0.6-0.3-0.6-0.6v-0.5
			C161.4,211.5,161.6,211.6,161.9,211.6z"/>
		<path class="st6" d="M140.6,211.6h14c0.3,0,0.5-0.2,0.6-0.5l0.4-4.9c0,0.1,0,0.2,0,0.3l-0.4,5.4c0,0.3-0.3,0.5-0.6,0.5h-14
			c-0.3,0-0.6-0.3-0.6-0.7l0.1-0.4C140.2,211.5,140.4,211.6,140.6,211.6z"/>
		<path class="st6" d="M119.4,211.6h14c0.3,0,0.5-0.2,0.6-0.5l0.8-5.1c0.1,0.1,0.1,0.2,0.1,0.4l-0.8,5.4c0,0.3-0.3,0.5-0.6,0.5h-14
			c-0.4,0-0.6-0.3-0.6-0.7l0.1-0.3C119,211.5,119.2,211.6,119.4,211.6z"/>
		<path class="st6" d="M97.4,212.3H76.9c-0.4,0-0.7-0.4-0.5-0.8l0.1-0.2c0.1,0.1,0.3,0.2,0.5,0.2h20.5h2.3h12.4
			c0.3,0,0.5-0.2,0.6-0.5l1.2-5.1c0.1,0.1,0.1,0.3,0.1,0.4l-1.3,5.4c-0.1,0.3-0.3,0.5-0.6,0.5H99.8L97.4,212.3z"/>
		<path class="st6" d="M233.7,202.5h8.1h8.5h7.7c0.2,0,0.4-0.1,0.5-0.3l0.1,0.2c0.1,0.4-0.2,0.8-0.5,0.8h-7.7h-8.5h-8.1
			c-0.3,0-0.5-0.2-0.6-0.5l-1.2-5.4c0-0.2,0-0.3,0.1-0.4l1.1,5.1C233.2,202.3,233.4,202.5,233.7,202.5z"/>
		<path class="st6" d="M227.2,203.2h-13.5c-0.3,0-0.5-0.2-0.6-0.5l-0.8-5.4c0-0.1,0-0.2,0.1-0.3l0.7,5c0,0.3,0.3,0.5,0.6,0.5h13.5
			c0.2,0,0.4-0.1,0.5-0.3l0.1,0.3C227.9,202.8,227.6,203.2,227.2,203.2z"/>
		<path class="st6" d="M192.6,202.6l-0.3-5.4c0-0.1,0-0.2,0-0.2l0.3,4.9c0,0.3,0.3,0.6,0.6,0.6h13.5c0.2,0,0.4-0.1,0.5-0.3l0.1,0.4
			c0,0.4-0.2,0.7-0.6,0.7h-13.5C192.9,203.2,192.6,202.9,192.6,202.6z"/>
		<path class="st6" d="M172.1,202.5v-0.6c0,0.3,0.3,0.5,0.6,0.5h13.5c0.3,0,0.5-0.2,0.5-0.4v0.6c0,0.3-0.2,0.6-0.6,0.6h-13.5
			C172.3,203.1,172.1,202.9,172.1,202.5z"/>
		<path class="st6" d="M151.6,202.5V202c0.1,0.2,0.3,0.4,0.5,0.4h13.5c0.3,0,0.6-0.3,0.6-0.6l0.2-4.9c0,0.1,0,0.1,0,0.2l-0.2,5.4
			c0,0.3-0.3,0.6-0.6,0.6h-13.5C151.8,203.1,151.5,202.8,151.6,202.5z"/>
		<path class="st6" d="M131,202.4l0.1-0.4c0.1,0.2,0.3,0.3,0.5,0.3h13.5c0.3,0,0.5-0.2,0.6-0.5l0.6-5c0,0.1,0.1,0.2,0,0.3l-0.6,5.4
			c0,0.3-0.3,0.5-0.6,0.5h-13.5C131.2,203.1,131,202.7,131,202.4z"/>
		<path class="st6" d="M111.1,202.3h13.5c0.3,0,0.5-0.2,0.6-0.5l1-5.1c0.1,0.1,0.1,0.3,0.1,0.4l-1,5.4c-0.1,0.3-0.3,0.5-0.6,0.5
			h-13.5c-0.4,0-0.6-0.4-0.5-0.7l0.1-0.3C110.7,202.2,110.9,202.3,111.1,202.3z"/>
		<path class="st6" d="M80.3,202.3h7.6h8.4h8c0.3,0,0.5-0.2,0.5-0.4l1.4-5.2c0.1,0.1,0.1,0.3,0.1,0.5l-1.5,5.4
			c-0.1,0.3-0.3,0.4-0.5,0.4h-8h-8.4h-7.6c-0.4,0-0.7-0.4-0.5-0.8l0.1-0.2C79.9,202.2,80.1,202.3,80.3,202.3z"/>
		<path class="st6" d="M241.6,192.8c0.1,0.3,0.3,0.4,0.5,0.4h13c0.2,0,0.4-0.1,0.5-0.3l0.1,0.2c0.1,0.4-0.2,0.8-0.5,0.8h-13
			c-0.3,0-0.5-0.2-0.5-0.4l-1.4-5.4c0-0.2,0-0.3,0.1-0.5L241.6,192.8z"/>
		<path class="st6" d="M221.8,192.7c0.1,0.3,0.3,0.5,0.6,0.5h13c0.2,0,0.4-0.1,0.5-0.3l0.1,0.3c0.1,0.4-0.2,0.7-0.6,0.7h-13
			c-0.3,0-0.5-0.2-0.6-0.5l-1-5.4c0-0.1,0-0.3,0.1-0.4L221.8,192.7z"/>
		<path class="st6" d="M215.5,193.9h-13c-0.3,0-0.5-0.2-0.6-0.5l-0.6-5.4c0-0.1,0-0.2,0-0.3l0.5,5c0,0.3,0.3,0.5,0.6,0.5h13
			c0.2,0,0.4-0.1,0.5-0.3l0.1,0.4C216.1,193.6,215.8,193.9,215.5,193.9z"/>
		<path class="st6" d="M182.1,192.6c0,0.3,0.3,0.6,0.6,0.6h13c0.2,0,0.4-0.2,0.5-0.4v0.5c0,0.3-0.2,0.6-0.6,0.6h-13
			c-0.3,0-0.6-0.3-0.6-0.6l-0.1-5.4v-0.1L182.1,192.6z"/>
		<path class="st6" d="M162.9,193.1h13c0.3,0,0.6-0.3,0.6-0.6v0.7c0,0.3-0.3,0.6-0.6,0.6h-13c-0.3,0-0.6-0.3-0.6-0.6v-0.5
			C162.4,192.9,162.6,193.1,162.9,193.1z"/>
		<path class="st6" d="M156.6,193.3c0,0.3-0.3,0.5-0.6,0.5h-13c-0.3,0-0.6-0.3-0.6-0.7l0.1-0.4c0.1,0.2,0.3,0.3,0.5,0.3h13
			c0.3,0,0.5-0.2,0.6-0.5l0.4-4.9c0,0.1,0,0.2,0,0.3L156.6,193.3z"/>
		<path class="st6" d="M123.3,193.1h13c0.3,0,0.5-0.2,0.6-0.5l0.8-5.1c0.1,0.1,0.1,0.2,0.1,0.4l-0.8,5.4c0,0.3-0.3,0.5-0.6,0.5h-13
			c-0.4,0-0.6-0.3-0.6-0.7l0.1-0.3C122.9,192.9,123.1,193.1,123.3,193.1z"/>
		<path class="st6" d="M116.4,193.8h-13c-0.4,0-0.7-0.4-0.5-0.8l0.1-0.2c0.1,0.2,0.3,0.3,0.5,0.3h13c0.3,0,0.5-0.2,0.6-0.5l1.2-5.1
			c0.1,0.1,0.1,0.3,0.1,0.4l-1.3,5.4C116.9,193.6,116.7,193.8,116.4,193.8z"/>
		<path class="st6" d="M96.6,193.8H83.7c-0.4,0-0.7-0.4-0.5-0.8l0.1-0.2c0.1,0.1,0.3,0.2,0.5,0.3h12.9c0.2,0,0.5-0.2,0.5-0.4
			l1.6-5.2c0.1,0.1,0.1,0.3,0.1,0.5l-1.7,5.4C97.1,193.6,96.9,193.8,96.6,193.8z"/>
		<path class="st7" d="M187.4,229h-61l0,0h61.2l0,0H187.4z"/>
		<path class="st8" d="M119,231.9c0.1-0.8,1-1.5,2.2-2H186h0.2L152,250.6h61c4.1,0,7.2-1.3,7-2.9l-2.3-15.8
			c-0.2-1.3-2.4-2.4-5.2-2.8c2.9,0.4,5.2,1.5,5.3,2.8l2.3,15.8c0.2,1.6-2.9,2.9-7,2.9h-90.3c-4.1,0-7.2-1.3-6.9-2.9L119,231.9z"/>
		<path class="st8" d="M217.6,232l2.3,15.8c0.2,1.6-2.9,2.9-7,2.9h-61l34.2-20.7h29.1c-1.3-0.6-3.2-0.9-5.1-0.9h-22.5l0,0l0,0h22.7
			c0.7,0,1.4,0,2.1,0.1C215.3,229.5,217.5,230.7,217.6,232z"/>
		<path class="st8" d="M187.6,229h22.5c2,0,3.8,0.3,5.1,0.9h-29.1h-0.2h-64.8h-0.4c1.4-0.6,3.3-1,5.3-1h0.4h61L187.6,229z"/>
		<path class="st2" d="M140.8,252.7c0-0.5,0.4-1,0.9-1h57.8c0.5,0,0.9,0.4,0.9,1c0,0.5-0.4,0.9-0.8,1h-0.1h-57.8h-0.1
			C141.2,253.6,140.8,253.2,140.8,252.7z"/>
		<path class="st9" d="M247.9,214.4h14.2c0.2,0,0.5,0.2,0.5,0.4l1.7,5.4c0.1,0.2,0,0.4-0.1,0.5c-0.1,0.2-0.3,0.3-0.5,0.3h-14.5
			c-0.3,0-0.5-0.2-0.5-0.4l-1.3-5.1l-0.1-0.3C247.3,214.7,247.5,214.4,247.9,214.4z"/>
		<path class="st9" d="M226.3,214.3h14.2c0.3,0,0.5,0.2,0.6,0.5l1.3,5.4c0,0.2,0,0.3-0.1,0.4c-0.1,0.2-0.3,0.3-0.5,0.3h-14.5
			c-0.3,0-0.5-0.2-0.6-0.5l-0.9-5.1l-0.1-0.3C225.7,214.7,226,214.3,226.3,214.3z"/>
		<path class="st9" d="M116.9,220.1l1.1-5.4c0.1-0.3,0.3-0.5,0.6-0.5h14.9h6.1H155h6.1h15.4h6.1H198h21c0.3,0,0.5,0.2,0.6,0.5
			l0.9,5.4c0,0.1,0,0.3-0.1,0.4c-0.1,0.2-0.3,0.3-0.5,0.3h-21.3h-15.7h-6.3h-15.7h-6.3h-15.7h-6.3h-15c-0.2,0-0.4-0.1-0.5-0.3
			C116.9,220.4,116.9,220.3,116.9,220.1z"/>
		<path class="st9" d="M95,220.1l1.6-5.4c0.1-0.3,0.3-0.4,0.5-0.4h14.2c0.4,0,0.6,0.4,0.6,0.7l-0.1,0.3l-1.2,5.1
			c-0.1,0.3-0.3,0.5-0.6,0.5H95.5c-0.2,0-0.4-0.1-0.5-0.3C95,220.4,94.9,220.3,95,220.1z"/>
		<path class="st9" d="M75.5,214.2h14.2c0.4,0,0.7,0.4,0.5,0.8l-0.1,0.2l-1.6,5.2c-0.1,0.2-0.3,0.4-0.5,0.4H73.5
			c-0.2,0-0.4-0.1-0.5-0.3s-0.1-0.4-0.1-0.6l2-5.4C75.1,214.4,75.3,214.2,75.5,214.2z"/>
		<path class="st9" d="M224.7,205.1h12h2.2h20.4c0.2,0,0.5,0.2,0.5,0.4l1.7,5.4c0.1,0.2,0,0.4-0.1,0.5c-0.1,0.2-0.3,0.3-0.5,0.3
			h-20.5h-2.3h-12.5c-0.3,0-0.5-0.2-0.6-0.5l-0.9-5.1l-0.1-0.3C224,205.4,224.3,205.1,224.7,205.1z"/>
		<path class="st9" d="M203.8,205.1h13.7c0.3,0,0.5,0.2,0.6,0.5l0.9,5.4c0,0.1,0,0.3-0.1,0.4c-0.1,0.2-0.3,0.3-0.5,0.3h-14
			c-0.3,0-0.5-0.2-0.6-0.5l-0.5-5v-0.4C203.2,205.4,203.5,205.1,203.8,205.1z"/>
		<path class="st9" d="M183,205h13.7c0.3,0,0.5,0.2,0.6,0.5l0.4,5.4c0,0.1,0,0.2,0,0.3c-0.1,0.2-0.3,0.4-0.5,0.4h-14
			c-0.3,0-0.6-0.3-0.6-0.6l-0.1-4.8v-0.6C182.4,205.3,182.7,205,183,205z"/>
		<path class="st9" d="M161.6,205.6c0-0.3,0.3-0.6,0.6-0.6h13.7c0.3,0,0.6,0.3,0.6,0.6v5.4l0,0c0,0.3-0.3,0.6-0.6,0.6h-14
			c-0.3,0-0.5-0.2-0.5-0.4c0-0.1,0-0.1,0-0.2L161.6,205.6z"/>
		<path class="st9" d="M140.1,210.9l0.7-5.4c0-0.3,0.3-0.5,0.6-0.5h13.7c0.3,0,0.6,0.3,0.6,0.6v0.5l-0.4,4.9c0,0.3-0.3,0.5-0.6,0.5
			h-14c-0.2,0-0.4-0.1-0.5-0.3C140.1,211.2,140.1,211.1,140.1,210.9z"/>
		<path class="st9" d="M118.8,210.9l1.1-5.4c0.1-0.3,0.3-0.5,0.6-0.5h13.7c0.3,0,0.6,0.3,0.6,0.7l-0.1,0.4l-0.8,5.1
			c0,0.3-0.3,0.5-0.6,0.5h-14c-0.2,0-0.4-0.1-0.5-0.3C118.8,211.2,118.8,211,118.8,210.9z"/>
		<path class="st9" d="M112.2,211.6H99.8h-2.3H77c-0.2,0-0.4-0.1-0.5-0.2c-0.1-0.2-0.1-0.4-0.1-0.6l2-5.4c0.1-0.2,0.3-0.4,0.5-0.4
			h20.4h2.3h11.9c0.4,0,0.6,0.4,0.6,0.7L114,206l-1.2,5.1C112.7,211.4,112.4,211.6,112.2,211.6z"/>
		<path class="st9" d="M232.5,195.9h7.6h8.3h7.9c0.2,0,0.5,0.2,0.5,0.4l1.7,5.4c0.1,0.2,0,0.4-0.1,0.5c-0.1,0.2-0.3,0.3-0.5,0.3
			h-7.7h-8.5h-8.1c-0.3,0-0.5-0.2-0.6-0.5l-1.1-5.1l-0.1-0.3C231.9,196.2,232.2,195.9,232.5,195.9z"/>
		<path class="st9" d="M227.2,202.5h-13.5c-0.3,0-0.5-0.2-0.6-0.5l-0.7-5l-0.1-0.4c-0.1-0.4,0.2-0.7,0.6-0.7h13.2
			c0.3,0,0.5,0.2,0.6,0.5l1.1,5.4c0,0.1,0,0.3-0.1,0.4C227.6,202.3,227.4,202.5,227.2,202.5z"/>
		<path class="st9" d="M206.7,202.4h-13.5c-0.3,0-0.5-0.2-0.6-0.6l-0.3-4.9v-0.5c0-0.3,0.2-0.6,0.6-0.6h13.2c0.3,0,0.5,0.2,0.6,0.5
			l0.6,5.4c0,0.1,0,0.2-0.1,0.3C207.1,202.3,206.9,202.4,206.7,202.4z"/>
		<path class="st9" d="M186.2,202.4h-13.5c-0.3,0-0.5-0.2-0.6-0.5v-0.1l0.1-5.4c0-0.3,0.3-0.6,0.6-0.6H186c0.3,0,0.6,0.3,0.6,0.6
			l0.2,5.4c0,0.1,0,0.1,0,0.2C186.7,202.2,186.4,202.4,186.2,202.4z"/>
		<path class="st9" d="M165.6,202.4h-13.5c-0.2,0-0.4-0.2-0.5-0.4c0-0.1-0.1-0.2,0-0.3l0.5-5.4c0-0.3,0.3-0.5,0.6-0.5h13.2
			c0.3,0,0.6,0.3,0.6,0.6v0.6l-0.2,4.9C166.2,202.1,165.9,202.4,165.6,202.4z"/>
		<path class="st9" d="M145.1,202.4h-13.5c-0.2,0-0.4-0.1-0.5-0.3c-0.1-0.1-0.1-0.2-0.1-0.4l0.9-5.4c0-0.3,0.3-0.5,0.6-0.5h13.2
			c0.3,0,0.6,0.3,0.6,0.7v0.4l-0.6,5C145.6,202.1,145.4,202.4,145.1,202.4z"/>
		<path class="st9" d="M110.5,201.6l1.3-5.4c0.1-0.3,0.3-0.4,0.6-0.4h13.2c0.4,0,0.6,0.3,0.6,0.7l-0.1,0.3l-1,5.1
			c-0.1,0.3-0.3,0.5-0.6,0.5H111c-0.2,0-0.4-0.1-0.5-0.3C110.5,201.9,110.5,201.7,110.5,201.6z"/>
		<path class="st9" d="M79.8,201.5l2-5.4c0.1-0.2,0.3-0.4,0.5-0.4h7.8h8.2h7.5c0.4,0,0.6,0.4,0.5,0.8l-0.1,0.3l-1.4,5.2
			c-0.1,0.3-0.3,0.4-0.5,0.4h-8h-8.4h-7.6c-0.2,0-0.4-0.1-0.5-0.3C79.7,201.9,79.7,201.7,79.8,201.5z"/>
		<path class="st9" d="M240.7,186.6h12.7c0.2,0,0.5,0.2,0.5,0.4l1.7,5.4c0.1,0.2,0,0.4-0.1,0.5c-0.1,0.2-0.3,0.3-0.5,0.3h-13
			c-0.3,0-0.5-0.2-0.5-0.4l-1.3-5.1l-0.1-0.3C240.1,187,240.4,186.6,240.7,186.6z"/>
		<path class="st9" d="M234,186.6c0.3,0,0.5,0.2,0.6,0.5l1.3,5.4c0,0.2,0,0.3-0.1,0.4c-0.1,0.2-0.3,0.3-0.5,0.3h-13
			c-0.3,0-0.5-0.2-0.6-0.5l-0.9-5.1l-0.1-0.3c-0.1-0.4,0.2-0.7,0.6-0.7L234,186.6z"/>
		<path class="st9" d="M215.5,193.2h-13c-0.3,0-0.5-0.2-0.6-0.5l-0.5-5v-0.4c0-0.4,0.2-0.7,0.6-0.7h12.7c0.3,0,0.5,0.2,0.6,0.5
			l0.9,5.4c0,0.1,0,0.3-0.1,0.4C215.9,193.1,215.7,193.2,215.5,193.2z"/>
		<path class="st9" d="M182.5,186.5h12.7c0.3,0,0.5,0.2,0.6,0.5l0.4,5.4c0,0.1,0,0.2,0,0.3c-0.1,0.2-0.3,0.4-0.5,0.4h-13
			c-0.3,0-0.6-0.3-0.6-0.6l-0.1-4.8v-0.6C182,186.8,182.2,186.5,182.5,186.5z"/>
		<path class="st9" d="M163.2,186.5h12.7c0.3,0,0.6,0.3,0.6,0.6v5.4l0,0c0,0.3-0.3,0.6-0.6,0.6h-13c-0.3,0-0.5-0.2-0.5-0.4
			c0-0.1,0-0.1,0-0.2l0.3-5.4C162.6,186.8,162.9,186.5,163.2,186.5z"/>
		<path class="st9" d="M156.6,192.6c0,0.3-0.3,0.5-0.6,0.5h-13c-0.2,0-0.4-0.1-0.5-0.3c0-0.1-0.1-0.2-0.1-0.3l0.7-5.4
			c0-0.3,0.3-0.5,0.6-0.5h12.7c0.3,0,0.6,0.3,0.6,0.6v0.5L156.6,192.6z"/>
		<path class="st9" d="M123.8,186.9c0.1-0.3,0.3-0.5,0.6-0.5h12.7c0.3,0,0.6,0.3,0.6,0.7l-0.1,0.4l-0.8,5.1c0,0.3-0.3,0.5-0.6,0.5
			h-13c-0.2,0-0.4-0.1-0.5-0.3c-0.1-0.1-0.1-0.3-0.1-0.4L123.8,186.9z"/>
		<path class="st9" d="M117,192.6c-0.1,0.3-0.3,0.5-0.6,0.5h-13c-0.2,0-0.4-0.1-0.5-0.3c-0.1-0.1-0.1-0.3-0.1-0.5l1.6-5.4
			c0.1-0.3,0.3-0.4,0.5-0.4h12.7c0.4,0,0.6,0.4,0.6,0.7l-0.1,0.3L117,192.6z"/>
		<path class="st9" d="M97.2,192.6c-0.1,0.2-0.3,0.4-0.5,0.4H83.8c-0.2,0-0.4-0.1-0.5-0.3s-0.1-0.4-0.1-0.6l2-5.4
			c0.1-0.2,0.3-0.4,0.5-0.4h12.6c0.4,0,0.7,0.4,0.5,0.8l-0.1,0.2L97.2,192.6z"/>
		<path class="st6" d="M112.5,36.7c-2.1,0.5-3.7,2.5-3.7,4.8l-0.1,0.5v41.3c0,2.7-2.1,4.9-4.7,4.9l0,0c-0.4,0-0.8-0.1-1.1-0.1
			c-2.1-0.5-3.6-2.5-3.6-4.8V53.5l0,0c-0.1-0.2-0.2-0.3-0.3-0.5V5.7c0-2.7-2.1-4.9-4.7-4.9S89.6,3,89.6,5.7v0.7l-0.2-1.1
			c0-2.5,2-4.5,4.4-4.5h95.5c2.4,0,4.4,2,4.4,4.5v31.3h-80.3C112.9,36.6,112.7,36.7,112.5,36.7z"/>
		<path class="st6" d="M118.3,51.5L118.3,51.5V79l0,0V51.5z"/>
		<rect x="193.5" y="44.6" class="st1" width="35.4" height="8.9"/>
		<path class="st0" d="M229,175.7V53.5h-35.4v4.4h22.3v52.5h-22.3v5.5h20.5c1,0,1.8,0.8,1.8,1.8v0.5c0,1-0.8,1.8-1.8,1.8h-22.9
			c-0.6,0.3-1.3,0.5-2,0.5l-0.9-0.5H146c-1,0-1.8-0.8-1.8-1.8v-0.5c0-1,0.8-1.8,1.8-1.8h35.2l-9.5-5.5h-46.5V83.2l-5.9-3.4
			c-0.2,0-0.6-0.3-1.1-0.7v96.7L229,175.7L229,175.7z M136.4,129c-0.7,0.4-1.9,0.7-3.5,0.7c-3.3,0-5.3-2.1-5.3-4.5
			c0-1.5,0.6-2.6,1.5-3.2c0.9-0.7,2.1-0.9,3.3-0.9c0.3,0,0.5,0,0.8,0l-0.3-2h-4.8v-2.5h6.8l0.8,6.8c-0.5-0.1-1-0.1-1.7-0.1
			c-2.5,0-3.5,0.8-3.5,2.1c0,1.4,1.3,2,2.5,2c1.1,0,2.2-0.4,2.8-0.6L136.4,129z M136.7,142.6c0,3.1-1.6,5.6-4.9,5.6
			c-2.7,0-4.6-2.1-4.6-4.7c0-2.7,1.8-4.2,3.8-4.2c1.1,0,2,0.4,2.6,1h0.1c-0.3-1.5-1.5-2.9-4-3.1c-0.5,0-0.8-0.1-1.1,0v-2.3
			c0.3,0,0.6,0,1.2,0c1.9,0.1,3.5,0.7,4.8,1.9C135.8,138.2,136.7,140.2,136.7,142.6z M136.7,158c0,2.5-1.8,4-3.9,4
			c-1.1,0-1.9-0.3-2.5-0.9l0,0c0.2,1,0.7,1.8,1.6,2.4c0.6,0.5,1.5,0.7,2.4,0.8c0.6,0,0.9,0,1.3,0v2.3c-0.3,0-0.8,0-1.3,0
			c-1.9-0.1-3.6-0.7-4.7-1.8c-1.4-1.3-2.2-3.3-2.2-6c0-3,1.5-5.6,4.7-5.6C134.7,153.4,136.7,155.5,136.7,158z M215.9,127.8
			c0,1-0.8,1.8-1.8,1.8H146c-1,0-1.8-0.8-1.8-1.8v-0.5c0-1,0.8-1.8,1.8-1.8h68.1c1,0,1.8,0.8,1.8,1.8L215.9,127.8L215.9,127.8z
			 M215.9,137.4c0,1-0.8,1.8-1.8,1.8H146c-1,0-1.8-0.8-1.8-1.8V137c0-1,0.8-1.8,1.8-1.8h68.1c1,0,1.8,0.8,1.8,1.8L215.9,137.4
			L215.9,137.4z M215.9,147.1c0,1-0.8,1.8-1.8,1.8H146c-1,0-1.8-0.8-1.8-1.8v-0.5c0-1,0.8-1.8,1.8-1.8h68.1c1,0,1.8,0.8,1.8,1.8
			L215.9,147.1L215.9,147.1z M215.9,156.7c0,1-0.8,1.8-1.8,1.8H146c-1,0-1.8-0.8-1.8-1.8v-0.5c0-1,0.8-1.8,1.8-1.8h68.1
			c1,0,1.8,0.8,1.8,1.8L215.9,156.7L215.9,156.7z M215.9,165.8v0.5c0,1-0.8,1.8-1.8,1.8H146c-1,0-1.8-0.8-1.8-1.8v-0.5
			c0-1,0.8-1.8,1.8-1.8h68.1C215.1,164,215.9,164.8,215.9,165.8z"/>
		<path class="st0" d="M132,159.9c-0.8,0-1.4-0.4-1.6-0.8c-0.1-0.2-0.1-0.4-0.1-0.8c0-1.4,0.5-2.7,1.8-2.7c1,0,1.7,0.9,1.7,2.3
			C133.8,159,133.2,159.9,132,159.9z"/>
		<path class="st0" d="M131.8,146c-1,0-1.7-1-1.7-2.3c0-1.2,0.6-2.2,1.8-2.2c0.8,0,1.4,0.5,1.7,1.1c0.1,0.2,0.1,0.4,0.1,0.8
			C133.7,144.8,133.1,146,131.8,146z"/>
		<path class="st6" d="M193.5,53.5v4.4h-68.3v25.3l-5.9-3.4c-0.2,0-0.6-0.3-1.1-0.7V51.6v-0.1v-10c0-2.7-2.1-4.9-4.7-4.9
			c-0.3,0-0.7,0-1,0.1c0.2-0.1,0.4-0.1,0.7-0.1h80.3v8V53.5z"/>
		<polygon class="st6" points="193.5,115.9 181.2,115.9 171.7,110.4 193.5,110.4 		"/>
		
			<linearGradient id="SVGID_2_" gradientUnits="userSpaceOnUse" x1="2104.2095" y1="150.85" x2="2221.0676" y2="150.85" gradientTransform="matrix(-1 0 0 -1 2333.1987 264)">
			<stop  offset="6.284050e-02" style="stop-color:#D5EDFF"/>
			<stop  offset="0.8991" style="stop-color:#FFFFFF"/>
		</linearGradient>
		<polygon class="st10" points="193.5,115.9 181.2,115.9 171.7,110.4 193.5,110.4 		"/>
		<path class="st6" d="M189.2,120.6l-0.9-0.5h2.9C190.6,120.4,189.9,120.6,189.2,120.6z"/>
		
			<linearGradient id="SVGID_3_" gradientUnits="userSpaceOnUse" x1="2104.2095" y1="143.65" x2="2221.0676" y2="143.65" gradientTransform="matrix(-1 0 0 -1 2333.1987 264)">
			<stop  offset="6.284050e-02" style="stop-color:#D5EDFF"/>
			<stop  offset="0.8991" style="stop-color:#FFFFFF"/>
		</linearGradient>
		<path class="st11" d="M189.2,120.6l-0.9-0.5h2.9C190.6,120.4,189.9,120.6,189.2,120.6z"/>
		<path class="st12" d="M118.3,79v9.2h-15.4v-0.1c0.4,0.1,0.7,0.1,1.1,0.1l0,0c2.6,0,4.7-2.2,4.7-4.9V42l0.1-0.5
			c0-2.4,1.6-4.3,3.7-4.8c0.3-0.1,0.7-0.1,1-0.1c2.6,0,4.7,2.2,4.7,4.9v10V79H118.3z"/>
		<path class="st12" d="M94.2,0.8C96.8,0.8,99,3,99,5.7V53v0.5v0.1h-9.4v-0.1v-8.9V6.4V5.7C89.5,3,91.6,0.8,94.2,0.8z"/>
		<g>
			
				<linearGradient id="SVGID_4_" gradientUnits="userSpaceOnUse" x1="2104.1987" y1="157.8" x2="2219.6987" y2="157.8" gradientTransform="matrix(-1 0 0 -1 2333.1987 264)">
				<stop  offset="6.284050e-02" style="stop-color:#D5EDFF"/>
				<stop  offset="0.8991" style="stop-color:#FFFFFF"/>
			</linearGradient>
			<path class="st13" d="M193.5,36.6h-80c2.6,0,4.7,2.2,4.7,4.9v10v0.1v27.5v96.7H229V53.5v-8.9v-2c0-3.3-2-6-4.5-6H193.5z"/>
			<path class="st12" d="M113.2,36.6h0.3c-0.3,0-0.7,0-1,0.1C112.7,36.7,112.9,36.6,113.2,36.6z"/>
		</g>
		<g>
			<ellipse class="st6" cx="204.8" cy="65.9" rx="16.3" ry="17"/>
			<g>
				<g>
					<defs>
						<ellipse id="SVGID_5_" cx="204.8" cy="65.8" rx="16.3" ry="17"/>
					</defs>
					<clipPath id="SVGID_6_">
						<use xlink:href="#SVGID_5_"  style="overflow:visible;"/>
					</clipPath>
					<g class="st14">
						<g>
							<g>
								<polygon class="st15" points="212.1,178 221,181.4 221,182.5 206.6,182.5 206.5,179.8 210,178 								"/>
								<path class="st15" d="M192.3,176.8c-0.4,0-10.7,5.7-10.7,5.7v0.9l15.1-1.9v-3.1l-3.6-1.6L192.3,176.8L192.3,176.8z"/>
								<path class="st15" d="M194.3,118.4l-3.7,59.2l2.8,1.5l3.4-0.5l1.4-20.1c0.2-2.9,0.8-5.8,1.7-8.6c1.6-5,2.8-9.8,4.1-17.8
									c1-6.4,0-4,0-4l1.7-0.3c0,0,3.2,23.7,2.5,31.6c-0.8,7.9-1.4,20.3-1.4,20.3l2.2-0.5l3.4-1.3l0.7-3.7c1-4.8,2.8-17.4,2.8-17.4
									s1.7-14.7,0.9-21.8c-0.8-7.1-1.2-14.4-1.2-14.4v-6.3l-15.9,0.7l-5.6-3L194.3,118.4z"/>
								<path class="st16" d="M216.3,118.7c0,0-5.3-2.2-11.5-2.7c-6.3-0.4-10.7,0-10.7,0s-1.3-34.6,0.3-36.2c1.6-1.5-0.9-3,3.1-5.6
									c2.4-1.5,9.4-2.2,11.2-1.2s7,4.3,7,4.3L216.3,118.7z"/>
								<path class="st16" d="M210.9,74.5c0,0,7.6,4.1,8.8,6.8c1.2,2.7,4,8.9,4.9,17.1c0.4,4-1,32-6.5,32.3
									c-5.4,0.3-0.4-6.2,0.4-14.7c0.2-2.1,0.5-19.5-1.4-24.2C215.2,87.1,210.9,74.5,210.9,74.5z"/>
								<path class="st17" d="M221.7,125.6c-0.9,3-2.1,5.1-3.5,5.1c-3.4,0.2-2.7-2.4-1.4-6.4C218.7,124.4,220.4,124.9,221.7,125.6z"
									/>
								<g>
									<path class="st16" d="M197,74.6c4.2-2,1.5,6.8,1.5,9.2c0.1,2.4-3.9,16.2-4.4,18.5c-0.5,2.3-6.9,17-8.2,19.4
										c-0.4,0.8-3.1,5.7-6,3s4.1-12.6,7-20.3s4.3-14.9,4.8-18.2S194.6,75.7,197,74.6z"/>
									<path class="st17" d="M186.2,121.4c-0.1,0.1-0.1,0.3-0.2,0.4c-0.4,0.8-3.1,5.7-6,3c-1.1-1.1-0.8-3.2,0.3-5.9
										c0.1,0,0.2,0,0.3,0C182.8,118.8,184.8,119.8,186.2,121.4z"/>
								</g>
								<g>
									<path class="st17" d="M204.6,77.7L204.6,77.7c2.3,0,4.3-1.8,4.6-4.2l1.1-8.3h-11.1l0.9,8.2
										C200.3,75.9,202.2,77.7,204.6,77.7z"/>
									<ellipse class="st17" cx="204.7" cy="58" rx="7.3" ry="7.6"/>
									<path class="st17" d="M197.4,58.2c0,4.2,3.3,14.6,7.3,14.6s7.3-10.4,7.3-14.6s-3.3-0.6-7.3-0.6
										C200.7,57.7,197.4,54,197.4,58.2z"/>
									<path class="st15" d="M209.2,68.2c0,0-1,6.2-4.4,6.1c-3.4,0-4.6-6.1-4.6-6.1H209.2z"/>
									<path class="st17" d="M197.4,58.2c0,4.2,3.3,14.6,7.3,14.6s7.3-10.4,7.3-14.6s-3.3-0.6-7.3-0.6
										C200.7,57.7,197.4,54,197.4,58.2z"/>
									<path class="st15" d="M197.4,58.1C197.4,58.1,197.4,58,197.4,58.1c0-4.3,3.3-7.7,7.3-7.7s7.3,3.4,7.3,7.6c0,0,0,0,0,0.1
										v0.1c0,0.7-0.1,1.5-0.2,2.5c-1.1,0-2.3-1-2.9-2.6c-0.2-0.5-0.3-0.9-0.4-1.4c-1.2,0.4-2.6,0.6-4.1,0.6
										c-1.3,0-2.5-0.1-3.5-0.4c-0.1,0.4-0.2,0.8-0.3,1.1c-0.6,1.6-1.8,2.6-2.8,2.6c-0.2-0.9-0.2-1.7-0.2-2.4
										C197.4,58.2,197.4,58.1,197.4,58.1z"/>
									<path class="st15" d="M210,67L210,67c1,0,1.9-1,1.9-2.2l0.1-7.1l-2,0.6V67z"/>
									<path class="st17" d="M209.5,65.3c0,0,1,0.3,1.1-0.9c0.1-1.2,0-1.9,0.5-1.8c0.5,0.2,0.3,3.1-0.7,3.8s-0.9-0.1-1.1,1
										c-0.2,1.1-0.5,0.1-0.5,0.1l-0.7-1.8L209.5,65.3z"/>
									<path class="st15" d="M199.4,67L199.4,67c-1,0-1.9-1-1.9-2.2l-0.1-7.1l2,0.6V67z"/>
									<path class="st17" d="M199.9,65.3c0,0-1,0.3-1.1-0.9c-0.1-1.2,0-1.9-0.5-1.8c-0.5,0.2-0.3,3.1,0.7,3.8s0.9-0.1,1.1,1
										c0.2,1.1,0.5,0.1,0.5,0.1l0.7-1.8L199.9,65.3z"/>
								</g>
							</g>
						</g>
						<g>
							<path class="st15" d="M211,62.7h-0.5v-4.1c0,0-1,1.8-3.6,1.8s-3.7-1.5-4.3-2.1s-1.1-1.4-2-1.4s-1.1,0.8-1.1,1.7s0,4.5,0,4.5
								h-0.6c0,0-0.8-5.5-0.8-7s1-5.8,4.9-5.8s3.6,2,6.7,2.6C212.8,53.5,211,62.7,211,62.7z"/>
							<path class="st15" d="M210.4,65v8c0,0,0,4.1-5.2,4.1s-5.9-2.8-5.9-3.8s0-8.3,0-8.3s0.7,0.3,0.7,1.1s0.1,2,0.9,2
								c0.7,0,0.6-2.7,2.1-2.7s3.9,0,3.9,0s1,0.3,1.1,1.5c0.1,1.3,1.1,1.4,1.1,1.4s0.8,0.1,0.8-2.2C209.8,66,209.7,65.2,210.4,65z"
								/>
						</g>
					</g>
				</g>
			</g>
		</g>
		<path class="st18" d="M134.8,60.9h39.9c2.2,0,4-1.8,4-4l0,0c0-2.2-1.8-4-4-4h-39.9c-2.2,0-4,1.8-4,4l0,0
			C130.9,59.1,132.6,60.9,134.8,60.9z"/>
		<path class="st6" d="M134.8,73.4h39.9c2.2,0,4-1.8,4-4l0,0c0-2.2-1.8-4-4-4h-39.9c-2.2,0-4,1.8-4,4l0,0
			C130.9,71.7,132.6,73.4,134.8,73.4z"/>
		<ellipse class="st6" cx="216.3" cy="96.3" rx="5.4" ry="5.6"/>
		<ellipse class="st6" cx="216.3" cy="114.5" rx="5.4" ry="5.6"/>
		<g>
			<path class="st19" d="M54.1,165.8l2.7,1.8c0,0-16.3,15.4-23.5,10.2c-0.3-0.2-7-7.5-7-7.5l-4.5-17c0,0,9.4,12.5,12.1,18.2
				C33.9,171.5,53.1,165.8,54.1,165.8z"/>
			<path class="st6" d="M12.3,153.6l-4.9,2.6c0,0,1.1,12.7,0.8,24.3c-0.2,8.8-1.9,17.1-1.7,17.2c0.5,0.3,22.4-1.8,22.4-1.8
				s-2.4-5-3.3-15.3c-0.1-1.6,1.1-10.8,0.8-12.1c-2.3-10.4-4.5-15.4-4.5-15.4l-5.3,0.2L12.3,153.6z"/>
			<path class="st20" d="M5.5,253.5l-0.2,2.9c0,0-2.3,4.5-2.1,5.4s5.3,0.7,5.3,0.7s-0.6-4.3-1.5-5.6c-0.9-1.3,0.7-3.9,0.7-3.9
				L5.5,253.5z"/>
			<path class="st20" d="M14.6,252.3l0.1,3.4l-1.7,2l-0.2,1.2c0,0,11.4,1.1,12.1,0.8c0.7-0.3-0.2-1.6-0.2-1.6l-8-2.4l0.4-3.6
				L14.6,252.3z"/>
			<path class="st21" d="M6.7,197.6l-3.3,55.9l5.9,0.9c0,0,6.5-47.3,7.2-47.9c0.7-0.7,2.5-1.8,2.5-1.8l-2.1,13.4l-3.5,34.6l4.9,0.1
				c0,0,4-25.7,5.4-29.3c1.5-3.6,6.5-22.9,4.6-28.2C28.2,194.6,6.7,197.6,6.7,197.6z"/>
			<path class="st22" d="M18.7,179.5c0,0,2.4-4.8,2.8-4.6s-0.8,2.9-0.8,2.9s5.3-0.7,5.3,0.6s1.6,3.7-3.8,4.5s-6.3,0.6-6.3,0.6
				l0.1-3.1L18.7,179.5z"/>
			<path class="st19" d="M7.6,155.5c1.7-1.4-0.1,12.5,0.9,24l9.4-1.2l1.7,5.8c0,0-9.9,3.4-14.9,0.2C1.9,182.7-4.4,165,7.6,155.5z"/>
			<g>
				<g>
					<g>
						<path class="st23" d="M14.6,156.8L14.6,156.8c-2.4,0.1-2.8-2.9-2.9-4l-0.1-6.5l6.3-1.4l-0.5,7.8
							C17.2,155.1,16,156.8,14.6,156.8z"/>
						<path class="st24" d="M10.8,144.9l7,5.6l-0.5,2c0,0-1.6,0.8-4.5-2.4c-2.3-2.5-2.1-3.8-2.1-3.8v-1.6v0.2H10.8z"/>
						<path class="st25" d="M21,134.2c0,0,1.3,3.6,0.9,5.3s-0.4,1.7-0.4,1.7s-1.1-5-1.1-5.1S21,134.2,21,134.2z"/>
						<ellipse class="st23" cx="14.2" cy="139" rx="7.4" ry="7.8"/>
						<path class="st23" d="M21.7,139.2c0,3.1-1.6,10.9-4.3,11.2c-4.1,0.4-10.8-6.6-9.4-10.1c1.2-2.9,5.5-1.2,8.2-1.2
							S21.7,136,21.7,139.2z"/>
						<ellipse class="st23" cx="8.9" cy="140.5" rx="1.1" ry="2.2"/>
						<path class="st23" d="M9.6,143.8l-0.2-0.3l-0.7-0.9l1.2-1.5c0,0,0,1.7,0.7,2s1.4,1,1.4,1l-1.3,1.4l-1,1.1L9.6,143.8z"/>
					</g>
					<path class="st8" d="M17.9,138c0,0,3.5,1.5,2.6,14.2c0,0,4.2-11,1.8-15.1c0,0,1.5-6.3-5.6-6.6c-7.1-0.4-8.7,1.3-8.7,1.3
						s-5.3,10,1,14.3c0,0,1.3,4.3,2.3,6.1C11.3,152.2,11.4,140.3,17.9,138z"/>
					<path class="st8" d="M12,132.4c0,0,7.2-4.7,2.5-8.3c-4.8-3.6-9.4,1.5-10.4,2.9c-1.6,2.2-3.2,6.9,3.8,9L12,132.4z"/>
				</g>
			</g>
		</g>
		<ellipse class="st6" cx="216.3" cy="132.7" rx="5.4" ry="5.6"/>
		<ellipse class="st6" cx="216.3" cy="150.8" rx="5.4" ry="5.6"/>
		<path class="st6" d="M153.3,95.1h51.3c1,0,1.9-0.8,1.9-1.9l0,0c0-1-0.8-1.9-1.9-1.9h-51.3c-1,0-1.9,0.8-1.9,1.9l0,0
			C151.4,94.3,152.3,95.1,153.3,95.1z"/>
		<path class="st6" d="M128.2,101h76.4c1,0,1.9-0.8,1.9-1.9l0,0c0-1-0.8-1.9-1.9-1.9h-76.4c-1,0-1.9,0.8-1.9,1.9l0,0
			C126.3,100.1,127.1,101,128.2,101z"/>
		<path class="st6" d="M153.3,113.8h51.3c1,0,1.9-0.8,1.9-1.9l0,0c0-1-0.8-1.9-1.9-1.9h-51.3c-1,0-1.9,0.8-1.9,1.9l0,0
			C151.4,112.9,152.3,113.8,153.3,113.8z"/>
		<path class="st6" d="M128.2,119.6h76.4c1,0,1.9-0.8,1.9-1.9l0,0c0-1-0.8-1.9-1.9-1.9h-76.4c-1,0-1.9,0.8-1.9,1.9l0,0
			C126.3,118.8,127.1,119.6,128.2,119.6z"/>
		<path class="st6" d="M153.3,132.4h51.3c1,0,1.9-0.8,1.9-1.9l0,0c0-1-0.8-1.9-1.9-1.9h-51.3c-1,0-1.9,0.8-1.9,1.9l0,0
			C151.4,131.6,152.3,132.4,153.3,132.4z"/>
		<path class="st6" d="M128.2,138.3h76.4c1,0,1.9-0.8,1.9-1.9l0,0c0-1-0.8-1.9-1.9-1.9h-76.4c-1,0-1.9,0.8-1.9,1.9l0,0
			C126.3,137.4,127.1,138.3,128.2,138.3z"/>
		<path class="st6" d="M153.3,151.1h51.3c1,0,1.9-0.8,1.9-1.9l0,0c0-1-0.8-1.9-1.9-1.9h-51.3c-1,0-1.9,0.8-1.9,1.9l0,0
			C151.4,150.2,152.3,151.1,153.3,151.1z"/>
		<path class="st6" d="M128.2,156.9h76.4c1,0,1.9-0.8,1.9-1.9l0,0c0-1-0.8-1.9-1.9-1.9h-76.4c-1,0-1.9,0.8-1.9,1.9l0,0
			C126.3,156.1,127.1,156.9,128.2,156.9z"/>
		<g>
			<g>
				<g>
					<defs>
						<ellipse id="SVGID_7_" cx="111" cy="137.5" rx="37.2" ry="38.8"/>
					</defs>
					<clipPath id="SVGID_8_">
						<use xlink:href="#SVGID_7_"  style="overflow:visible;"/>
					</clipPath>
					
						<linearGradient id="SVGID_9_" gradientUnits="userSpaceOnUse" x1="2146.6987" y1="133.2" x2="2237.6987" y2="133.2" gradientTransform="matrix(-1 0 0 -1 2333.1987 264)">
						<stop  offset="6.284050e-02" style="stop-color:#D5EDFF"/>
						<stop  offset="0.8991" style="stop-color:#FFFFFF"/>
					</linearGradient>
					<polygon class="st26" points="95.5,193.4 186.5,193.4 186.5,68.2 95.5,68.2 					"/>
				</g>
				<g>
					<defs>
						<ellipse id="SVGID_10_" cx="111" cy="137.5" rx="37.2" ry="38.8"/>
					</defs>
					<clipPath id="SVGID_11_">
						<use xlink:href="#SVGID_10_"  style="overflow:visible;"/>
					</clipPath>
					<path class="st27" d="M115.5,130.9h33.3c4.3,0,7.8-3.7,7.8-8.2l0,0c0-4.5-3.5-8.2-7.8-8.2h-33.3c-4.3,0-7.8,3.7-7.8,8.2l0,0
						C107.6,127.2,111.2,130.9,115.5,130.9z"/>
				</g>
				<g>
					<defs>
						<ellipse id="SVGID_12_" cx="111" cy="137.5" rx="37.2" ry="38.8"/>
					</defs>
					<clipPath id="SVGID_13_">
						<use xlink:href="#SVGID_12_"  style="overflow:visible;"/>
					</clipPath>
					<path class="st28" d="M130.9,163.3h32.6c4.5,0,8.2-3.7,8.2-8.2l0,0c0-4.5-3.7-8.2-8.2-8.2h-32.6c-4.5,0-8.2,3.7-8.2,8.2l0,0
						C122.8,159.7,126.4,163.3,130.9,163.3z"/>
				</g>
			</g>
			<g class="st29">
				<path class="st30" d="M73.8,138c0-1.7,0.1-3.5,0.3-5.1l40.4-32.9c6.8,0.8,13.1,3.5,18.2,7.7l-56,45.6
					C74.8,148.6,73.8,143.4,73.8,138z"/>
			</g>
			<g>
				<g>
					<polygon class="st31" points="26.3,172.5 36.3,192.1 31.3,194.9 21.3,175.3 					"/>
					<path class="st32" d="M72.6,151.7l-3.5,2l1.3,2.6L43.8,171l3.4,6.7L73.8,163l1.3,2.6l3.5-2c11.7,16,33.1,21.3,50.7,11.5
						c19.6-10.9,27-36.2,16.6-56.6s-34.7-28.1-54.3-17.3C74.1,111.1,66.4,132.6,72.6,151.7z M94.4,106.7
						c16.7-9.3,37.5-2.7,46.4,14.8c8.9,17.4,2.6,39.1-14.2,48.4c-16.7,9.3-37.5,2.7-46.4-14.8C71.4,137.7,77.7,116,94.4,106.7z"/>
					<g>
						<polygon class="st32" points="30.8,182.6 35.8,192.4 71.1,172.8 66,163 						"/>
						<polygon class="st18" points="25.8,172.7 30.8,182.6 66,163 61,153.2 						"/>
					</g>
				</g>
			</g>
		</g>
	</g>
</g>
</svg>
