<?xml version="1.0" encoding="utf-8"?>
<!-- Generator: Adobe Illustrator 21.0.2, SVG Export Plug-In . SVG Version: 6.00 Build 0)  -->
<svg version="1.1" xmlns="http://www.w3.org/2000/svg" xmlns:xlink="http://www.w3.org/1999/xlink" x="0px" y="0px"
	 viewBox="0 0 246 257" style="enable-background:new 0 0 246 257;" xml:space="preserve">
<style type="text/css">
	.st0{fill:#4BAAFC;}
	.st1{fill:url(#SVGID_1_);}
	.st2{fill:#B9DDFF;}
	.st3{fill:#7AB0F6;}
	.st4{fill:#F3AC1F;}
	.st5{clip-path:url(#SVGID_3_);}
	.st6{fill:#0F3872;}
	.st7{fill:#0062C7;}
	.st8{fill:#FFFFFF;}
	.st9{clip-path:url(#SVGID_5_);}
	.st10{fill:#007EE3;}
	.st11{clip-path:url(#SVGID_7_);}
	.st12{fill:#FFD4B3;}
	.st13{fill:#86B8FF;}
	.st14{fill:#2E3280;}
	.st15{fill:#9046FF;}
	.st16{fill:#91CEFF;}
	.st17{fill:#F9C4C9;}
	.st18{clip-path:url(#SVGID_9_);fill:url(#SVGID_10_);}
	.st19{clip-path:url(#SVGID_9_);fill:#B9DDFF;}
	.st20{clip-path:url(#SVGID_9_);}
	.st21{fill:url(#SVGID_11_);}
	.st22{clip-path:url(#SVGID_13_);}
	.st23{clip-path:url(#SVGID_15_);}
	.st24{clip-path:url(#SVGID_17_);}
	.st25{opacity:0.13;}
	.st26{fill:#F3901F;}
	.st27{fill:#F3CC1F;}
</style>
<g id="Layer_1">
</g>
<g id="Layer_2">
	<g>
		<g>
			<g>
				<path class="st0" d="M26.7,189.1h90.4h13.3c0,7.2-5.9,13-13.2,13h-0.1H13.5C20.8,202.2,26.7,196.3,26.7,189.1z"/>
				
					<linearGradient id="SVGID_1_" gradientUnits="userSpaceOnUse" x1="-1072.5902" y1="193.2915" x2="-1072.5902" y2="41.4651" gradientTransform="matrix(-1 0 0 1 -1013.84 0)">
					<stop  offset="6.284050e-02" style="stop-color:#D5EDFF"/>
					<stop  offset="0.8991" style="stop-color:#FFFFFF"/>
				</linearGradient>
				<path class="st1" d="M117.1,0.3v188.8H26.7c0,7.2-5.9,13-13.2,13h0c-7.2,0-13.2-5.9-13.2-13V69.5V0.3L117.1,0.3z"/>
			</g>
			<path class="st2" d="M27,108.1h40.1c0.8,0,1.4-0.6,1.4-1.4l0,0c0-0.8-0.6-1.4-1.4-1.4H27c-0.8,0-1.4,0.6-1.4,1.4l0,0
				C25.6,107.5,26.2,108.1,27,108.1z"/>
			<path class="st3" d="M19,101.9h47.9c0.9,0,1.7-0.7,1.7-1.6l0,0c0-0.9-0.7-1.6-1.7-1.6H19c-0.9,0-1.7,0.7-1.7,1.6l0,0
				C17.4,101.2,18.1,101.9,19,101.9z"/>
			<path class="st2" d="M27,145.6h40.1c0.8,0,1.4-0.6,1.4-1.4l0,0c0-0.8-0.6-1.4-1.4-1.4H27c-0.8,0-1.4,0.6-1.4,1.4l0,0
				C25.6,145,26.2,145.6,27,145.6z"/>
			<path class="st3" d="M19,139.4h47.9c0.9,0,1.7-0.7,1.7-1.6l0,0c0-0.9-0.7-1.6-1.7-1.6H19c-0.9,0-1.7,0.7-1.7,1.6l0,0
				C17.4,138.7,18.1,139.4,19,139.4z"/>
			<path class="st2" d="M27,159.8h40.1c0.8,0,1.4-0.6,1.4-1.4l0,0c0-0.8-0.6-1.4-1.4-1.4H27c-0.8,0-1.4,0.6-1.4,1.4l0,0
				C25.6,159.2,26.2,159.8,27,159.8z"/>
			<path class="st3" d="M19,153.6h47.9c0.9,0,1.7-0.7,1.7-1.6l0,0c0-0.9-0.7-1.6-1.7-1.6H19c-0.9,0-1.7,0.7-1.7,1.6l0,0
				C17.4,152.9,18.1,153.6,19,153.6z"/>
			<path class="st2" d="M13.9,59.1h53.5c0.9,0,1.7-0.7,1.7-1.6l0,0c0-0.9-0.7-1.6-1.7-1.6H13.9c-0.9,0-1.7,0.7-1.7,1.6l0,0
				C12.3,58.4,13,59.1,13.9,59.1z"/>
			<path class="st2" d="M10.4,30.2h93.8c1.2,0,2.3-1,2.3-2.2l0,0c0-1.2-1-2.2-2.3-2.2H10.4c-1.2,0-2.3,1-2.3,2.2l0,0
				C8.2,29.2,9.2,30.2,10.4,30.2z"/>
			<path class="st2" d="M10.1,21.4l58.8,0c0.9,0,1.7-0.7,1.7-1.7v-1.2c0-0.9-0.7-1.7-1.7-1.7H10.1c-0.9,0-1.7,0.7-1.7,1.7v1.2
				C8.4,20.6,9.1,21.4,10.1,21.4z"/>
			<path class="st0" d="M81.4,21.4h23.4c0.9,0,1.7-0.7,1.7-1.7v-1.2c0-0.9-0.7-1.7-1.7-1.7H81.4c-0.9,0-1.7,0.7-1.7,1.7v1.2
				C79.8,20.6,80.5,21.4,81.4,21.4z"/>
			<path class="st0" d="M32.8,52.8h34.6c0.9,0,1.7-0.7,1.7-1.6l0,0c0-0.9-0.7-1.6-1.7-1.6H32.8c-0.9,0-1.7,0.7-1.7,1.6l0,0
				C31.2,52,31.9,52.8,32.8,52.8z"/>
			<polygon class="st4" points="61.2,77.6 68.3,91.6 54.1,91.6 			"/>
			<polygon class="st3" points="52.4,81.2 57.7,91.6 47.1,91.6 			"/>
			<g>
				<g>
					<defs>
						<ellipse id="SVGID_2_" cx="90.9" cy="55.7" rx="15.4" ry="15.3"/>
					</defs>
					<use xlink:href="#SVGID_2_"  style="overflow:visible;fill:#B9DDFF;"/>
					<clipPath id="SVGID_3_">
						<use xlink:href="#SVGID_2_"  style="overflow:visible;"/>
					</clipPath>
					<g class="st5">
						<g>
							<polygon class="st6" points="91.2,143.7 84.8,146.2 84.8,147 96.7,147 96.7,145.6 93.3,143.6 							"/>
							<polygon class="st6" points="78.4,144.2 70.3,146.4 70.3,147.2 82.5,147.2 82.5,145.8 78.9,144.1 							"/>
							<polygon class="st6" points="91.2,143.7 84.8,146.2 84.8,147 96.7,147 96.7,145.6 93.3,143.6 							"/>
							<polygon class="st6" points="78.4,144.2 70.3,146.4 70.3,147.2 82.5,147.2 82.5,145.8 78.9,144.1 							"/>
							<path class="st6" d="M96.4,89c0,0,2.5,3.4,2.1,8.2c-0.8,10-4.8,26.2-4.1,31.4c1,7.8,2.3,17,2.3,17l0,0l-5.5-2
								c0,0-3.2-15.3-3.2-16.5s0.3-28.2-0.5-27.1c-0.8,1.1-4.3,22.1-4.3,22.1l-0.7,23.6l-4.1-1.6l-2.1-19.6L80.3,98l2-9.5L96.4,89z"
								/>
							<g>
								<path class="st7" d="M96.5,92c0,0-2.7,4.7-8.4,4.3c-5.8-0.4-6.2-6.2-6.2-6.2s-1.1-3.6-0.4-11.5c0.1-1-2-1.8-2-2.8
									c0.4-4.4,1-7.1,1.5-8.1c1-1.7-1-7.5,0.3-7.7c2.5-0.5,8.7-1.9,10.3-1.1c1.6,0.9,7.3,3.8,7.3,3.8L96.5,92z"/>
							</g>
							<path class="st7" d="M92.9,64.6c0.3-2.1,2.8-3,4.4-1.6c1.5,1.3,3,3.3,3.7,6.3c1.6,6.9,3.5,9.9,3.7,17
								c0.2,7.1-0.5,11.9-0.5,11.9s-0.5,3.6-2.2,3.8c-1.7,0.2-2.5-0.2-3-1.6c-0.3-0.9,0.1-2.4,0.1-2.6c0.3-2.2,1.8-13-1.3-22.1
								c-2-5.8-3.4-8.1-4.3-9C93,66.2,92.7,65.4,92.9,64.6L92.9,64.6z"/>
							<path class="st8" d="M106.1,98c0,0.1,0,0.1,0,0.1s-0.5,3.6-2.2,3.8c-1.7,0.2-2.5-0.2-3-1.6c-0.3-0.9,0.1-2.4,0.1-2.6
								c0-0.2,0.1-0.4,0.1-0.6c0.6-0.2,1.2-0.4,1.8-0.4C104.2,96.8,105.3,97.3,106.1,98z"/>
							<g>
								<path class="st8" d="M89.2,64.1L89.2,64.1c2,0,3.7-1.5,4-3.5l1-6.9h-9.8l0.8,6.8C85.4,62.6,87.1,64.1,89.2,64.1z"/>
								<path class="st8" d="M82.9,47.9c0,3.5,2.9,12.1,6.4,12.1c3.5,0,6.4-8.7,6.4-12.1c0-3.5-2.9-0.5-6.4-0.5L82.9,47.9z"/>
								<path class="st6" d="M95.1,54.8c0,0-0.9,5.1-3.8,5.1c-3,0-4-5.1-4-5.1H95.1z"/>
								<path class="st8" d="M83.9,46.9c0,3.5,2.9,12.1,6.4,12.1c3.5,0,6.4-8.7,6.4-12.1c0-3.5-2.9-0.5-6.4-0.5
									C86.7,46.5,83.9,43.5,83.9,46.9z"/>
								<path class="st6" d="M93.9,55.2L93.9,55.2c0.9,0,1.7-0.8,1.6-1.9l0.1-5.9l-1.7,0.5V55.2z"/>
								<path class="st8" d="M85,53.8c0,0-0.9,0.2-0.9-0.8c0-1,0-1.6-0.4-1.5c-0.4,0.2-0.3,2.6,0.6,3.2c0.9,0.6,0.8-0.1,1,0.8
									c0.1,0.9,0.5,0.1,0.5,0.1l0.6-1.5L85,53.8z"/>
								<path class="st8" d="M93.4,53.8c0,0,0.9,0.2,0.9-0.8c0-1,0-1.6,0.4-1.5c0.4,0.2,0.3,2.6-0.6,3.2c-0.9,0.6-0.8-0.1-1,0.8
									c-0.1,0.9-0.5,0.1-0.5,0.1l-0.6-1.5L93.4,53.8z"/>
							</g>
							<path class="st7" d="M84.8,60.1c-3.2-0.8-2,3.2-7,11c-5.7,8.8-5.3,7.8-8.2,5.8c-2.9-2-3.7-3.7-5.8-5.1
								c-2.1-1.4-6.2-0.6-3.4,4c2.8,4.6,7.5,7,7.5,7s5.5,4.6,8.6,0.7c5.1-6.2,8.7-12.8,8.7-12.8S87.4,60.8,84.8,60.1z"/>
							<path class="st8" d="M63.7,71.7c0.9,0.6,1.6,1.3,2.3,2c-0.9,1.8-2.6,3.1-4.7,3.5c-0.4-0.5-0.7-1-1-1.5
								C57.5,71.1,61.6,70.2,63.7,71.7z"/>
						</g>
						<path class="st3" d="M91.1,46.7c0,0,0.3,2,1.3,3.3s1.7,3.9,1.4,6.4c-0.3,2.5-3.7,7.5-2.3,10c1.4,2.5,3.1,3.3,5.8,2.9
							c2.7-0.4,2.4-2.4,4.7-2.4c0,0-1.8-3.2-2.2-9.6c-0.4-6.4,0.6-14.7-8.8-15.4c-9.4-0.7-9.1,13.1-9.1,13.1l-1.2,11.9
							c0,0,6.8-1.2,7-5.1c0.2-3.9-0.5-6-2.1-7.1c-1.5-1.1-1.4-3.2-0.6-3.3C85.7,51.3,89.5,51.6,91.1,46.7z"/>
					</g>
				</g>
			</g>
			<g>
				<g>
					<defs>
						<ellipse id="SVGID_4_" cx="90.9" cy="146" rx="15.4" ry="15.3"/>
					</defs>
					<use xlink:href="#SVGID_4_"  style="overflow:visible;fill:#B9DDFF;"/>
					<clipPath id="SVGID_5_">
						<use xlink:href="#SVGID_4_"  style="overflow:visible;"/>
					</clipPath>
					<g class="st9">
						<polygon class="st6" points="92.2,236.3 85.7,238.8 85.7,239.6 97.8,239.6 97.8,238.3 94.4,236.2 						"/>
						<polygon class="st6" points="79.2,236.8 71.1,239 71.1,239.8 83.4,239.8 83.4,238.4 79.8,236.7 						"/>
						<polygon class="st6" points="92.2,236.3 85.7,238.8 85.7,239.6 97.8,239.6 97.8,238.3 94.4,236.2 						"/>
						<polygon class="st6" points="79.2,236.8 71.1,239 71.1,239.8 83.4,239.8 83.4,238.4 79.8,236.7 						"/>
						<path class="st10" d="M97.8,189.9c0,0-3.3,23.3-2.3,31.2c1,7.9,2.3,17.2,2.3,17.2l0,0l-5.6-2c0,0-3.3-15.4-3.3-16.7
							c0-1.2-0.7-20.7-1.5-19.6s-3.4,14.5-3.4,14.5l-0.7,23.8l-4.2-1.6L77.1,217l2.3-29l2.4-7.5L97.8,189.9z"/>
						<g>
							<path class="st7" d="M99.8,190.9c0,0-4.9-2-10.7-2.4c-5.8-0.4-9.9,0-9.9,0s1.1-26,2.8-28.8c1-1.7-1-7.5,0.3-7.8
								c2.5-0.5,8.8-2,10.4-1.1c1.6,0.9,7.3,3.8,7.3,3.8L99.8,190.9z"/>
						</g>
						<path class="st7" d="M95.9,156.4c0.3-2.1,2.8-3,4.4-1.6c1.5,1.3,3,3.3,3.7,6.3c1.6,7,3.5,10,3.7,17.2
							c0.2,7.2-0.5,12.1-0.5,12.1s-0.5,3.6-2.2,3.8c-1.7,0.2-2.5-0.2-3-1.6c-0.3-1,0.1-2.5,0.1-2.6c0.4-2.2,1.8-13.1-1.3-22.3
							c-2-5.9-3.5-8.2-4.3-9.1C96,158,95.7,157.2,95.9,156.4L95.9,156.4z"/>
						<path class="st8" d="M107.3,190.2c0,0.1,0,0.1,0,0.1s-0.5,3.6-2.2,3.8c-1.7,0.2-2.5-0.2-3-1.6c-0.3-1,0.1-2.5,0.1-2.6
							c0-0.2,0.1-0.4,0.1-0.6c0.6-0.2,1.2-0.4,1.8-0.4C105.3,189,106.4,189.4,107.3,190.2z"/>
						<g>
							<path class="st8" d="M90.1,156L90.1,156c2,0,3.8-1.5,4.1-3.5l1-7h-9.9l0.8,6.9C86.3,154.4,88.1,156,90.1,156z"/>
							<ellipse class="st8" cx="90.2" cy="139.4" rx="6.4" ry="6.4"/>
							<path class="st8" d="M83.8,139.6c0,3.5,2.9,12.3,6.4,12.3c3.6,0,6.4-8.7,6.4-12.3c0-3.5-2.9-0.5-6.4-0.5
								C86.7,139.1,83.8,136.1,83.8,139.6z"/>
							<path class="st6" d="M94.2,147.9c0,0-0.9,5.2-3.9,5.2c-3,0-4-5.2-4-5.2H94.2z"/>
							<path class="st8" d="M83.8,139.6c0,3.5,2.9,12.3,6.4,12.3c3.6,0,6.4-8.7,6.4-12.3c0-3.5-2.9-0.5-6.4-0.5
								C86.7,139.1,83.8,136.1,83.8,139.6z"/>
							<path class="st6" d="M83.8,139.5C83.8,139.5,83.8,139.4,83.8,139.5c0-3.6,2.9-6.4,6.4-6.4s6.4,2.9,6.4,6.4c0,0,0,0,0,0.1
								c0,0,0,0.1,0,0.1c0,0.6-0.1,1.3-0.2,2.1c-0.9,0-2-0.8-2.6-2.2c-0.2-0.4-0.3-0.8-0.3-1.2c-1,0.3-2.3,0.5-3.6,0.5
								c-1.1,0-2.2-0.1-3.1-0.3c-0.1,0.3-0.2,0.6-0.3,1c-0.6,1.3-1.6,2.2-2.5,2.2c-0.1-0.8-0.2-1.5-0.2-2
								C83.8,139.6,83.8,139.5,83.8,139.5z"/>
							<path class="st6" d="M94.9,146.9L94.9,146.9c0.9,0,1.7-0.9,1.6-1.9l0.1-5.9l-1.7,0.5V146.9z"/>
							<path class="st6" d="M85.5,146.9L85.5,146.9c-0.9,0-1.7-0.9-1.6-1.9l-0.1-5.9l1.7,0.5V146.9z"/>
							<path class="st10" d="M83.8,139.4l0-0.3l0,0c0.2-3.4,3-6,6.4-6s6.2,2.7,6.4,6l0,0l0,0.3c0,0,0,0,0,0.1c0,0,0,0,0,0.1
								c0,0,0,0.1,0,0.1c0,0.1,0,0.3,0,0.4l-0.1,5c0,1-0.7,1.9-1.6,1.9V141c-0.4-0.4-0.8-0.9-1.1-1.5c-0.2-0.4-0.3-0.8-0.3-1.2
								c-1,0.3-2.3,0.5-3.6,0.5c-1.1,0-2.2-0.1-3.1-0.3c-0.1,0.3-0.2,0.6-0.3,1c-0.2,0.6-0.6,1.1-1,1.5v6c-0.9,0-1.7-0.9-1.6-1.9
								l-0.1-5c0-0.2,0-0.3,0-0.4c0,0,0-0.1,0-0.1C83.8,139.5,83.8,139.4,83.8,139.4C83.8,139.4,83.8,139.4,83.8,139.4z"/>
							<path class="st8" d="M86,145.5c0,0-0.9,0.2-0.9-0.8c0-1,0-1.6-0.5-1.5c-0.4,0.2-0.3,2.6,0.6,3.2c0.9,0.6,0.8-0.1,1,0.8
								c0.1,0.9,0.5,0.1,0.5,0.1l0.6-1.5L86,145.5z"/>
							<path class="st8" d="M94.5,145.5c0,0,0.9,0.2,0.9-0.8c0-1,0-1.6,0.5-1.5c0.4,0.2,0.3,2.6-0.6,3.2c-0.9,0.6-0.8-0.1-1,0.8
								s-0.5,0.1-0.5,0.1l-0.6-1.5L94.5,145.5z"/>
						</g>
						<path class="st7" d="M82.5,152c-3.2-0.8-2,3.2-7.1,11.1c-5.8,8.9-5.3,7.9-8.2,5.8c-2.9-2-3.7-3.7-5.8-5.2
							c-2.1-1.4-6.2-0.6-3.4,4.1c2.8,4.7,7.5,7.1,7.5,7.1s5.5,4.6,8.7,0.7c5.1-6.3,8.8-12.9,8.8-12.9S85.1,152.6,82.5,152z"/>
						<path class="st8" d="M61.2,163.6c0.9,0.6,1.6,1.3,2.3,2c-1,1.8-2.7,3.1-4.7,3.6c-0.4-0.5-0.7-1-1-1.5
							C55,163,59.1,162.2,61.2,163.6z"/>
					</g>
				</g>
			</g>
			<g>
				<g>
					<defs>
						<ellipse id="SVGID_6_" cx="90.9" cy="100.1" rx="15.4" ry="15.3"/>
					</defs>
					<use xlink:href="#SVGID_6_"  style="overflow:visible;fill:#B9DDFF;"/>
					<clipPath id="SVGID_7_">
						<use xlink:href="#SVGID_6_"  style="overflow:visible;"/>
					</clipPath>
					<g class="st11">
						<polygon class="st6" points="90.1,188.7 80.6,192.9 80.6,193.8 93.2,193.8 93.2,192.1 						"/>
						<polygon class="st6" points="106.9,185.1 102.2,194.1 102.7,194.8 112.7,186.9 111.6,185.6 						"/>
						<path class="st2" d="M86.2,138.1c0,0-3.1,21.2-2.7,25.9c0.4,4.7,4.8,24.1,5,25.4l4,2.7h0.7c0,0-2-19.5-1.8-23.3
							c0.2-3.8,1.8-15.2,1.8-15.2s0.6,9.9,5.1,19.8c4.5,10,7.5,13.9,7.5,13.9l4.1-0.8l1.7-0.8c0,0-8.7-14.3-8.6-19.1
							c0.1-4.8-0.5-12.2-0.5-12.2l-2.7-16l-12.7-1.3L86.2,138.1z"/>
						<path class="st3" d="M84.1,122.1c0,0-10.5-17.1-11.2-30c-0.7-12.9-1-17,1.2-17.9c2.1-1,3.6,1.8,3.1,7.1
							c-0.5,5.3,4.1,24.9,7,27.8c2.9,2.9,5.8,2.2,5.8,2.2l1.6,8.8L84.1,122.1z"/>
						<path class="st8" d="M74.8,79.7c1,0,1.8-0.4,2.4-1.1c-0.1-3.6-1.4-5.4-3.2-4.6c-1.1,0.5-1.6,1.8-1.7,4.6
							C73,79.3,73.9,79.7,74.8,79.7z"/>
						<path class="st3" d="M84.1,109c0,0-2.7,4.6-2.2,13c0.1,1.3,1.8,2.2,1.9,3.5c0.9,7.4,1.5,15.2,1.5,15.2l15.4,0.4
							c0,0-1.7-17.2-1.2-24.1c0.4-6.8-7.6-7.1-7.6-7.1L84.1,109z"/>
						<g>
							<path class="st8" d="M89.5,112.2L89.5,112.2c1.7,0,3.3-1.4,3.6-3.2l0.1-5.1l-7.7-1.1l2.1,6.3C87.8,111,87.8,112.2,89.5,112.2
								z"/>
							<path class="st6" d="M92.3,103.2l-5.2,4.4l0.6,1.7c0,0,0.5,0.5,2.9-2c1.9-2,1.7-3,1.7-3V103.2L92.3,103.2z"/>
							<path class="st6" d="M83.8,94.8c0,0-1.1,2.9-0.7,4.2c0.3,1.3,0.3,1.3,0.3,1.3s0.9-3.9,0.9-4S83.8,94.8,83.8,94.8z"/>
							<ellipse class="st8" cx="89.4" cy="98.6" rx="6.2" ry="6.1"/>
							<path class="st8" d="M83.2,98.7c0,2.5,1.3,8.6,3.5,8.8c3.4,0.3,11-5,9.8-7.8c-1-2.3-6.5-3.7-8.8-3.7
								C85.5,95.9,83.2,96.2,83.2,98.7z"/>
							<path class="st6" d="M83.7,95.2c0,1.4,1,1.9,3.4,1.9S93,96,93,94.6s-1.9-2.5-4.3-2.5C86.3,92.2,83.7,93.9,83.7,95.2z"/>
							<ellipse class="st8" cx="93.8" cy="99.7" rx="0.9" ry="1.7"/>
						</g>
						<path class="st3" d="M108.5,150.7c0,0-2.5-0.4-2.8-3.6c-0.3-3.3-1-14-2.1-17.9c-1.1-3.9-5.4-13-9.1-13.9
							c-3.7-0.9-4.1-2.3-4.1-2.3l3.3-2.9l4,0.9c0,0,2.9,0.8,7,7c4,6.2,6,23.1,6.1,26.4C110.9,147.7,111.8,150,108.5,150.7z"/>
						<path class="st8" d="M110.9,146c0.2,2.5,0.4,4.2-2.4,4.8c0,0-2.5-0.4-2.8-3.6c0-0.1,0-0.3,0-0.4c0.7-0.8,1.5-1.3,2.6-1.4
							C109.2,145.2,110.1,145.5,110.9,146z"/>
						<path class="st6" d="M90.3,96.2l-1.3,3.2L84,99.5c0,0-1.1,8.9,5.3,8.1c0,0-1.1,1.3-2.9,1.3c-1.8,0.1-4.8,0-4.8,0v-9.4h-0.7
							c0,0-1.7-7.2,3.7-7.8c5.4-0.5,9,2.1,9,2.1l6.3,4.1v11.6h-7.3v-6.4c0,0,2.9-0.1,2.7-2.5c-0.2-2.4-2.8-1.1-2.8-1.1h-2
							C90.5,99.6,90.4,96.2,90.3,96.2z"/>
						<path class="st7" d="M84.4,89.3c0,0,3.9-3.2,5.8-3.2c1.9,0,8.3,4.3,8.8,5.3c0.5,1,0.7,4.6,0.7,4.6s1.5,1.6,1.6,3
							c0.1,1.3-0.6,2.6-1.1,2.6c0,0,0.1-3-4.6-5.7c-4.7-2.8-9.8-4.4-13.4-3c0,0-2.1-1.7,0.1-2.9C83.4,89.3,84.4,89.3,84.4,89.3z"/>
					</g>
				</g>
			</g>
		</g>
		<path class="st12" d="M169.3,120.5c-1.9,3.5-5.3,6.1-9.3,7c-0.7-0.9-1.4-1.9-2.1-3c-1.4-2.3-1.9-4.1-1.9-5.5
			c0.1-4.3,5.5-4.7,8.6-2.5c0.9,0.6,1.6,1.2,2.3,1.8C167.9,119,168.6,119.7,169.3,120.5z"/>
		<g>
			<path class="st12" d="M205,139c0,0-5.1,23.4,0.6,29c5.6,5.6,6.4-31.2,6.4-31.2L205,139z"/>
			<path class="st13" d="M211.8,139.4l-8.5-0.4c0,0,2.5-20,9.5-20c7,0-1.6,21.8-1.6,21.8L211.8,139.4z"/>
			<g>
				<path class="st14" d="M223.6,247.9l-0.7,2.3c0,0-2.6,5.3-2,6.1c0.6,0.7,6.6,0.6,7.3-0.4c0.7-1-0.9-4.3-0.9-4.3l-0.6-4.8
					L223.6,247.9z"/>
				<path class="st14" d="M205.4,248.6l-1.6,3.2c0,0-10.8-1.3-11.2,0.7c-0.4,2-0.1,4.3,4.8,4c5-0.3,9.9-1.7,9.9-1.7v-6.1
					L205.4,248.6z"/>
				<path class="st15" d="M203.8,249.9c0.9,0,4.2,0.6,4.2,0.6s-4.6-28.5-3.3-33.6c1.3-5.1,10.6-43.4,10.6-43.4l0.6,21.1l6.1,53
					l0.1,1.3c0,0,5.5,0.3,5.7-0.1c0.1-0.4,3.5-24.4,3.2-30.9c-0.3-6.5,2.2-43.6,2.2-43.6s-26.3-0.7-26.5-0.2
					C206.4,174.7,203.8,249.9,203.8,249.9z"/>
				<path class="st15" d="M201.8,248.8c1.2,0.6,7.1,2.3,7.1,2.3l7.4-59.8l-0.2-16.5l-10.4-2.1L201.8,248.8z"/>
				<g>
					<path class="st12" d="M229,106.3l0.2-0.3l0.9-1l0,0c0.6-0.2,1.1-1.2,1.1-2.4c0-1.3-0.5-2.5-1.3-2.5c-0.7,0-1.4,1.1-1.4,2.4
						c0,0.4,0,0.8,0.1,1.2c-0.1,0.6-0.3,1.5-0.9,1.7c-0.1,0.1-0.3,0.1-0.4,0.2c-0.2-0.5-0.3-1.1-0.3-1.8c0-0.5-0.1-1.8-0.1-1.9
						c-0.3-1.3-1-2.6-2.8-3.6c-1.3,0.3-2.6,0.5-3.8,0.4c-2.7-0.1-4.2-0.6-4.6-1.8c-0.6,1.1-0.9,2.4-1,3.7c0,0,0,0,0,0.1
						c0,0,0,0.1,0,0.1c0,0.4,0,0.9,0,1.4c0.2,3.5,0.4,8.9,2.5,10.6c0.3,0.3,1.8,0.4,1.8,0.7c0.1,1.7-0.1,1.7-0.1,1.7
						c0.1,2.7-2.6,7.3-0.2,7.3l4.4-2.3c2.4,0.1,4.8-1.8,5.2-4.4l0.3-6.5l0,0l0-0.6L229,106.3z"/>
					<path class="st6" d="M232.4,104c-0.2,0.8-0.4,1.5-0.7,2.1c0,0-1.2,2.4-2,2.8c-0.2,0.1-0.5,0.1-0.7-0.1l0-2.5l0.2-0.3l0.9-1l0,0
						c0.6-0.2,1.1-1.2,1.1-2.4c0-1.3-0.5-2.5-1.3-2.5c-0.7,0-1.4,1.1-1.4,2.4c0,0.4,0,0.8,0.1,1.2c-0.1,0.6-0.3,1.5-0.9,1.7
						c-0.1,0.1-0.3,0.1-0.4,0.2c-0.2-0.5-0.3-1.1-0.3-1.8c0-0.5-0.1-1.8-0.1-1.9c-0.3-1.3-1-2.6-2.8-3.6c-1.3,0.3-2.7,0.6-3.9,0.6
						c-2.7-0.1-4.1-0.8-4.5-2c-0.6,1.1-0.9,2.4-1,3.7c0,0,0,0,0,0.1c0,0,0,0.1,0,0.1c0,0.4,0,0.9,0,1.4c-0.1-0.3-0.1-0.6-0.3-1.1
						c-0.4-1.9,1.2-5.9,1.2-5.9s0,0,0,0c0.7-1.8,4.2-4.1,7.2-4C223,91.2,235.7,90.2,232.4,104z"/>
				</g>
			</g>
			<path class="st16" d="M245.8,142.5l-8.1-0.6l-2.8,35.3l-31.3-0.4c0,0,3.6-55.5,9.1-57.8l6.3-3.2c0,0,3,7.1,9.6-0.4
				c0,0,13.4,4.8,13.9,8.3C243.3,127.1,245.8,142.5,245.8,142.5z"/>
			<path class="st17" d="M220.8,143.1c0,0-3.5-2.3-4.1-1.8c-0.6,0.5,4.1,3.1,4.1,3.1V143.1z"/>
			<path class="st6" d="M216.3,112.2c-0.3-1.6-1.1-5.3-1.1-5.3s0.8,0.1,0.8,0.9c0,0.8,0.1,2.1,0.9,2.1c0.7,0-0.4-2.6,1.1-2.6
				c1.4,0,4.7,0.2,4.7,0.2s1.1-0.1,1.2,1.2c0.1,1.3,1.1,1.4,1.1,1.4s1.2,0.3,1.2-2.1c0,0,0.6-2.1,1.2-2.4l-0.3,5.8
				c0,0-0.8,4.1-5.9,4.2C218.5,115.8,216.5,113.3,216.3,112.2z"/>
			<path class="st12" d="M216.9,150.7c-6-7.7-3.2-9.8,0-10.1c3.3-0.3,4.8,2.1,7.2,4.6c-0.4,3.1-3.1,5.5-6.4,5.5
				C217.3,150.8,217.1,150.7,216.9,150.7z"/>
			<path class="st12" d="M223,144.5l-2.2,5c3.3,1.1,19.1,10.4,23.7,4.8c1.5-1.9,0.2-11.9,0.2-11.9l-6.9-0.7c0,0,1.3,8.9-1.5,8.3
				C231.5,149,223,144.5,223,144.5"/>
		</g>
		<g>
			<g>
				<defs>
					<ellipse id="SVGID_8_" cx="122.8" cy="109.7" rx="47.1" ry="46.7"/>
				</defs>
				<clipPath id="SVGID_9_">
					<use xlink:href="#SVGID_8_"  style="overflow:visible;"/>
				</clipPath>
				
					<linearGradient id="SVGID_10_" gradientUnits="userSpaceOnUse" x1="-3108.2034" y1="101.662" x2="-2992.8862" y2="101.662" gradientTransform="matrix(1 0 0 1 3135.2739 0)">
					<stop  offset="6.284050e-02" style="stop-color:#D5EDFF"/>
					<stop  offset="0.8991" style="stop-color:#FFFFFF"/>
				</linearGradient>
				<rect x="27.1" y="26.4" class="st18" width="115.3" height="150.6"/>
				<path class="st19" d="M119.7,101.8H72.3c-4,0-7.3-3.3-7.3-7.3v-5.1c0-4,3.3-7.3,7.3-7.3h47.4c4,0,7.3,3.3,7.3,7.3v5.1
					C127,98.5,123.7,101.8,119.7,101.8z"/>
				<path class="st19" d="M97.9,140.8H55.8c-5.5,0-9.9-4.4-9.9-9.8l0,0c0-5.4,4.5-9.8,9.9-9.8h42.2c5.5,0,9.9,4.4,9.9,9.8l0,0
					C107.8,136.4,103.4,140.8,97.9,140.8z"/>
				<g class="st20">
					<g>
						<path class="st0" d="M42.5,244.6h131.8h19.4c0,10.5-8.6,19-19.2,19h-0.2h-151C33.9,263.6,42.5,255,42.5,244.6z"/>
						
							<linearGradient id="SVGID_11_" gradientUnits="userSpaceOnUse" x1="-1103.0579" y1="250.6269" x2="-1103.0579" y2="29.3348" gradientTransform="matrix(-1 0 0 1 -1013.84 0)">
							<stop  offset="6.284050e-02" style="stop-color:#D5EDFF"/>
							<stop  offset="0.8991" style="stop-color:#FFFFFF"/>
						</linearGradient>
						<path class="st21" d="M174.3-30.7v275.2H42.5c0,10.5-8.6,19-19.2,19h0c-10.6,0-19.2-8.6-19.2-19V70.2V-30.7H174.3z"/>
					</g>
					<path class="st2" d="M43,126.5h58.5c1.2,0,2.1-0.9,2.1-2.1l0,0c0-1.1-0.9-2.1-2.1-2.1H43c-1.2,0-2.1,0.9-2.1,2.1l0,0
						C40.9,125.5,41.8,126.5,43,126.5z"/>
					<path class="st3" d="M31.3,117.4h69.8c1.3,0,2.4-1.1,2.4-2.4l0,0c0-1.3-1.1-2.4-2.4-2.4H31.3c-1.3,0-2.4,1.1-2.4,2.4l0,0
						C28.9,116.4,30,117.4,31.3,117.4z"/>
					<path class="st2" d="M43,181.2h58.5c1.2,0,2.1-0.9,2.1-2.1l0,0c0-1.1-0.9-2.1-2.1-2.1H43c-1.2,0-2.1,0.9-2.1,2.1l0,0
						C40.9,180.2,41.8,181.2,43,181.2z"/>
					<path class="st3" d="M31.3,172.1h69.8c1.3,0,2.4-1.1,2.4-2.4l0,0c0-1.3-1.1-2.4-2.4-2.4H31.3c-1.3,0-2.4,1.1-2.4,2.4l0,0
						C28.9,171,30,172.1,31.3,172.1z"/>
					<path class="st2" d="M43,201.9h58.5c1.2,0,2.1-0.9,2.1-2.1l0,0c0-1.1-0.9-2.1-2.1-2.1H43c-1.2,0-2.1,0.9-2.1,2.1l0,0
						C40.9,200.9,41.8,201.9,43,201.9z"/>
					<path class="st3" d="M31.3,192.8h69.8c1.3,0,2.4-1.1,2.4-2.4l0,0c0-1.3-1.1-2.4-2.4-2.4H31.3c-1.3,0-2.4,1.1-2.4,2.4l0,0
						C28.9,191.7,30,192.8,31.3,192.8z"/>
					<path class="st2" d="M23.9,55.1h78c1.3,0,2.4-1.1,2.4-2.4l0,0c0-1.3-1.1-2.4-2.4-2.4h-78c-1.3,0-2.4,1.1-2.4,2.4l0,0
						C21.5,54,22.5,55.1,23.9,55.1z"/>
					<path class="st2" d="M18.8,12.9h136.7c1.8,0,3.3-1.5,3.3-3.3l0,0c0-1.8-1.5-3.3-3.3-3.3H18.8c-1.8,0-3.3,1.5-3.3,3.3l0,0
						C15.5,11.5,17,12.9,18.8,12.9z"/>
					<path class="st2" d="M19.1,0L103,0c1.8,0,3.3-1.5,3.3-3.3l0,0c0-1.8-1.5-3.3-3.3-3.3H19.1c-1.8,0-3.3,1.5-3.3,3.3l0,0
						C15.8-1.4,17.3,0,19.1,0z"/>
					<path class="st0" d="M123.1,0h32.3c1.8,0,3.3-1.5,3.3-3.3l0,0c0-1.8-1.5-3.3-3.3-3.3h-32.3c-1.8,0-3.3,1.5-3.3,3.3l0,0
						C119.9-1.4,121.3,0,123.1,0z"/>
					<path class="st0" d="M50.8,45.8l51.7,0c1,0,1.8-0.8,1.8-1.8v-1.2c0-1-0.8-1.8-1.8-1.8H50.8c-1,0-1.8,0.8-1.8,1.8V44
						C49,45,49.8,45.8,50.8,45.8z"/>
					<polygon class="st0" points="92.8,82 103.2,102.4 82.4,102.4 					"/>
					<polygon class="st3" points="79.9,87.3 87.7,102.4 72.2,102.4 					"/>
					<g>
						<g>
							<defs>
								<ellipse id="SVGID_12_" cx="136" cy="50.1" rx="22.5" ry="22.2"/>
							</defs>
							<use xlink:href="#SVGID_12_"  style="overflow:visible;fill:#B9DDFF;"/>
							<clipPath id="SVGID_13_">
								<use xlink:href="#SVGID_12_"  style="overflow:visible;"/>
							</clipPath>
							<g class="st22">
								<g>
									<polygon class="st6" points="136.6,178.3 127.1,182 127.1,183.1 144.6,183.1 144.6,181.2 139.6,178.3 									"/>
									<polygon class="st6" points="117.8,179 106,182.2 106,183.4 123.8,183.4 123.8,181.4 118.5,178.9 									"/>
									<polygon class="st6" points="136.6,178.3 127.1,182 127.1,183.1 144.6,183.1 144.6,181.2 139.6,178.3 									"/>
									<polygon class="st6" points="117.8,179 106,182.2 106,183.4 123.8,183.4 123.8,181.4 118.5,178.9 									"/>
									<path class="st6" d="M144.1,98.6c0,0,3.7,4.9,3.1,11.9c-1.2,14.5-7,38.1-6,45.8c1.5,11.4,3.3,24.8,3.3,24.8l0,0l-8-2.9
										c0,0-4.7-22.3-4.7-24.1c0-1.8,0.4-41.1-0.8-39.5c-1.2,1.6-6.3,32.3-6.3,32.3l-1,34.4l-6-2.4l-3.1-28.5l6-38.8l2.9-13.9
										L144.1,98.6z"/>
									<g>
										<path class="st7" d="M144.3,103.1c0,0-3.9,6.8-12.3,6.3s-9.1-9.1-9.1-9.1s-1.5-5.2-0.6-16.7c0.1-1.4-3-2.7-2.9-4
											c0.6-6.3,1.4-10.4,2.3-11.8c1.5-2.5-1.4-10.9,0.5-11.3c3.7-0.8,12.7-2.8,15-1.6c2.3,1.3,10.6,5.5,10.6,5.5L144.3,103.1z"
											/>
									</g>
									<path class="st7" d="M138.9,63c0.5-3,4.1-4.4,6.4-2.3c2.1,1.9,4.3,4.8,5.3,9.1c2.3,10.1,5.1,14.5,5.4,24.8
										c0.3,10.3-0.7,17.4-0.7,17.4s-0.7,5.2-3.2,5.5c-2.5,0.3-3.6-0.2-4.3-2.3c-0.5-1.4,0.2-3.5,0.2-3.8
										c0.5-3.2,2.6-18.9-1.9-32.2c-2.9-8.5-5-11.8-6.2-13.1C139.1,65.3,138.8,64.1,138.9,63L138.9,63z"/>
									<path class="st8" d="M158.3,111.8c0,0.1,0,0.2,0,0.2s-0.7,5.2-3.2,5.5c-2.5,0.3-3.6-0.2-4.3-2.3c-0.5-1.4,0.2-3.5,0.2-3.8
										c0-0.2,0.1-0.6,0.1-0.9c0.8-0.3,1.7-0.5,2.6-0.5C155.4,110,157,110.7,158.3,111.8z"/>
									<g>
										<path class="st8" d="M133.5,62.4L133.5,62.4c3,0,5.5-2.2,5.9-5.1l1.4-10.1h-14.2l1.1,10C128,60.1,130.5,62.4,133.5,62.4z"
											/>
										<path class="st8" d="M124.4,38.7c0,5.1,4.2,17.7,9.3,17.7s9.3-12.6,9.3-17.7s-4.2-0.7-9.3-0.7L124.4,38.7z"/>
										<path class="st6" d="M142.3,48.7c0,0-1.3,7.5-5.6,7.4c-4.3,0-5.8-7.4-5.8-7.4H142.3z"/>
										<path class="st8" d="M125.8,37.3c0,5.1,4.2,17.7,9.3,17.7s9.3-12.6,9.3-17.7s-4.2-0.7-9.3-0.7S125.8,32.2,125.8,37.3z"/>
										<path class="st6" d="M140.5,49.3L140.5,49.3c1.3,0,2.4-1.2,2.4-2.7L143,38l-2.5,0.7V49.3z"/>
										<path class="st8" d="M127.6,47.3c0,0-1.3,0.3-1.4-1.1c-0.1-1.4,0-2.4-0.7-2.1c-0.6,0.2-0.4,3.7,0.9,4.6
											c1.3,0.9,1.2-0.2,1.4,1.2c0.2,1.3,0.7,0.2,0.7,0.2l0.9-2.1L127.6,47.3z"/>
										<path class="st8" d="M139.8,47.3c0,0,1.3,0.3,1.4-1.1c0.1-1.4,0-2.4,0.7-2.1c0.6,0.2,0.4,3.7-0.9,4.6s-1.2-0.2-1.4,1.2
											c-0.2,1.3-0.7,0.2-0.7,0.2l-0.9-2.1L139.8,47.3z"/>
									</g>
									<path class="st7" d="M127.2,56.6c-4.6-1.2-2.9,4.7-10.2,16c-8.3,12.9-7.7,11.3-11.9,8.4c-4.2-2.9-5.4-5.4-8.4-7.5
										c-3.1-2.1-9-0.9-4.9,5.9c4.1,6.7,10.9,10.2,10.9,10.2s8,6.7,12.6,1.1c7.4-9.1,12.7-18.7,12.7-18.7S131,57.5,127.2,56.6z"/>
									<path class="st8" d="M96.5,73.4c1.3,0.9,2.3,1.9,3.4,2.9c-1.4,2.6-3.8,4.5-6.8,5.1c-0.5-0.7-1-1.4-1.5-2.2
										C87.5,72.5,93.4,71.3,96.5,73.4z"/>
								</g>
								<path class="st3" d="M136.4,36.9c0,0,0.5,3,1.9,4.8c1.4,1.9,2.4,5.7,2,9.3c-0.4,3.6-5.4,11-3.4,14.6c2,3.6,4.5,4.8,8.4,4.2
									c3.9-0.6,3.5-3.4,6.9-3.5c0,0-2.6-4.6-3.2-14c-0.6-9.4,0.9-21.4-12.8-22.5c-13.7-1-13.3,19-13.3,19l-1.8,17.4
									c0,0,9.8-1.8,10.2-7.5c0.3-5.7-0.8-8.7-3-10.4c-2.2-1.6-2-4.7-0.9-4.8C128.6,43.6,134.1,44.2,136.4,36.9z"/>
							</g>
						</g>
					</g>
					<g>
						<g>
							<defs>
								<ellipse id="SVGID_14_" cx="136" cy="181.6" rx="22.5" ry="22.2"/>
							</defs>
							<use xlink:href="#SVGID_14_"  style="overflow:visible;fill:#B9DDFF;"/>
							<clipPath id="SVGID_15_">
								<use xlink:href="#SVGID_14_"  style="overflow:visible;"/>
							</clipPath>
							<g class="st23">
								<polygon class="st6" points="138,313.3 128.5,317 128.5,318.2 146.1,318.2 146.1,316.2 141.1,313.2 								"/>
								<polygon class="st6" points="119.1,314 107.2,317.3 107.2,318.4 125.1,318.4 125.1,316.4 119.8,313.9 								"/>
								<polygon class="st6" points="138,313.3 128.5,317 128.5,318.2 146.1,318.2 146.1,316.2 141.1,313.2 								"/>
								<polygon class="st6" points="119.1,314 107.2,317.3 107.2,318.4 125.1,318.4 125.1,316.4 119.8,313.9 								"/>
								<path class="st10" d="M146.1,245.7c0,0-4.9,33.9-3.4,45.4c1.5,11.5,3.4,25,3.4,25l0,0l-8.1-2.9c0,0-4.7-22.5-4.7-24.3
									c0-1.8-1-30.1-2.2-28.5c-1.2,1.6-5,21.2-5,21.2l-1,34.7l-6.1-2.4l-3.1-28.8l3.4-42.3l3.6-10.9L146.1,245.7z"/>
								<g>
									<path class="st7" d="M149,247.1c0,0-7.1-2.9-15.6-3.5c-8.5-0.6-14.4,0-14.4,0s1.5-37.9,4-42c1.5-2.5-1.4-11,0.5-11.4
										c3.7-0.8,12.8-2.9,15.1-1.6c2.3,1.3,10.7,5.6,10.7,5.6L149,247.1z"/>
								</g>
								<path class="st7" d="M143.3,196.9c0.5-3,4.1-4.4,6.5-2.4c2.2,1.9,4.4,4.8,5.4,9.2c2.3,10.2,5.1,14.6,5.4,25
									c0.3,10.4-0.7,17.6-0.7,17.6s-0.7,5.3-3.2,5.6c-2.5,0.3-3.7-0.2-4.4-2.3c-0.5-1.4,0.2-3.6,0.2-3.9
									c0.5-3.3,2.7-19.1-1.9-32.5c-2.9-8.6-5-11.9-6.3-13.2C143.5,199.2,143.1,198,143.3,196.9L143.3,196.9z"/>
								<path class="st8" d="M159.9,246.1c0,0.1,0,0.2,0,0.2s-0.7,5.3-3.2,5.6c-2.5,0.3-3.7-0.2-4.4-2.3c-0.5-1.4,0.2-3.6,0.2-3.9
									c0-0.2,0.1-0.6,0.1-0.9c0.8-0.3,1.7-0.5,2.6-0.5C157.1,244.3,158.7,245,159.9,246.1z"/>
								<g>
									<path class="st8" d="M135,196.3L135,196.3c3,0,5.5-2.2,5.9-5.1l1.4-10.2h-14.4L129,191C129.4,194,131.9,196.3,135,196.3z"
										/>
									<ellipse class="st8" cx="135.1" cy="172.1" rx="9.4" ry="9.3"/>
									<path class="st8" d="M125.7,172.4c0,5.1,4.2,17.9,9.4,17.9s9.4-12.7,9.4-17.9s-4.2-0.7-9.4-0.7S125.7,167.2,125.7,172.4z"
										/>
									<path class="st6" d="M140.9,184.5c0,0-1.3,7.6-5.7,7.5c-4.4,0-5.9-7.5-5.9-7.5H140.9z"/>
									<path class="st8" d="M125.7,172.4c0,5.1,4.2,17.9,9.4,17.9s9.4-12.7,9.4-17.9s-4.2-0.7-9.4-0.7S125.7,167.2,125.7,172.4z"
										/>
									<path class="st6" d="M125.7,172.2C125.7,172.2,125.7,172.1,125.7,172.2c0-5.2,4.2-9.4,9.4-9.4c5.2,0,9.4,4.2,9.4,9.3
										c0,0,0,0.1,0,0.1c0,0.1,0,0.1,0,0.2c0,0.8-0.1,1.9-0.3,3c-1.4,0-2.9-1.2-3.7-3.2c-0.2-0.6-0.4-1.1-0.5-1.7
										c-1.5,0.4-3.3,0.7-5.3,0.7c-1.6,0-3.2-0.2-4.5-0.5c-0.1,0.5-0.2,0.9-0.4,1.4c-0.8,1.9-2.3,3.2-3.7,3.2
										c-0.2-1.1-0.3-2.1-0.3-2.9C125.7,172.3,125.7,172.3,125.7,172.2z"/>
									<path class="st6" d="M142,183.1L142,183.1c1.3,0,2.4-1.2,2.4-2.8l0.1-8.7l-2.5,0.7V183.1z"/>
									<path class="st6" d="M128.2,183.1L128.2,183.1c-1.3,0-2.4-1.2-2.4-2.8l-0.1-8.7l2.5,0.7V183.1z"/>
									<path class="st10" d="M125.7,172l0-0.4l0,0c0.2-4.9,4.3-8.8,9.4-8.8c5,0,9.1,3.9,9.4,8.8l0,0l0,0.4c0,0,0,0.1,0,0.1
										c0,0,0,0.1,0,0.1c0,0.1,0,0.1,0,0.2c0,0.2,0,0.4,0,0.6l-0.1,7.3c0,1.5-1,2.8-2.4,2.8v-8.6c-0.6-0.6-1.2-1.3-1.5-2.2
										c-0.2-0.6-0.4-1.1-0.5-1.7c-1.5,0.4-3.3,0.7-5.3,0.7c-1.6,0-3.2-0.2-4.5-0.5c-0.1,0.5-0.2,0.9-0.4,1.4
										c-0.4,0.9-0.9,1.6-1.4,2.1v8.8c-1.3,0-2.4-1.2-2.4-2.8l-0.1-7.3c0-0.2,0-0.4,0-0.6c0-0.1,0-0.1,0-0.2c0,0,0-0.1,0-0.1
										C125.7,172.1,125.7,172,125.7,172z"/>
									<path class="st8" d="M128.9,181c0,0-1.3,0.3-1.4-1.1c-0.1-1.4,0-2.4-0.7-2.1c-0.6,0.2-0.4,3.8,0.9,4.6
										c1.3,0.9,1.2-0.2,1.4,1.2c0.2,1.3,0.7,0.2,0.7,0.2l0.9-2.1L128.9,181z"/>
									<path class="st8" d="M141.3,181c0,0,1.3,0.3,1.4-1.1c0.1-1.4,0-2.4,0.7-2.1c0.6,0.2,0.4,3.8-0.9,4.6
										c-1.3,0.9-1.2-0.2-1.4,1.2c-0.2,1.3-0.7,0.2-0.7,0.2l-0.9-2.1L141.3,181z"/>
								</g>
								<path class="st7" d="M123.9,190.4c-4.7-1.2-2.9,4.7-10.3,16.2c-8.4,13-7.8,11.4-12,8.5c-4.2-3-5.4-5.5-8.5-7.5
									c-3.1-2.1-9.1-0.9-5,5.9c4.1,6.8,11,10.3,11,10.3s8.1,6.7,12.7,1.1c7.5-9.2,12.8-18.9,12.8-18.9S127.7,191.4,123.9,190.4z"
									/>
								<path class="st8" d="M92.8,207.3c1.4,0.9,2.3,1.9,3.4,3c-1.4,2.6-3.9,4.5-6.9,5.2c-0.5-0.7-1-1.4-1.5-2.2
									C83.7,206.5,89.7,205.2,92.8,207.3z"/>
							</g>
						</g>
					</g>
					<g>
						<g>
							<defs>
								<ellipse id="SVGID_16_" cx="136" cy="114.8" rx="22.5" ry="22.2"/>
							</defs>
							<use xlink:href="#SVGID_16_"  style="overflow:visible;fill:#B9DDFF;"/>
							<clipPath id="SVGID_17_">
								<use xlink:href="#SVGID_16_"  style="overflow:visible;"/>
							</clipPath>
							<g class="st24">
								<polygon class="st6" points="134.9,243.9 121.1,250.1 121.1,251.4 139.5,251.4 139.5,248.9 								"/>
								<polygon class="st6" points="159.4,238.7 152.5,251.8 153.3,252.8 167.8,241.3 166.3,239.4 								"/>
								<path class="st2" d="M129.2,170.2c0,0-4.5,30.9-3.9,37.7s7,35.2,7.3,37l5.8,3.9h1.1c0,0-3-28.4-2.7-34
									c0.3-5.6,2.7-22.1,2.7-22.1s0.9,14.4,7.5,28.9c6.6,14.5,10.9,20.2,10.9,20.2l6-1.2l2.5-1.2c0,0-12.6-20.9-12.5-27.8
									c0.2-7-0.8-17.8-0.8-17.8l-3.9-23.3l-18.6-1.9L129.2,170.2z"/>
								<path class="st3" d="M126.2,146.8c0,0-15.3-24.9-16.4-43.7s-1.4-24.7,1.7-26.1c3.1-1.4,5.3,2.6,4.5,10.4
									c-0.8,7.7,5.9,36.3,10.1,40.5c4.2,4.2,8.4,3.2,8.4,3.2l2.3,12.9L126.2,146.8z"/>
								<path class="st8" d="M112.7,85.1c1.4,0,2.7-0.6,3.6-1.5c-0.2-5.3-2.1-7.8-4.7-6.7c-1.6,0.7-2.3,2.6-2.4,6.7
									C110,84.5,111.3,85.1,112.7,85.1z"/>
								<path class="st3" d="M126.2,127.7c0,0-3.9,6.7-3.2,19c0.1,1.9,2.6,3.2,2.8,5.1c1.3,10.8,2.1,22.1,2.1,22.1l22.5,0.5
									c0,0-2.4-25.1-1.8-35.1c0.7-10-11.1-10.4-11.1-10.4L126.2,127.7z"/>
								<g>
									<path class="st8" d="M134.1,132.4L134.1,132.4c2.5,0,4.8-2,5.2-4.6l0.2-7.4l-11.2-1.6l3.1,9.2
										C131.6,130.6,131.6,132.4,134.1,132.4z"/>
									<path class="st6" d="M138.1,119.3l-7.6,6.4l0.9,2.5c0,0,0.7,0.8,4.2-2.9c2.8-2.9,2.5-4.3,2.5-4.3v-1.8V119.3z"/>
									<path class="st6" d="M125.7,107.1c0,0-1.5,4.2-1,6.1c0.5,1.9,0.5,1.9,0.5,1.9s1.3-5.7,1.3-5.8
										C126.4,109.2,125.7,107.1,125.7,107.1z"/>
									<ellipse class="st8" cx="133.8" cy="112.6" rx="9" ry="8.9"/>
									<path class="st8" d="M124.8,112.7c0,3.6,1.9,12.5,5.2,12.8c4.9,0.5,16-7.3,14.3-11.4c-1.4-3.3-9.5-5.5-12.8-5.5
										C128.2,108.7,124.8,109.2,124.8,112.7z"/>
									<path class="st6" d="M125.5,107.7c0,2,1.5,2.8,5,2.8c3.5,0,8.6-1.7,8.6-3.7s-2.8-3.6-6.3-3.6S125.5,105.7,125.5,107.7z"/>
									<ellipse class="st8" cx="140.3" cy="114.2" rx="1.4" ry="2.5"/>
								</g>
								<path class="st3" d="M161.8,188.6c0,0-3.7-0.5-4.1-5.3c-0.4-4.8-1.4-20.4-3-26.1c-1.6-5.7-7.9-18.9-13.3-20.2
									c-5.3-1.3-5.9-3.3-5.9-3.3l4.8-4.3l5.9,1.3c0,0,4.2,1.2,10.1,10.2c5.9,9,8.7,33.7,8.8,38.5
									C165.2,184.2,166.6,187.6,161.8,188.6z"/>
								<path class="st8" d="M165.2,181.6c0.2,3.6,0.5,6.1-3.4,7c0,0-3.7-0.5-4.1-5.3c0-0.2,0-0.4,0-0.6c1-1.1,2.3-1.9,3.8-2
									C162.8,180.6,164.1,180.9,165.2,181.6z"/>
								<path class="st6" d="M135.3,109.1l-1.9,4.7L126,114c0,0-1.6,13,7.7,11.7c0,0-1.6,1.9-4.2,2c-2.7,0.1-7,0-7,0V114h-1.1
									c0,0-2.5-10.6,5.4-11.3c7.9-0.8,13.1,3,13.1,3l9.2,6v16.9h-10.6v-9.3c0,0,4.2-0.1,4-3.6c-0.3-3.5-4.1-1.6-4.1-1.6h-3
									C135.5,114.1,135.4,109.1,135.3,109.1z"/>
								<path class="st7" d="M126.6,99.1c0,0,5.6-4.7,8.4-4.7s12.1,6.3,12.8,7.7c0.8,1.5,1,6.7,1,6.7s2.2,2.3,2.3,4.3
									c0.1,2-0.9,3.8-1.6,3.8c0,0,0.1-4.3-6.7-8.3c-6.8-4-14.2-6.4-19.6-4.3c0,0-3-2.5,0.1-4.2C125.1,99.1,126.6,99.1,126.6,99.1z
									"/>
							</g>
						</g>
					</g>
				</g>
			</g>
			<g class="st25">
				<path class="st7" d="M169.9,110.4c0-2.1-0.1-4.2-0.4-6.2l-51.2-39.6c-8.6,0.9-16.6,4.2-23.1,9.2l70.9,54.8
					C168.5,123,169.9,116.9,169.9,110.4z"/>
			</g>
			<g>
				<g>
					<polygon class="st26" points="230,151.8 217.3,175.4 223.7,178.8 236.4,155.1 					"/>
					<path class="st27" d="M147.2,66.3C122.4,53.2,91.6,62.5,78.4,87c-13.2,24.5-3.8,55,21,68c22.3,11.7,49.4,5.4,64.3-13.9l4.5,2.4
						l1.7-3.2l33.7,17.7l4.4-8.1l-33.7-17.7l1.7-3.2l-4.5-2.4C179.3,103.9,169.5,78,147.2,66.3z M161.6,130.9
						c-11.3,21-37.6,28.9-58.8,17.8s-29.2-37.2-17.9-58.2c11.3-21,37.6-28.9,58.8-17.8C164.9,83.9,172.9,109.9,161.6,130.9z"/>
					<g>
						<polygon class="st27" points="224.3,163.9 218,175.7 173.3,152.2 179.7,140.4 						"/>
						<polygon class="st4" points="230.7,152.1 224.3,163.9 179.7,140.4 186,128.6 						"/>
					</g>
				</g>
			</g>
		</g>
	</g>
</g>
</svg>
