<svg width="347" height="100" viewBox="0 0 347 100" fill="none" xmlns="http://www.w3.org/2000/svg">
<rect width="347" height="100" rx="14" fill="#5192E2"/>
<path d="M136.941 42.0693L133.936 47H130.912L134.568 41.3486C133.842 41.0557 133.285 40.6045 132.898 39.9951C132.512 39.3799 132.318 38.6562 132.318 37.8242C132.318 36.6465 132.734 35.7412 133.566 35.1084C134.404 34.4697 135.605 34.1504 137.17 34.1504H141.354V47H138.629V42.0693H136.941ZM138.629 36.3828H137.284C136.581 36.3828 136.036 36.5088 135.649 36.7607C135.263 37.0127 135.069 37.4316 135.069 38.0176C135.069 38.5859 135.257 39.0342 135.632 39.3623C136.007 39.6904 136.581 39.8545 137.354 39.8545H138.629V36.3828ZM161.437 47H158.932V39.2568L158.791 39.8018C158.475 41.0381 158.19 41.9727 157.938 42.6055L156.198 47H154.291L152.524 42.5703C152.272 41.9258 152.003 41.0205 151.716 39.8545L151.549 39.2568V47H149.053V37.1738H152.744L154.432 41.3662C154.607 41.8174 154.769 42.3359 154.915 42.9219C155.067 43.5078 155.17 44.0088 155.223 44.4248C155.416 43.5459 155.565 42.916 155.671 42.5352C155.782 42.1484 155.902 41.7939 156.031 41.4717C156.16 41.1494 156.743 39.7168 157.78 37.1738H161.437V47ZM166.394 42.0693C166.394 43.042 166.552 43.7773 166.868 44.2754C167.19 44.7734 167.712 45.0225 168.433 45.0225C169.147 45.0225 169.66 44.7764 169.971 44.2842C170.287 43.7861 170.445 43.0479 170.445 42.0693C170.445 41.0967 170.287 40.3672 169.971 39.8809C169.654 39.3945 169.136 39.1514 168.415 39.1514C167.7 39.1514 167.185 39.3945 166.868 39.8809C166.552 40.3613 166.394 41.0908 166.394 42.0693ZM173.188 42.0693C173.188 43.6689 172.766 44.9199 171.922 45.8223C171.078 46.7246 169.903 47.1758 168.397 47.1758C167.454 47.1758 166.622 46.9707 165.901 46.5605C165.181 46.1445 164.627 45.5498 164.24 44.7764C163.854 44.0029 163.66 43.1006 163.66 42.0693C163.66 40.4639 164.079 39.2158 164.917 38.3252C165.755 37.4346 166.933 36.9893 168.45 36.9893C169.394 36.9893 170.226 37.1943 170.946 37.6045C171.667 38.0146 172.221 38.6035 172.607 39.3711C172.994 40.1387 173.188 41.0381 173.188 42.0693ZM182.188 37.1738V39.1865H178.083V47H175.402V37.1738H182.188ZM182.609 37.1738H185.545L187.399 42.7021C187.558 43.1826 187.666 43.751 187.725 44.4072H187.777C187.842 43.8037 187.968 43.2354 188.155 42.7021L189.975 37.1738H192.849L188.691 48.2568C188.311 49.2822 187.766 50.0498 187.057 50.5596C186.354 51.0693 185.53 51.3242 184.587 51.3242C184.124 51.3242 183.67 51.2744 183.225 51.1748V49.0479C183.547 49.124 183.898 49.1621 184.279 49.1621C184.754 49.1621 185.167 49.0156 185.519 48.7227C185.876 48.4355 186.154 47.999 186.354 47.4131L186.512 46.9297L182.609 37.1738ZM199.15 34.1504H203.149C204.972 34.1504 206.293 34.4111 207.113 34.9326C207.939 35.4482 208.353 36.2715 208.353 37.4023C208.353 38.1699 208.171 38.7998 207.808 39.292C207.45 39.7842 206.973 40.0801 206.375 40.1797V40.2676C207.189 40.4492 207.775 40.7891 208.133 41.2871C208.496 41.7852 208.678 42.4473 208.678 43.2734C208.678 44.4453 208.253 45.3594 207.403 46.0156C206.56 46.6719 205.411 47 203.958 47H199.15V34.1504ZM201.875 39.2393H203.457C204.195 39.2393 204.729 39.125 205.057 38.8965C205.391 38.668 205.558 38.29 205.558 37.7627C205.558 37.2705 205.376 36.9189 205.013 36.708C204.655 36.4912 204.087 36.3828 203.308 36.3828H201.875V39.2393ZM201.875 41.4014V44.75H203.65C204.4 44.75 204.954 44.6064 205.312 44.3193C205.669 44.0322 205.848 43.5928 205.848 43.001C205.848 41.9346 205.086 41.4014 203.562 41.4014H201.875ZM217.273 47L216.755 45.6641H216.685C216.233 46.2324 215.768 46.6279 215.287 46.8506C214.812 47.0674 214.191 47.1758 213.424 47.1758C212.48 47.1758 211.736 46.9062 211.191 46.3672C210.652 45.8281 210.383 45.0605 210.383 44.0645C210.383 43.0215 210.746 42.2539 211.473 41.7617C212.205 41.2637 213.307 40.9883 214.777 40.9355L216.482 40.8828V40.4521C216.482 39.4561 215.973 38.958 214.953 38.958C214.168 38.958 213.245 39.1953 212.185 39.6699L211.297 37.8594C212.428 37.2676 213.682 36.9717 215.059 36.9717C216.377 36.9717 217.388 37.2588 218.091 37.833C218.794 38.4072 219.146 39.2803 219.146 40.4521V47H217.273ZM216.482 42.4473L215.445 42.4824C214.666 42.5059 214.086 42.6465 213.705 42.9043C213.324 43.1621 213.134 43.5547 213.134 44.082C213.134 44.8379 213.567 45.2158 214.435 45.2158C215.056 45.2158 215.551 45.0371 215.92 44.6797C216.295 44.3223 216.482 43.8477 216.482 43.2559V42.4473ZM234.298 47H231.793V39.2568L231.652 39.8018C231.336 41.0381 231.052 41.9727 230.8 42.6055L229.06 47H227.152L225.386 42.5703C225.134 41.9258 224.864 41.0205 224.577 39.8545L224.41 39.2568V47H221.914V37.1738H225.605L227.293 41.3662C227.469 41.8174 227.63 42.3359 227.776 42.9219C227.929 43.5078 228.031 44.0088 228.084 44.4248C228.277 43.5459 228.427 42.916 228.532 42.5352C228.644 42.1484 228.764 41.7939 228.893 41.4717C229.021 41.1494 229.604 39.7168 230.642 37.1738H234.298V47ZM250.725 37.1738V47H248.035V39.1865H244.476V47H241.795V37.1738H250.725ZM255.673 42.0693C255.673 43.042 255.831 43.7773 256.147 44.2754C256.47 44.7734 256.991 45.0225 257.712 45.0225C258.427 45.0225 258.939 44.7764 259.25 44.2842C259.566 43.7861 259.725 43.0479 259.725 42.0693C259.725 41.0967 259.566 40.3672 259.25 39.8809C258.934 39.3945 258.415 39.1514 257.694 39.1514C256.979 39.1514 256.464 39.3945 256.147 39.8809C255.831 40.3613 255.673 41.0908 255.673 42.0693ZM262.467 42.0693C262.467 43.6689 262.045 44.9199 261.201 45.8223C260.357 46.7246 259.183 47.1758 257.677 47.1758C256.733 47.1758 255.901 46.9707 255.181 46.5605C254.46 46.1445 253.906 45.5498 253.52 44.7764C253.133 44.0029 252.939 43.1006 252.939 42.0693C252.939 40.4639 253.358 39.2158 254.196 38.3252C255.034 37.4346 256.212 36.9893 257.729 36.9893C258.673 36.9893 259.505 37.1943 260.226 37.6045C260.946 38.0146 261.5 38.6035 261.887 39.3711C262.273 40.1387 262.467 41.0381 262.467 42.0693ZM277.065 47H274.561V39.2568L274.42 39.8018C274.104 41.0381 273.819 41.9727 273.567 42.6055L271.827 47H269.92L268.153 42.5703C267.901 41.9258 267.632 41.0205 267.345 39.8545L267.178 39.2568V47H264.682V37.1738H268.373L270.061 41.3662C270.236 41.8174 270.397 42.3359 270.544 42.9219C270.696 43.5078 270.799 44.0088 270.852 44.4248C271.045 43.5459 271.194 42.916 271.3 42.5352C271.411 42.1484 271.531 41.7939 271.66 41.4717C271.789 41.1494 272.372 39.7168 273.409 37.1738H277.065V47ZM282.022 42.0693C282.022 43.042 282.181 43.7773 282.497 44.2754C282.819 44.7734 283.341 45.0225 284.062 45.0225C284.776 45.0225 285.289 44.7764 285.6 44.2842C285.916 43.7861 286.074 43.0479 286.074 42.0693C286.074 41.0967 285.916 40.3672 285.6 39.8809C285.283 39.3945 284.765 39.1514 284.044 39.1514C283.329 39.1514 282.813 39.3945 282.497 39.8809C282.181 40.3613 282.022 41.0908 282.022 42.0693ZM288.816 42.0693C288.816 43.6689 288.395 44.9199 287.551 45.8223C286.707 46.7246 285.532 47.1758 284.026 47.1758C283.083 47.1758 282.251 46.9707 281.53 46.5605C280.81 46.1445 280.256 45.5498 279.869 44.7764C279.482 44.0029 279.289 43.1006 279.289 42.0693C279.289 40.4639 279.708 39.2158 280.546 38.3252C281.384 37.4346 282.562 36.9893 284.079 36.9893C285.022 36.9893 285.854 37.1943 286.575 37.6045C287.296 38.0146 287.85 38.6035 288.236 39.3711C288.623 40.1387 288.816 41.0381 288.816 42.0693ZM293.387 37.1738V40.7686C293.387 41.624 293.782 42.0518 294.573 42.0518C295.089 42.0518 295.566 41.9932 296.006 41.876C296.451 41.7588 296.899 41.6064 297.351 41.4189V37.1738H300.031V47H297.351V43.0977C296.729 43.4258 296.152 43.6572 295.619 43.792C295.086 43.9268 294.57 43.9941 294.072 43.9941C293 43.9941 292.171 43.7217 291.585 43.1768C290.999 42.626 290.706 41.8438 290.706 40.8301V37.1738H293.387ZM305.524 40.9707H307.414C308.926 40.9707 310.045 41.2109 310.771 41.6914C311.498 42.1719 311.861 42.8984 311.861 43.8711C311.861 45.957 310.414 47 307.52 47H302.844V37.1738H305.524V40.9707ZM309.181 43.9062C309.181 43.5254 309.028 43.25 308.724 43.0801C308.419 42.9102 307.965 42.8252 307.361 42.8252H305.524V45.1455H307.396C308.586 45.1455 309.181 44.7324 309.181 43.9062Z" fill="white"/>
<path d="M64.5 84C82.375 84 97 69.375 97 51.5C97 33.625 82.375 19 64.5 19C46.625 19 32 33.625 32 51.5C32 69.375 46.625 84 64.5 84Z" fill="#DAE2EB"/>
<path d="M82.6125 52.535H45.87C41.73 52.535 38.4525 49.085 38.4525 44.945V24.59C38.4525 20.45 41.73 17 45.87 17H82.6125C86.7525 17 90.03 20.45 90.03 24.59V44.945C90.03 49.2575 86.58 52.535 82.6125 52.535Z" fill="url(#paint0_linear)"/>
<path d="M92.4451 39.9425C90.7201 39.9425 89.3401 38.5625 89.3401 36.8375V32.6975C89.3401 30.9725 90.7201 29.5925 92.4451 29.5925C94.1701 29.5925 95.5501 30.9725 95.5501 32.6975V36.8375C95.3776 38.5625 94.1701 39.9425 92.4451 39.9425Z" fill="#4A5972"/>
<path d="M85.0275 47.36H75.54C75.0225 47.36 74.6775 47.015 74.6775 46.4975C74.6775 45.98 75.0225 45.635 75.54 45.635H85.0275C88.65 45.635 91.5825 42.7025 91.5825 38.9075C91.5825 38.39 91.9275 38.045 92.445 38.045C92.9625 38.045 93.3075 38.39 93.3075 38.9075C93.3075 43.565 89.685 47.36 85.0275 47.36Z" fill="#4A5972"/>
<path d="M63.9825 44.255C62.43 44.255 61.2225 43.565 60.5325 42.3575C60.36 42.0125 60.5325 41.495 60.705 41.3225C61.05 41.15 61.5675 41.15 61.74 41.6675C62.085 42.3575 62.9475 42.875 63.9825 42.875C64.845 42.875 65.7075 42.3575 66.0525 41.84C66.225 41.495 66.7425 41.3225 67.0875 41.495C67.4325 41.6675 67.605 42.185 67.26 42.53C66.7425 43.565 65.3625 44.255 63.9825 44.255Z" fill="#002330"/>
<path d="M57.945 34.2499C57.4275 34.2499 56.91 33.7324 56.91 33.2149C56.91 31.3174 55.3575 29.7649 53.46 29.7649C51.5625 29.7649 50.01 31.3174 50.01 33.2149C50.01 33.9049 49.4925 34.2499 48.975 34.2499C48.4575 34.2499 47.94 33.7324 47.94 33.2149C47.94 30.1099 50.355 27.5224 53.46 27.5224C56.565 27.5224 58.98 30.1099 58.98 33.2149C58.98 33.7324 58.635 34.2499 57.945 34.2499Z" fill="#002330"/>
<path d="M79.335 34.2499C78.8175 34.2499 78.3 33.7324 78.3 33.2149C78.3 31.3174 76.7475 29.7649 74.85 29.7649C72.9525 29.7649 71.4 31.3174 71.4 33.2149C71.4 33.9049 70.8825 34.2499 70.365 34.2499C69.8475 34.2499 69.33 33.7324 69.33 33.2149C69.33 30.1099 71.745 27.5224 74.85 27.5224C77.955 27.5224 80.37 30.1099 80.37 33.2149C80.37 33.7324 79.8525 34.2499 79.335 34.2499Z" fill="#002330"/>
<mask id="mask0" mask-type="alpha" maskUnits="userSpaceOnUse" x="32" y="19" width="65" height="65">
<path d="M64.5 84C82.375 84 97 69.375 97 51.5C97 33.625 82.375 19 64.5 19C46.625 19 32 33.625 32 51.5C32 69.375 46.625 84 64.5 84Z" fill="white"/>
</mask>
<g mask="url(#mask0)">
<path d="M92.6175 84.1025C91.065 84.1025 89.685 83.585 88.65 82.7225C86.925 81.17 86.0625 78.41 86.235 74.615C86.4075 69.785 85.7175 66.68 84.165 65.1275C82.6125 63.575 80.5425 63.575 77.955 63.575C77.4375 63.575 77.0925 63.23 77.0925 62.7125C77.0925 62.195 77.4375 61.85 77.955 61.85C80.37 61.85 83.3025 61.6775 85.3725 63.92C87.27 65.8175 88.1325 69.44 87.96 74.615C87.96 77.8925 88.4775 80.3075 89.8575 81.3425C90.8925 82.205 92.2725 82.55 93.9975 82.205C94.515 82.0325 94.86 82.3775 95.0325 82.895C95.0325 83.4125 94.86 83.7575 94.3425 83.93C93.6525 84.1025 93.135 84.1025 92.6175 84.1025Z" fill="#4A5972"/>
<path d="M35.865 84.1025C35.3475 84.1025 34.83 84.1025 34.3125 83.93C33.795 83.7575 33.6225 83.4125 33.6225 82.895C33.6225 82.3775 34.14 82.0325 34.6575 82.205C36.3825 82.55 37.7625 82.205 38.7975 81.3425C40.1775 80.135 40.695 77.8925 40.695 74.615C40.5225 69.44 41.385 65.8175 43.2825 63.92C45.3525 61.6775 48.4575 61.85 50.7 61.85C51.2175 61.85 51.5625 62.195 51.5625 62.7125C51.5625 63.23 51.2175 63.575 50.7 63.575C48.1125 63.575 45.87 63.575 44.49 65.1275C42.9375 66.68 42.2475 69.785 42.42 74.615C42.5925 78.41 41.73 81.17 40.005 82.7225C38.7975 83.7575 37.4175 84.1025 35.865 84.1025Z" fill="#4A5972"/>
<path d="M81.5775 67.5426L69.1575 87.5527C66.915 91.0027 61.74 91.0027 59.4975 87.5527L46.905 67.5426C44.49 63.5751 47.25 58.4001 51.735 58.4001H76.7475C81.2325 58.4001 83.9925 63.5751 81.5775 67.5426Z" fill="url(#paint1_linear)"/>
</g>
<path d="M212 69L222 77L232 69" stroke="white" stroke-width="2" stroke-linecap="round" stroke-linejoin="round"/>
<defs>
<linearGradient id="paint0_linear" x1="77.2105" y1="56.8941" x2="51.2184" y2="12.6844" gradientUnits="userSpaceOnUse">
<stop stop-color="#007FFF"/>
<stop offset="1" stop-color="#8FD4FF"/>
</linearGradient>
<linearGradient id="paint1_linear" x1="79.4211" y1="76.6168" x2="44.9261" y2="67.5402" gradientUnits="userSpaceOnUse">
<stop stop-color="#007FFF"/>
<stop offset="1" stop-color="#8FD4FF"/>
</linearGradient>
</defs>
</svg>
