<?xml version="1.0" encoding="utf-8"?>
<!-- Generator: Adobe Illustrator 21.0.2, SVG Export Plug-In . SVG Version: 6.00 Build 0)  -->
<svg version="1.1" id="Layer_1" xmlns="http://www.w3.org/2000/svg" xmlns:xlink="http://www.w3.org/1999/xlink" x="0px" y="0px"
	 viewBox="0 0 54 54" style="enable-background:new 0 0 54 54;" xml:space="preserve">
<style type="text/css">
	.st0{fill-rule:evenodd;clip-rule:evenodd;fill:#1970FF;}
	.st1{fill-rule:evenodd;clip-rule:evenodd;fill:#FFFFFF;}
</style>
<g>
	<path class="st0" d="M27,0L27,0c14.9,0,27,12.1,27,27v0c0,14.8-12.2,27-27,27h0C12.2,54,0,41.9,0,27v0C0,12.1,12.2,0,27,0"/>
	<g>
		<path class="st1" d="M12.9,16.8h24.4c2.2,0,4.1,1.8,4.1,4.1v0H12.9V16.8z"/>
		<path class="st1" d="M12.9,29h24.4c2.2,0,4.1-1.8,4.1-4.1v0H12.9V29z"/>
		<rect x="12.9" y="33.1" class="st1" width="8.8" height="4.1"/>
		<polygon class="st1" points="29.2,33.1 39,33.1 43.1,37.2 33.3,37.2 		"/>
	</g>
</g>
</svg>
