<?xml version="1.0" encoding="utf-8"?>
<!-- Generator: Adobe Illustrator 21.0.2, SVG Export Plug-In . SVG Version: 6.00 Build 0)  -->
<svg version="1.1" id="Layer_1" xmlns="http://www.w3.org/2000/svg" xmlns:xlink="http://www.w3.org/1999/xlink" x="0px" y="0px"
	 viewBox="0 0 41.3 35.1" style="enable-background:new 0 0 41.3 35.1;" xml:space="preserve">
<style type="text/css">
	.st0{fill-rule:evenodd;clip-rule:evenodd;fill:#1970FF;}
</style>
<g>
	<path class="st0" d="M39.9,1.3c-0.6-0.6-1.5-1.1-2.5-1.1H3.9c-1,0-1.9,0.4-2.5,1.1l0,0C0.7,1.9,0.3,2.8,0.3,3.8v27.7
		c0,1,0.4,1.9,1.1,2.5c0.6,0.6,1.5,1.1,2.5,1.1h33.5c1,0,1.9-0.4,2.5-1.1l0,0c0.6-0.6,1.1-1.5,1.1-2.5V3.8C41,2.8,40.6,1.9,39.9,1.3
		z M2.4,2.3L2.4,2.3c0.4-0.4,0.9-0.6,1.5-0.6h33.5c0.6,0,1.1,0.2,1.5,0.6c0.4,0.4,0.6,0.9,0.6,1.5v3.8H1.8V3.8
		C1.8,3.2,2,2.7,2.4,2.3z M38.9,33c-0.4,0.4-0.9,0.6-1.5,0.6H3.9c-0.6,0-1.1-0.2-1.5-0.6c-0.4-0.4-0.6-0.9-0.6-1.5V9h37.7v22.5
		C39.5,32.1,39.3,32.6,38.9,33z"/>
	<circle class="st0" cx="36.4" cy="4.8" r="1.1"/>
	<circle class="st0" cx="32.5" cy="4.8" r="1.1"/>
	<circle class="st0" cx="28.7" cy="4.8" r="1.1"/>
	<path class="st0" d="M34.2,29h-3.8V13.5c0-0.4-0.3-0.7-0.7-0.7h-6c-0.4,0-0.7,0.3-0.7,0.7v7.7h-5.3c-0.4,0-0.7,0.3-0.7,0.7v3.3
		h-5.3c-0.4,0-0.7,0.3-0.7,0.7v3H7.1c-0.4,0-0.7,0.3-0.7,0.7c0,0.4,0.3,0.7,0.7,0.7h4.6c0,0,0,0,0,0h6h0h6h6c0,0,0,0,0,0h4.6
		c0.4,0,0.7-0.3,0.7-0.7C35,29.3,34.6,29,34.2,29z M24.4,14.3h4.5V29h-4.5v-7V14.3z M22.9,22.7V29h-4.5v-3c0,0,0,0,0,0v-3.3H22.9z
		 M12.4,26.7h4.5V29h-4.5V26.7z"/>
</g>
</svg>
