<?xml version="1.0" encoding="utf-8"?>
<!-- Generator: Adobe Illustrator 21.0.2, SVG Export Plug-In . SVG Version: 6.00 Build 0)  -->
<svg version="1.1" id="Layer_1" xmlns="http://www.w3.org/2000/svg" xmlns:xlink="http://www.w3.org/1999/xlink" x="0px" y="0px"
	 viewBox="0 0 44.3 37" style="enable-background:new 0 0 44.3 37;" xml:space="preserve">
<style type="text/css">
	.st0{fill-rule:evenodd;clip-rule:evenodd;fill:#1A71FE;}
</style>
<g>
	<path class="st0" d="M14.1,0.4c3.8,0,7.2,1.5,9.7,4c2.5,2.4,4,5.8,4.1,9.5l3,5.3c0.3,0.6,0.4,1.2,0.2,1.7C31,21.5,30.6,22,30,22.3
		l-2,1.1v4.9c0,1.1-0.5,2.2-1.2,2.9l0,0c-0.8,0.8-1.8,1.2-2.9,1.2h-3v3.6c0,0.4-0.3,0.7-0.7,0.7H5.5c-0.4,0-0.7-0.3-0.7-0.7V24.5
		c-1.4-1.3-2.5-2.8-3.2-4.5c-0.8-1.8-1.2-3.7-1.2-5.7c0-3.8,1.5-7.3,4-9.8C6.8,2,10.3,0.4,14.1,0.4L14.1,0.4z M22.8,5.4
		c-2.2-2.2-5.3-3.6-8.7-3.6c-3.4,0-6.5,1.4-8.7,3.6c-2.2,2.2-3.6,5.3-3.6,8.8c0,1.8,0.4,3.6,1.1,5.1c0.7,1.6,1.8,3,3.1,4.2
		c0.2,0.1,0.3,0.4,0.3,0.6v11.2h13.1v-3.6c0-0.4,0.3-0.7,0.7-0.7h3.8c0.7,0,1.4-0.3,1.9-0.8l0,0c0.5-0.5,0.8-1.2,0.8-1.9V23
		c0-0.3,0.1-0.5,0.4-0.6l2.4-1.4c0.2-0.1,0.4-0.3,0.4-0.5c0.1-0.2,0-0.4-0.1-0.7l-3.1-5.4c-0.1-0.1-0.1-0.2-0.1-0.4
		C26.4,10.7,25,7.6,22.8,5.4z"/>
	<path class="st0" d="M33.7,23.3c-0.3-0.3-0.3-0.7,0-1c0.3-0.3,0.7-0.3,1,0c0,0,3.7,3.4-0.1,6.9c-0.3,0.3-0.8,0.3-1,0
		c-0.3-0.3-0.3-0.8,0-1C36.2,25.7,33.7,23.3,33.7,23.3z"/>
	<path class="st0" d="M36.4,20.7c-0.3-0.3-0.3-0.7,0-1c0.3-0.3,0.7-0.3,1,0c0,0,6.5,6.1-0.1,12.2c-0.3,0.3-0.8,0.3-1,0
		c-0.3-0.3-0.3-0.8,0-1C41.8,25.7,36.4,20.7,36.4,20.7z"/>
	<path class="st0" d="M39.1,17.8c-0.3-0.3-0.3-0.7,0-1c0.3-0.3,0.7-0.3,1,0c0,0,9.5,8.9-0.2,17.9c-0.3,0.3-0.8,0.3-1,0
		c-0.3-0.3-0.3-0.8,0-1C47.5,25.6,39.1,17.9,39.1,17.8z"/>
</g>
</svg>
