<?xml version="1.0" encoding="utf-8"?>
<!-- Generator: Adobe Illustrator 21.0.2, SVG Export Plug-In . SVG Version: 6.00 Build 0)  -->
<svg version="1.1" id="Layer_1" xmlns="http://www.w3.org/2000/svg" xmlns:xlink="http://www.w3.org/1999/xlink" x="0px" y="0px"
	 viewBox="0 0 37.5 37" style="enable-background:new 0 0 37.5 37;" xml:space="preserve">
<style type="text/css">
	.st0{fill-rule:evenodd;clip-rule:evenodd;fill:#1A71FE;}
</style>
<g>
	<path class="st0" d="M18.8,3.2c4.2,0,8.1,1.7,10.9,4.5c2.8,2.8,4.5,6.6,4.5,10.9c0,4.2-1.7,8.1-4.5,10.9c-2.8,2.8-6.6,4.5-10.9,4.5
		c-4.2,0-8.1-1.7-10.9-4.5c-2.8-2.8-4.5-6.6-4.5-10.9c0-4.2,1.7-8.1,4.5-10.9C10.7,4.9,14.5,3.2,18.8,3.2L18.8,3.2z M28.6,8.7
		c-2.5-2.5-6-4.1-9.9-4.1c-3.9,0-7.3,1.6-9.9,4.1c-2.5,2.5-4.1,6-4.1,9.9c0,3.9,1.6,7.3,4.1,9.9c2.5,2.5,6,4.1,9.9,4.1
		c3.9,0,7.3-1.6,9.9-4.1s4.1-6,4.1-9.9C32.7,14.7,31.2,11.2,28.6,8.7z"/>
	<path class="st0" d="M18.8,0.1c5.1,0,9.7,2.1,13.1,5.4c3.3,3.3,5.4,8,5.4,13.1c0,5.1-2.1,9.7-5.4,13.1s-8,5.4-13.1,5.4
		c-5.1,0-9.7-2.1-13.1-5.4s-5.4-8-5.4-13.1c0-5.1,2.1-9.7,5.4-13.1C9,2.1,13.7,0.1,18.8,0.1L18.8,0.1z M30.8,6.5
		c-3.1-3.1-7.4-5-12.1-5c-4.7,0-9,1.9-12.1,5c-3.1,3.1-5,7.4-5,12.1s1.9,9,5,12.1c3.1,3.1,7.4,5,12.1,5c4.7,0,9-1.9,12.1-5
		c3.1-3.1,5-7.4,5-12.1S33.9,9.6,30.8,6.5z"/>
	<path class="st0" d="M18.1,7.1c0-0.4,0.3-0.7,0.7-0.7c0.4,0,0.7,0.3,0.7,0.7v11.5c0,0.4-0.3,0.7-0.7,0.7c-0.4,0-0.7-0.3-0.7-0.7
		V7.1z"/>
	<path class="st0" d="M29.6,17.9c0.4,0,0.7,0.3,0.7,0.7c0,0.4-0.3,0.7-0.7,0.7H18.9c-0.4,0-0.7-0.3-0.7-0.7c0-0.4,0.3-0.7,0.7-0.7
		H29.6z"/>
	<circle class="st0" cx="18.8" cy="30.1" r="1"/>
	<circle class="st0" cx="7.7" cy="18.6" r="1"/>
</g>
</svg>
