<?xml version="1.0" encoding="utf-8"?>
<!-- Generator: Adobe Illustrator 21.0.2, SVG Export Plug-In . SVG Version: 6.00 Build 0)  -->
<svg version="1.1" id="Layer_1" xmlns="http://www.w3.org/2000/svg" xmlns:xlink="http://www.w3.org/1999/xlink" x="0px" y="0px"
	 viewBox="0 0 37.9 45.4" style="enable-background:new 0 0 37.9 45.4;" xml:space="preserve">
<style type="text/css">
	.st0{fill-rule:evenodd;clip-rule:evenodd;fill:#1970FF;}
</style>
<g>
	<path class="st0" d="M7.4,28.9L2.1,39.1l4.6,0.5c0.2,0,0.4,0.1,0.5,0.3l3,3.5l5.2-9.9l-0.4-0.3l-4.4,0.4c-0.3,0-0.6-0.2-0.7-0.4
		l-1.8-4L7.4,28.9L7.4,28.9z M0.3,39.4l6.2-11.8c0.2-0.3,0.6-0.5,1-0.3l1.3,0.6c0.2,0.1,0.3,0.2,0.4,0.4l1.8,3.8l4.2-0.4
		c0.2,0,0.4,0,0.5,0.1l1.1,0.8c0.3,0.2,0.4,0.6,0.2,0.9l-6,11.4c0,0.1-0.1,0.2-0.2,0.2c-0.3,0.3-0.8,0.2-1-0.1L6.2,41l-5.4-0.6
		c-0.1,0-0.2,0-0.3-0.1C0.2,40.2,0.1,39.7,0.3,39.4z"/>
	<path class="st0" d="M30.6,28.9L36,39.1l-4.6,0.5c-0.2,0-0.4,0.1-0.5,0.3l-3,3.5l-5.2-9.9l0.4-0.3l4.4,0.4c0.3,0,0.6-0.2,0.7-0.4
		l1.8-4L30.6,28.9L30.6,28.9z M37.8,39.4l-6.2-11.8c-0.2-0.3-0.6-0.5-1-0.3l-1.3,0.6c-0.2,0.1-0.3,0.2-0.4,0.4l-1.8,3.8L23,31.7
		c-0.2,0-0.4,0-0.5,0.1l-1.1,0.8c-0.3,0.2-0.4,0.6-0.2,0.9l6,11.4c0,0.1,0.1,0.2,0.2,0.2c0.3,0.3,0.8,0.2,1-0.1l3.5-4.1l5.4-0.6
		c0.1,0,0.2,0,0.3-0.1C37.8,40.2,37.9,39.7,37.8,39.4z"/>
	<path class="st0" d="M19.4,0.2l3.6,2.6l4.4-0.4c0.3,0,0.6,0.2,0.7,0.4l1.8,4l4.1,1.9c0.3,0.1,0.5,0.4,0.4,0.7l-0.4,4.4l2.6,3.6
		c0.2,0.3,0.2,0.6,0,0.9L34.2,22l0.4,4.4c0,0.3-0.2,0.6-0.4,0.7l-4,1.8l-1.9,4.1c-0.1,0.3-0.4,0.5-0.7,0.4l-4.4-0.4l-3.6,2.6
		c-0.3,0.2-0.6,0.2-0.9,0l-3.6-2.6l-4.4,0.4c-0.3,0-0.6-0.2-0.7-0.4l-1.8-4l-4.1-1.9c-0.3-0.1-0.5-0.4-0.4-0.7L3.8,22l-2.6-3.6
		c-0.2-0.3-0.2-0.6,0-0.9l2.6-3.6L3.4,9.5c0-0.3,0.2-0.6,0.4-0.7l4-1.8l1.9-4.1c0.1-0.3,0.4-0.5,0.7-0.4l4.4,0.4l3.6-2.6
		C18.8,0,19.2,0,19.4,0.2L19.4,0.2z M22.4,4.2L19,1.7l-3.4,2.4c-0.1,0.1-0.3,0.1-0.5,0.1l-4.2-0.4L9.1,7.7C9,7.9,8.9,8,8.7,8.1
		L4.9,9.8L5.3,14c0,0.2,0,0.4-0.1,0.5L2.7,18l2.4,3.4c0.1,0.1,0.1,0.3,0.1,0.5l-0.4,4.2l3.8,1.8c0.2,0.1,0.3,0.2,0.4,0.4l1.8,3.8
		l4.2-0.4c0.2,0,0.4,0,0.5,0.1l3.4,2.4l3.4-2.4c0.1-0.1,0.3-0.1,0.5-0.1l4.2,0.4l1.8-3.8c0.1-0.2,0.2-0.3,0.4-0.4l3.8-1.8l-0.4-4.2
		c0-0.2,0-0.4,0.1-0.5l2.4-3.4l-2.4-3.4c-0.1-0.1-0.1-0.3-0.1-0.5l0.4-4.2l-3.8-1.8c-0.2-0.1-0.3-0.2-0.4-0.4l-1.8-3.8l-4.2,0.4
		C22.8,4.3,22.6,4.3,22.4,4.2z"/>
	<path class="st0" d="M13.7,19.1c-0.3-0.3-0.2-0.8,0.1-1s0.8-0.2,1,0.1l4,4.6l5.5-8.7c0.2-0.3,0.7-0.4,1-0.2c0.3,0.2,0.4,0.7,0.2,1
		l-6.1,9.6c0,0.1-0.1,0.1-0.1,0.2c-0.3,0.3-0.8,0.2-1-0.1L13.7,19.1z"/>
	<path class="st0" d="M19,6.1c3.2,0,6.1,1.3,8.3,3.5c2.1,2.1,3.4,5.1,3.4,8.4c0,3.3-1.3,6.2-3.4,8.4c-2.1,2.1-5,3.5-8.3,3.5
		c-3.2,0-6.1-1.3-8.3-3.5c-2.1-2.1-3.4-5.1-3.4-8.4c0-3.3,1.3-6.2,3.4-8.4C12.8,7.5,15.8,6.1,19,6.1L19,6.1z M26.2,10.6
		c-1.8-1.9-4.4-3-7.2-3c-2.8,0-5.4,1.2-7.2,3c-1.8,1.9-3,4.5-3,7.4c0,2.9,1.1,5.5,3,7.4c1.8,1.9,4.4,3,7.2,3c2.8,0,5.4-1.2,7.2-3
		c1.8-1.9,3-4.5,3-7.4C29.2,15.1,28,12.5,26.2,10.6z"/>
</g>
</svg>
