<?xml version="1.0" encoding="utf-8"?>
<!-- Generator: Adobe Illustrator 21.0.2, SVG Export Plug-In . SVG Version: 6.00 Build 0)  -->
<svg version="1.1" id="Layer_1" xmlns="http://www.w3.org/2000/svg" xmlns:xlink="http://www.w3.org/1999/xlink" x="0px" y="0px"
	 viewBox="0 0 44.9 37.8" style="enable-background:new 0 0 44.9 37.8;" xml:space="preserve">
<style type="text/css">
	.st0{fill:#1A71FE;}
</style>
<g>
	<path class="st0" d="M20.1,14.7c1,0.4,1.9,0.5,2.8,0.3c1-0.2,1.8-0.6,2.4-1.3c0.2-0.2,0.3-0.3,0.4-0.5c0.7-1,1.1-2.1,1-3.2l0,0
		c-0.1-1.1-0.5-2.1-1.4-3c-0.2-0.2-0.3-0.3-0.5-0.4c-0.8-0.6-1.8-1-2.8-1c-1,0-2,0.3-2.9,0.8c-0.2,0.2-0.4,0.3-0.6,0.5
		c0,0.2-0.2,0.4-0.3,0.6C18,8,17.7,8.4,17.5,9c-0.1,0.4-0.2,1-0.2,1.4c0,1,0.3,1.9,0.7,2.7C18.5,13.7,19.2,14.4,20.1,14.7z
		 M18.8,9.4c0.1-0.3,0.2-0.6,0.4-0.8c0.1-0.2,0.2-0.3,0.3-0.4s0.2-0.2,0.4-0.3c0.6-0.4,1.3-0.6,2-0.6s1.4,0.2,1.9,0.6
		C24,7.9,24.2,8,24.3,8.1c0.6,0.6,1,1.4,1,2.1l0,0c0,0.7-0.2,1.6-0.6,2.2c-0.1,0.1-0.2,0.2-0.3,0.4c-0.4,0.5-1.1,0.7-1.7,0.8
		c-0.6,0.1-1.4,0-2-0.2s-1.1-0.7-1.4-1.3c-0.3-0.5-0.5-1.2-0.5-1.9C18.7,10,18.8,9.7,18.8,9.4z"/>
	<path class="st0" d="M44.8,33.7l-0.5-4.5c0-0.1,0-0.1,0-0.2s0-0.2-0.1-0.3l-1.3-11.3c-0.1-1-0.5-1.9-1.2-2.5l0,0
		c-0.6-0.6-1.5-1.1-2.4-1.1h-8c0.4-1.2,0.7-2.4,0.7-3.5c0-1.3-0.3-2.5-0.7-3.7c-0.5-1.2-1.2-2.3-2.1-3.2L29,3.1
		c-0.1-0.1-0.2-0.2-0.4-0.4h-0.1l-0.6-0.5c-0.2-0.2-0.4-0.3-0.7-0.4c-0.2-0.1-0.5-0.3-0.7-0.4h-0.1C25.6,1,25,0.8,24.3,0.7
		c-0.6-0.1-1.4-0.2-2-0.3h-0.1h-0.6l0,0c-0.7,0-1.4,0.1-2,0.3c-0.6,0.1-1.3,0.4-1.9,0.6c-0.6,0.3-1.1,0.5-1.5,0.8s-0.8,0.6-1.3,1.2
		c-0.3,0.3-0.4,0.4-0.5,0.6c-0.2,0.2-0.3,0.4-0.5,0.6c-0.5,0.7-1,1.7-1.3,2.7c-0.3,1-0.5,2-0.5,3c0,0.8,0.1,1.6,0.3,2.4
		c0.1,0.4,0.2,0.8,0.4,1.2h-7c-1,0-1.8,0.4-2.4,1.1l0,0c-0.6,0.6-1.1,1.6-1.2,2.5L0.3,33.7c0,0.1,0,0.2,0,0.3c0,0.8,0.4,1.7,1,2.3
		c0.6,0.5,1.4,1,2.2,1.1c0.1,0,0.3,0,0.4,0h37.2c0.1,0,0.3,0,0.4,0c0.8-0.1,1.7-0.5,2.2-1.1c0.6-0.6,1-1.4,1-2.3
		C44.8,33.9,44.8,33.8,44.8,33.7z M3,22.3h8l-0.5,6H2.3L3,22.3z M12.3,22.3h4.8l0.1,0.2c0.7,1.3,1.6,2.7,2.4,3.9
		c0.4,0.6,0.8,1.3,1.3,1.9h-9.1L12.3,22.3z M13.4,15.2L13.4,15.2c0.1,0.3,0.2,0.5,0.3,0.7v0.1l0.2,0.5c0.1,0.2,0.2,0.4,0.3,0.5l0,0
		c0.6,1.3,1.3,2.5,2,3.7h-3.9l0.5-5.7h0.5V15.2z M21.4,29.8V36H11.1l0.5-6.3C11.6,29.8,21.4,29.8,21.4,29.8z M22.7,29.8h9.5l0.5,6.3
		h-10v-6.3H22.7z M23.2,28.4l0.1-0.1c0-0.1,0.1-0.1,0.1-0.2l0.1-0.1c0-0.1,0.1-0.1,0.1-0.2l0.1-0.1c0-0.1,0.1-0.1,0.1-0.2
		c0,0,0-0.1,0.1-0.1c0.1-0.2,0.2-0.3,0.3-0.4l0.2-0.3c1-1.4,1.7-2.8,2.5-4.1c0,0,0,0,0-0.1h0.1h4.6l0.5,6
		C32.2,28.4,23.2,28.4,23.2,28.4z M33,22.3h9c0.3,2,0.5,4,0.7,6h-9.3L33,22.3z M40.8,15.9c0.4,0.4,0.7,1.1,0.7,1.7
		c0.1,1.1,0.3,2.2,0.4,3.4h-9l-0.4-5.7h6.8C39.8,15.2,40.3,15.4,40.8,15.9z M30.7,15.2h0.4l0.4,5.7h-3.8c0.5-1,1.2-1.9,1.5-2.9
		c0-0.1,0.1-0.2,0.1-0.3c0.1-0.1,0.1-0.3,0.2-0.4c0-0.1,0.1-0.2,0.1-0.3c0.1-0.2,0.2-0.4,0.3-0.6c0-0.1,0.1-0.2,0.1-0.3
		c0.1-0.2,0.2-0.4,0.3-0.7c0-0.1,0.1-0.1,0.1-0.2C30.7,15.3,30.7,15.2,30.7,15.2z M13.9,7.7c0.3-0.8,0.6-1.6,1.1-2.2l0,0
		c0.2-0.3,0.3-0.4,0.4-0.6c0.1-0.1,0.2-0.3,0.5-0.5c0.4-0.3,0.8-0.6,1.2-0.8c0.4-0.3,0.7-0.5,1.3-0.7c0.5-0.2,1.1-0.4,1.6-0.5
		C20.5,2.1,21.1,2,21.8,2h0.6l0,0c0.6,0,1.2,0.1,1.7,0.2c0.5,0.1,1.1,0.3,1.6,0.5l0,0c0.2,0.1,0.4,0.2,0.6,0.3l0,0
		c0.3,0.1,0.5,0.3,0.6,0.4L27.7,4c0.1,0.1,0.2,0.2,0.3,0.3l0.2,0.2C29,5.3,29.6,6.2,30,7.2c0.4,1,0.6,2.1,0.6,3.2
		c0,1.3-0.5,2.8-1.2,4.2c-0.1,0.2-0.1,0.3-0.2,0.4c-0.1,0.1-0.1,0.3-0.2,0.4c-0.1,0.1-0.1,0.3-0.2,0.4c-0.1,0.2-0.2,0.3-0.3,0.5
		c-0.2,0.3-0.3,0.6-0.5,1l-0.1,0.2v0.1c-0.7,1.4-1.4,2.7-2.2,3.9c-0.8,1.4-1.6,2.8-2.5,4c-0.3,0.5-0.7,1.2-1.2,1.7l-1.2-1.6
		c-0.7-1.2-1.6-2.5-2.3-3.8L18,21c-0.1-0.2-0.2-0.4-0.3-0.5l-0.3-0.5l-1.8-3.4c-0.1-0.2-0.2-0.4-0.2-0.5c-0.1-0.2-0.1-0.3-0.3-0.6
		c-0.2-0.3-0.3-0.7-0.4-1.1l0,0l0,0l0,0c-0.2-0.6-0.5-1.3-0.7-2c-0.2-0.6-0.3-1.4-0.3-2C13.5,9.5,13.7,8.5,13.9,7.7z M3.5,17.6
		c0.1-0.6,0.3-1.3,0.7-1.7l0,0c0.4-0.4,0.8-0.6,1.5-0.6h5.7L11,21H3.1L3.5,17.6z M3.6,36c-0.5-0.1-1.1-0.3-1.5-0.6
		c-0.3-0.3-0.5-0.8-0.5-1.3c0-0.1,0-0.1,0-0.2l0.4-4h8.2L9.7,36H4C3.9,36,3.8,36,3.6,36z M42.8,35.4c-0.4,0.3-0.8,0.6-1.5,0.6
		c-0.1,0-0.2,0-0.2,0h-7l-0.5-6.3h9.3c0.1,1.5,0.3,2.9,0.3,4.2C43.4,34.5,43.2,34.9,42.8,35.4z"/>
</g>
</svg>
