<?xml version="1.0" encoding="utf-8"?>
<!-- Generator: Adobe Illustrator 21.0.2, SVG Export Plug-In . SVG Version: 6.00 Build 0)  -->
<svg version="1.1" id="Layer_1" xmlns="http://www.w3.org/2000/svg" xmlns:xlink="http://www.w3.org/1999/xlink" x="0px" y="0px"
	 viewBox="0 0 38.1 44" style="enable-background:new 0 0 38.1 44;" xml:space="preserve">
<style type="text/css">
	
		.st0{fill-rule:evenodd;clip-rule:evenodd;fill:none;stroke:#1A71FE;stroke-width:1.5;stroke-linecap:round;stroke-linejoin:round;stroke-miterlimit:22.9256;}
	.st1{fill-rule:evenodd;clip-rule:evenodd;fill:#1A71FE;}
</style>
<g>
	<path class="st0" d="M17.3,21.9c0,0,3.1-2.9,5.9,0.5"/>
	<path class="st0" d="M14.9,18.6c0,0,6-5.5,11.2,1"/>
	<g>
		<path class="st1" d="M28.8,31.3c0.1,0.4-0.1,0.8-0.5,0.9c-0.4,0.1-0.8-0.1-0.9-0.5c-0.2-0.8-0.6-1.5-1-2.2c-1.2-1.7-3-2.8-5.1-3.3
			c-2.1-0.5-4.4-0.4-6.5,0.3c-1.2,0.4-2.3,0.9-3.2,1.5c-0.3,0.2-0.8,0.1-1-0.2c-0.2-0.3-0.1-0.8,0.2-1c1.1-0.7,2.3-1.3,3.7-1.7
			c2.3-0.7,4.9-0.8,7.3-0.3c2.4,0.5,4.6,1.8,6,3.9C28.1,29.5,28.5,30.4,28.8,31.3z"/>
		<path class="st0" d="M24.3,26.7c1.6-1.3,4.5-2.3,7.2-2.4c2.3-0.1,4.4,0.3,5.7,1.7l-3.4,14.6l-3.9-0.4c0,0-2.1,2-9.8,2.8
			c-7.7,0.8-15.4-3-17.8-5.1c-2.4-2.1-1-5.6-1.2-7.3c-0.2-1.7-0.3-5.2,1.2-9.4c1.3-3.7,4.3-8.4,4.6-10c0.3-1.6,1.7-3.3,1.7-3.3
			s4.3-5.4,5.5-6.3c1.2-0.9,2.4-0.6,3.7-0.1l2,0.8c0,0,2.2,0.9,1.8,2.3c-0.4,1.4-2.3,4.5-2.9,4.9c-0.6,0.5-2.3,0.3-3.1-0.2"/>
		<path class="st1" d="M10.8,30.3c-0.2,0.4-0.6,0.6-1,0.4c-0.4-0.2-0.6-0.6-0.4-1c0,0,1.1-2.5,1.2-5.8c0.1-2,0.1-3.7,0.1-5.2
			c0-3.9,0.1-6.4,1.2-7.5c0.3-0.3,0.7-0.5,1.2-0.7l0,0c0.7-0.3,1.7-0.8,1.8-1.6c0.1-0.4,0.4-0.7,0.8-0.6c0.4,0.1,0.7,0.4,0.6,0.8
			c-0.3,1.6-1.6,2.2-2.7,2.7c-0.4,0.2-0.7,0.3-0.8,0.4c-0.7,0.7-0.7,2.9-0.7,6.5c0,1.5,0,3.3-0.1,5.3C12,27.6,10.8,30.3,10.8,30.3z"
			/>
	</g>
</g>
</svg>
