<?xml version="1.0" encoding="utf-8"?>
<!-- Generator: Adobe Illustrator 21.0.2, SVG Export Plug-In . SVG Version: 6.00 Build 0)  -->
<svg version="1.1" id="Layer_1" xmlns="http://www.w3.org/2000/svg" xmlns:xlink="http://www.w3.org/1999/xlink" x="0px" y="0px"
	 viewBox="0 0 31.9 39.4" style="enable-background:new 0 0 31.9 39.4;" xml:space="preserve">
<style type="text/css">
	.st0{fill:none;stroke:#1A71FE;stroke-width:1.5;stroke-linecap:round;stroke-linejoin:round;stroke-miterlimit:22.9256;}
</style>
<g>
	<g>
		<path class="st0" d="M13.6,7.9c1.4,0,2.6,1.4,2.6,2.8v8.6c0.3-0.9,1.2-1.7,2.4-1.7c1.3,0,2.4,1,2.5,2.3c0.4-0.8,1.2-1.4,2.3-1.4
			c1.2,0,2.3,0.9,2.5,2.1c0.4-0.8,1.1-1.4,2.3-1.4c1.2,0,2.5,1.1,2.6,2.5l0,0v12l0,0l0,0c0,3-4.4,5.4-9.8,5.4
			c-2.8,0-6.5-0.7-8.6-2.8L1.9,26.8c-0.6-0.5-0.9-1.2-0.9-2c0.2-1.1,1.3-2.3,2.7-2.3c1.7,0,5.8,3.9,7.4,5.3v-17
			C11.1,9.4,12.2,7.9,13.6,7.9z"/>
		<line class="st0" x1="16.2" y1="17.1" x2="16.2" y2="23.9"/>
		<line class="st0" x1="21" y1="19.9" x2="21" y2="22.7"/>
		<line class="st0" x1="25.9" y1="20.5" x2="25.9" y2="23.5"/>
	</g>
	<line class="st0" x1="27.3" y1="10.1" x2="16.8" y2="10.1"/>
	<line class="st0" x1="20.3" y1="5.2" x2="3.9" y2="5.2"/>
	<line class="st0" x1="27.3" y1="0.8" x2="3.9" y2="0.8"/>
	<line class="st0" x1="10.7" y1="10.1" x2="4.4" y2="10.1"/>
</g>
</svg>
