	<svg version="1.1" style="fill:#1970ff" xmlns="http://www.w3.org/2000/svg" xmlns:xlink="http://www.w3.org/1999/xlink" x="0px" y="0px" viewBox="0 0 56 48" xml:space="preserve">
							<g>
								<path d="M3,0C1.3,0,0,1.3,0,3v42c0,1.7,1.3,3,3,3h50c1.7,0,3-1.3,3-3V3c0-1.7-1.3-3-3-3H3z M3,2h50c0.6,0,1,0.4,1,1v42
								c0,0.6-0.4,1-1,1H3c-0.6,0-1-0.4-1-1V12h41c0.6,0,1-0.4,1-1c0-0.6-0.4-1-1-1H2V3C2,2.4,2.4,2,3,2z M6,4C5.4,4,5,4.4,5,5v2
								c0,0.6,0.4,1,1,1s1-0.4,1-1V5C7,4.4,6.6,4,6,4z M11,4c-0.6,0-1,0.4-1,1v2c0,0.6,0.4,1,1,1c0.6,0,1-0.4,1-1V5C12,4.4,11.6,4,11,4z
								 M16,4c-0.6,0-1,0.4-1,1v2c0,0.6,0.4,1,1,1c0.6,0,1-0.4,1-1V5C17,4.4,16.6,4,16,4z M21,4c-0.6,0-1,0.4-1,1v2c0,0.6,0.4,1,1,1
								c0.6,0,1-0.4,1-1V5C22,4.4,21.6,4,21,4z M26,4c-0.6,0-1,0.4-1,1v2c0,0.6,0.4,1,1,1c0.6,0,1-0.4,1-1V5C27,4.4,26.6,4,26,4z M31,4
								c-0.6,0-1,0.4-1,1v2c0,0.6,0.4,1,1,1c0.6,0,1-0.4,1-1V5C32,4.4,31.6,4,31,4z M36,4c-0.6,0-1,0.4-1,1v2c0,0.6,0.4,1,1,1s1-0.4,1-1V5
								C37,4.4,36.6,4,36,4z M41,4c-0.6,0-1,0.4-1,1v2c0,0.6,0.4,1,1,1s1-0.4,1-1V5C42,4.4,41.6,4,41,4z M46,4c-0.6,0-1,0.4-1,1v2
								c0,0.6,0.4,1,1,1s1-0.4,1-1V5C47,4.4,46.6,4,46,4z M51,4c-0.6,0-1,0.4-1,1v2c0,0.6,0.4,1,1,1s1-0.4,1-1V5C52,4.4,51.6,4,51,4z
								 M47,10c-0.6,0-1,0.4-1,1c0,0.6,0.4,1,1,1h4c0.6,0,1-0.4,1-1c0-0.6-0.4-1-1-1H47z M27,16c-0.6,0-1,0.4-1,1v15h-4v-3
								c0-0.6-0.4-1-1-1h-6c-0.6,0-1,0.4-1,1v11H9c-0.6,0-1,0.4-1,1s0.4,1,1,1h36c0.6,0,1-0.4,1-1s-0.4-1-1-1h-5V23c0-0.6-0.4-1-1-1h-5v-5
								c0-0.6-0.4-1-1-1H27z M28,18h4v22h-4V18z M34,24h4v16h-4V24z M16,30h4v10h-4V30z M22,34h4v6h-4V34z"/>
							</g>
						</svg>