<svg version="1.1" style="fill:#1970ff" xmlns="http://www.w3.org/2000/svg" xmlns:xlink="http://www.w3.org/1999/xlink" x="0px" y="0px" viewBox="0 0 63.8 58.1" xml:space="preserve">
						<g>
							<path d="M19.9,0c-5.8,0.1-11.3,2.8-15,7.3C1,12.1-0.7,18.2,0.3,24.3c0.6,3.4,1.5,5.3,2.8,7.8c0.3,0.6,0.6,1.2,0.9,1.8
								c0.4,0.9,0.6,1.9,0.5,2.9L2.4,54.7c-0.1,0.8,0.2,1.7,0.7,2.3c0.6,0.6,1.4,1,2.2,1h22c0.8,0,1.6-0.3,2.2-1c0.6-0.6,0.9-1.4,0.8-2.3
								l-0.6-8l5.3,0.7c1.2,0.1,2.4-0.3,3.3-1.1c0.9-0.8,1.4-2,1.4-3.2V33.1l3.2-1.2c0.5-0.1,0.9-0.4,1.2-0.8c0.3-0.5,0.4-1,0.2-1.6
								l-4.1-10.2c-0.1-0.2-0.1-0.4-0.1-0.7C39.9,7.4,31.6-0.3,19.9,0z M19.9,2c10.5-0.2,18,6.6,18.3,16.6c0,0.4,0.1,0.9,0.2,1.3l4,10.1
								l-3.3,1.2c-0.8,0.3-1.3,1-1.3,1.9v10.2c0,0.7-0.3,1.3-0.8,1.7c-0.5,0.4-1.1,0.6-1.8,0.6l-2.8-0.4c-0.1,0-0.1,0-0.2-0.1l-6.5-0.8
								c-0.6-0.1-1.1,0.3-1.1,0.9c-0.1,0.5,0.3,1,0.9,1.1l2.2,0.3l0.6,8.4c0,0.3-0.1,0.6-0.3,0.8c-0.2,0.2-0.4,0.3-0.7,0.3h-22
								c-0.3,0-0.6-0.1-0.7-0.3c-0.2-0.2-0.3-0.5-0.2-0.8L6.5,37c0.1-1.4-0.1-2.8-0.7-4c-0.3-0.7-0.6-1.3-0.9-1.9
								c-1.2-2.4-2.1-4.1-2.6-7.2C1.4,18.5,2.9,12.9,6.4,8.6C9.8,4.5,14.6,2.1,19.9,2z M20.8,5.4c-0.6,0-1,0.4-1,1v2.3c0,0.6,0.4,1,1,1
								c0.6,0,1-0.4,1-1V6.4C21.8,5.8,21.4,5.4,20.8,5.4z M16,6.2c-0.1,0-0.3,0-0.4,0c-0.5,0.1-0.9,0.6-0.8,1.2l0.5,2.2
								c0.1,0.5,0.5,0.8,1,0.8c0.1,0,0.1,0,0.2,0c0.5-0.1,0.9-0.6,0.8-1.2L16.8,7C16.7,6.6,16.4,6.3,16,6.2z M25.7,6.2
								C25.3,6.3,25,6.6,24.9,7l-0.5,2.2c-0.1,0.5,0.2,1.1,0.8,1.2c0.1,0,0.1,0,0.2,0c0.5,0,0.9-0.3,1-0.8l0.5-2.2
								c0.1-0.5-0.2-1.1-0.8-1.2C26,6.2,25.8,6.2,25.7,6.2z M11.1,8.7c-0.1,0-0.3,0-0.4,0.1C10.2,9,10,9.6,10.2,10.1l0.9,2
								c0.2,0.4,0.5,0.6,0.9,0.6c0.1,0,0.3,0,0.4-0.1c0.5-0.2,0.7-0.8,0.5-1.3l-0.9-2C11.8,8.9,11.5,8.7,11.1,8.7z M30.6,8.7
								c-0.4,0-0.8,0.2-0.9,0.6l-0.9,2c-0.2,0.5,0,1.1,0.5,1.3c0.1,0.1,0.3,0.1,0.4,0.1c0.4,0,0.7-0.2,0.9-0.6l0.9-2
								c0.2-0.5,0-1.1-0.5-1.3C30.9,8.7,30.8,8.7,30.6,8.7z M50.8,27.1c-0.6,0-1,0.4-1,1v22c0,0.6,0.4,1,1,1s1-0.4,1-1v-22
								C51.8,27.5,51.4,27.1,50.8,27.1z M58.8,30.1c-0.6,0-1,0.4-1,1v16c0,0.6,0.4,1,1,1s1-0.4,1-1v-16C59.8,30.5,59.4,30.1,58.8,30.1z
								 M54.8,32.1c-0.6,0-1,0.4-1,1v12c0,0.6,0.4,1,1,1s1-0.4,1-1v-12C55.8,32.5,55.4,32.1,54.8,32.1z M46.8,34.1c-0.6,0-1,0.4-1,1v8
								c0,0.6,0.4,1,1,1s1-0.4,1-1v-8C47.8,34.5,47.4,34.1,46.8,34.1z M42.8,36.1c-0.6,0-1,0.4-1,1v4c0,0.6,0.4,1,1,1s1-0.4,1-1v-4
								C43.8,36.5,43.4,36.1,42.8,36.1z M62.8,36.1c-0.6,0-1,0.4-1,1v4c0,0.6,0.4,1,1,1s1-0.4,1-1v-4C63.8,36.5,63.4,36.1,62.8,36.1z"/>
						</g>
						</svg>