<svg version="1.1" style="fill:#1970ff" xmlns="http://www.w3.org/2000/svg" xmlns:xlink="http://www.w3.org/1999/xlink" x="0px" y="0px" viewBox="0 0 52.9 63" xml:space="preserve">
						<g>
							<path d="M26.4,0c-0.7,0-1.3,0.2-1.9,0.7l-3.3,2.7c-0.2,0.2-0.5,0.3-0.8,0.2l-4.2-0.7c-1.4-0.2-2.8,0.6-3.3,1.9l-1.5,4
								c-0.1,0.3-0.3,0.5-0.6,0.6l-4,1.5c-1.3,0.5-2.1,1.9-1.9,3.3l0.7,4.2c0,0.3,0,0.6-0.2,0.8l-2.7,3.3c-0.9,1.1-0.9,2.7,0,3.8l2.7,3.3
								c0.2,0.2,0.3,0.5,0.2,0.8l-0.7,4.2c-0.2,1.4,0.6,2.8,1.9,3.3l0.7,0.3L0.1,55.1c-0.1,0.3-0.1,0.7,0.1,1c0.2,0.3,0.5,0.4,0.9,0.4
								l8.4-0.4l5.4,6.5c0.2,0.2,0.5,0.4,0.8,0.4c0,0,0.1,0,0.1,0c0.3,0,0.6-0.3,0.8-0.6l6.7-15.2l1.3,1c0.5,0.4,1.2,0.7,1.9,0.7
								s1.3-0.2,1.9-0.7l1.4-1.1l6.7,15.3c0.1,0.3,0.4,0.5,0.8,0.6c0,0,0.1,0,0.1,0c0.3,0,0.6-0.1,0.8-0.4l5.4-6.5l8.4,0.4
								c0.3,0,0.7-0.1,0.9-0.4c0.2-0.3,0.2-0.7,0.1-1l-7.5-16.9l0.7-0.3c1.3-0.5,2.1-1.9,1.9-3.3l-0.7-4.2c0-0.3,0-0.6,0.2-0.8l2.7-3.3
								c0.9-1.1,0.9-2.7,0-3.8l-2.7-3.3c-0.2-0.2-0.3-0.5-0.2-0.8l0.7-4.2c0.2-1.4-0.6-2.8-1.9-3.3l-4-1.5c-0.3-0.1-0.5-0.3-0.6-0.6
								l-1.5-4c-0.5-1.3-1.9-2.1-3.3-1.9l-4.2,0.7c-0.3,0-0.6,0-0.8-0.2l-3.3-2.7C27.7,0.2,27.1,0,26.4,0z M26.4,2c0.2,0,0.4,0.1,0.6,0.2
								l3.3,2.7c0.7,0.5,1.5,0.8,2.4,0.6L37,4.9c0.5-0.1,0.9,0.2,1.1,0.6l1.5,4c0.3,0.8,0.9,1.4,1.7,1.7l4,1.5c0.4,0.2,0.7,0.6,0.6,1.1
								l-0.7,4.2c-0.1,0.8,0.1,1.7,0.6,2.4l2.7,3.3c0.3,0.4,0.3,0.9,0,1.3l-2.7,3.3c-0.5,0.7-0.8,1.5-0.6,2.4L46,35
								c0.1,0.5-0.2,0.9-0.6,1.1l-4,1.5c-0.8,0.3-1.4,0.9-1.7,1.7l-1.5,4c-0.2,0.4-0.6,0.7-1.1,0.6l-4.2-0.7c-0.8-0.1-1.7,0.1-2.4,0.6
								L27,46.7c-0.4,0.3-0.9,0.3-1.3,0L22.4,44c-0.5-0.4-1.2-0.7-1.9-0.7c-0.2,0-0.3,0-0.5,0L15.9,44c-0.5,0.1-0.9-0.2-1.1-0.6l-1.5-4
								c-0.3-0.8-0.9-1.4-1.7-1.7l-4-1.5c-0.4-0.2-0.7-0.6-0.6-1.1l0.7-4.2c0.1-0.8-0.1-1.7-0.6-2.4l-2.7-3.3c-0.3-0.4-0.3-0.9,0-1.3
								l2.7-3.3c0.5-0.7,0.8-1.5,0.6-2.4l-0.7-4.2C6.8,13.4,7,13,7.5,12.8l4-1.5c0.8-0.3,1.4-0.9,1.7-1.7l1.5-4c0.2-0.4,0.6-0.7,1.1-0.6
								l4.2,0.7c0.8,0.1,1.7-0.1,2.4-0.6l3.3-2.7C26,2.1,26.2,2,26.4,2L26.4,2z M26.4,8.4c-8.8,0-16,7.2-16,16c0,0.7,0,1.5,0.1,2.2
								c0.1,0.5,0.5,0.9,1,0.9c0,0,0.1,0,0.1,0c0.5-0.1,0.9-0.6,0.9-1.1c-0.1-0.6-0.1-1.3-0.1-1.9c0-7.7,6.3-14,14-14c0.6,0,1-0.4,1-1
								S27,8.4,26.4,8.4z M33,10.2c-0.4,0-0.8,0.2-1,0.6c-0.2,0.5,0,1.1,0.5,1.3c0.9,0.5,1.8,1,2.6,1.7c0.2,0.1,0.4,0.2,0.6,0.2
								c0.3,0,0.6-0.1,0.8-0.4c0.3-0.4,0.3-1.1-0.1-1.4c-0.9-0.7-1.9-1.4-3-1.9C33.2,10.2,33.1,10.2,33,10.2z M39.9,16.9
								c-0.1,0-0.3,0-0.4,0.1c-0.5,0.2-0.7,0.8-0.5,1.3c0.9,1.9,1.4,3.9,1.4,6.1c0,2.7-0.8,5.4-2.3,7.7c-0.3,0.5-0.2,1.1,0.3,1.4
								c0.2,0.1,0.4,0.2,0.5,0.2c0.3,0,0.6-0.2,0.8-0.5c1.7-2.6,2.6-5.6,2.6-8.8c0-2.4-0.5-4.8-1.6-6.9C40.7,17.1,40.3,16.9,39.9,16.9z
								 M34.4,18.9c-0.3,0-0.5,0.1-0.7,0.3l-9.3,9.3l-5.3-5.3c-0.4-0.4-1-0.4-1.4,0c-0.4,0.4-0.4,1,0,1.4l6,6c0.2,0.2,0.5,0.3,0.7,0.3
								c0.3,0,0.5-0.1,0.7-0.3l10-10c0.4-0.4,0.4-1,0-1.4C34.9,19,34.7,18.9,34.4,18.9z M14.3,30.7c-0.1,0-0.3,0.1-0.4,0.1l-1.7,1
								c-0.5,0.3-0.6,0.9-0.3,1.4c0.2,0.3,0.5,0.5,0.9,0.5c0.2,0,0.4,0,0.5-0.1l1.7-1c0.5-0.3,0.6-0.9,0.3-1.4
								C15.1,30.8,14.7,30.7,14.3,30.7z M17.4,34.2c-0.3,0-0.5,0.1-0.7,0.4l-1.3,1.5c-0.4,0.4-0.3,1.1,0.1,1.4c0.2,0.2,0.4,0.2,0.6,0.2
								c0.3,0,0.6-0.1,0.8-0.4l1.3-1.5c0.4-0.4,0.3-1.1-0.1-1.4C17.9,34.3,17.7,34.2,17.4,34.2z M35,34.6c-0.3,0-0.5,0-0.7,0.2
								c-0.4,0.3-0.5,1-0.2,1.4l1.2,1.6c0.2,0.3,0.5,0.4,0.8,0.4c0.2,0,0.4-0.1,0.6-0.2c0.4-0.3,0.5-1,0.2-1.4L35.7,35
								C35.5,34.8,35.3,34.6,35,34.6z M21.5,36.6c-0.4,0-0.7,0.3-0.9,0.7l-0.7,1.9c-0.2,0.5,0.1,1.1,0.6,1.3c0.1,0,0.2,0.1,0.3,0.1
								c0.4,0,0.8-0.2,0.9-0.7l0.7-1.9c0.2-0.5-0.1-1.1-0.6-1.3C21.8,36.6,21.6,36.6,21.5,36.6z M30.8,36.8c-0.1,0-0.3,0-0.4,0
								c-0.5,0.2-0.8,0.7-0.6,1.3l0.6,1.9c0.1,0.4,0.5,0.7,1,0.7c0.1,0,0.2,0,0.3-0.1c0.5-0.2,0.8-0.7,0.6-1.3l-0.6-1.9
								C31.6,37.1,31.2,36.8,30.8,36.8z M26.1,37.4c-0.5,0-1,0.4-1,1l0,2c0,0.6,0.4,1,1,1h0c0.5,0,1-0.4,1-1l0-2
								C27.1,37.9,26.7,37.4,26.1,37.4L26.1,37.4z M43.5,38.9l6.8,15.5L43,54.1c-0.3,0-0.6,0.1-0.8,0.4l-4.7,5.6l-6.3-14.3l0.4-0.3
								c0.2-0.2,0.5-0.3,0.8-0.2l4.2,0.7c1.4,0.2,2.8-0.6,3.3-1.9l1.5-4c0.1-0.3,0.3-0.5,0.6-0.6L43.5,38.9z M9.4,39l1.4,0.5
								c0.3,0.1,0.5,0.3,0.6,0.6l1.5,4c0.5,1.3,1.9,2.1,3.3,1.9l4.2-0.7c0.3,0,0.6,0,0.8,0.2l0.5,0.4l-6.3,14.2l-4.7-5.6
								c-0.2-0.2-0.5-0.4-0.8-0.4c0,0,0,0,0,0l-7.3,0.4L9.4,39z"/>
						</g>
						</svg>