	<svg version="1.1" style="fill:#1970ff" xmlns="http://www.w3.org/2000/svg" xmlns:xlink="http://www.w3.org/1999/xlink" x="0px" y="0px" viewBox="0 0 376.932 387.082" xml:space="preserve">
						<g>
							<path d="M375.42,387.082c-8.993-2.233-17.959-4.582-26.984-6.677c-27.82-6.458-55.617-13.029-83.54-19.013
								c-4.766-1.021-10.189,0.187-15.166,1.12c-38.961,7.306-77.859,14.957-116.861,22.032c-4.942,0.896-10.437-0.589-15.572-1.537
								c-37.373-6.904-74.719-13.951-112.072-20.961c-1.345-0.253-2.674-0.593-4.492-1.001c0.701-6.273,1.358-12.486,2.095-18.69
								c3.444-29.009,6.904-58.015,10.37-87.021c1.19-9.961,2.718-19.896,3.481-29.889c0.339-4.437-0.764-9-1.335-13.49
								c-3.906-30.726-7.852-61.447-11.767-92.172C2.387,110.437,1.252,101.084,0,90.998c1.697,0.666,2.802,1.072,3.886,1.529
								c20.172,8.498,40.304,17.095,60.544,25.431c4.265,1.756,7.681,4.047,9.834,8.154c2.023,3.859,4.135,7.671,6.769,12.54
								c-22.433-9.454-43.796-18.457-65.889-27.768c2.555,20.115,5.056,39.638,7.51,59.167c2.445,19.454,4.845,38.914,7.356,59.111
								c31.179,4.81,63.265,9.759,95.886,14.791c-0.783-7.133-1.44-13.112-2.097-19.091c0.19-0.094,0.38-0.188,0.57-0.282
								c4.902,9.618,9.804,19.235,14.799,29.034c1.602-0.125,3.19-0.248,4.777-0.372c-1.246,1.753-3.275,3.377-3.589,5.284
								c-0.918,5.573-1.08,11.267-1.667,16.9c-2.638,25.308-5.329,50.611-7.983,75.917c-0.731,6.967-1.402,13.941-2.154,21.445
								c41.855-7.978,83.037-15.828,124.219-23.678c-0.026-0.215-0.051-0.429-0.077-0.644c-1.585,0-3.17,0-4.989,0
								c-3.581-36.517-7.141-72.829-10.728-109.411c-9.837,1.479-19.277,2.887-28.712,4.321c-21.41,3.252-42.818,6.517-64.227,9.777
								c1.848-3.718,3.48-7.569,5.65-11.088c0.888-1.44,2.831-2.853,4.477-3.111c26.976-4.221,53.982-8.256,80.456-12.253
								c3.976-43.457,7.926-86.627,11.936-130.462c-9.316,4.425-18.017,8.558-27.287,12.961c1.59-5.476,2.935-10.454,4.552-15.343
								c0.278-0.841,1.648-1.44,2.628-1.913c10.653-5.137,21.309-10.27,32.028-15.266c1.2-0.56,2.98-0.76,4.181-0.307
								c37.544,14.161,75.05,28.423,112.559,42.675c0.457,0.174,0.884,0.428,1.578,0.768c-1.338,10.595-2.669,21.186-4.013,31.775
								c-3.406,26.855-6.247,53.799-10.442,80.53c-2.508,15.981,0.377,31.357,2.103,46.92c2.957,26.656,6.328,53.265,9.463,79.901
								c1.103,9.369,2.022,18.759,3.026,28.14C376.428,387.082,375.924,387.082,375.42,387.082z M363.106,128.02
								c-1.379-0.596-2.501-1.133-3.66-1.573c-22.81-8.664-45.625-17.317-68.438-25.972c-9.055-3.435-18.146-6.778-27.143-10.358
								c-3.197-1.272-4.341-0.601-4.348,2.847c-0.005,2.885-0.48,5.769-0.751,8.652c-3.436,36.612-6.889,73.222-10.287,109.837
								c-0.391,4.209-0.476,8.446-0.698,12.575c34.209,4.316,67.736,8.545,101.524,12.808C353.937,200.312,358.496,164.364,363.106,128.02
								z M27.514,241.522c-4.376,36.761-8.694,73.027-13.033,109.475c34.157,6.403,67.71,12.693,101.679,19.061
								c4.007-38.426,7.952-76.264,11.798-113.138C93.905,251.7,61.001,246.656,27.514,241.522z M260.164,347.195
								c34.188,7.888,68.076,15.707,102.537,23.658c-4.877-40.934-9.68-81.251-14.472-121.468c-33.012-4.176-65.655-8.305-98.826-12.501
								C253.042,274.18,256.607,310.726,260.164,347.195z"/>
							<path d="M140.499,226.306c-7.58-14.944-14.869-29.298-22.144-43.658c-10.919-21.555-21.747-43.156-32.79-64.647
								c-3.551-6.91-8.436-13.214-11.379-20.345C56.812,55.556,85.552,6.48,130.704,0.643c43.484-5.621,80.901,26.274,81.891,70.129
								c0.367,16.251-4.735,30.96-14.496,44.03c-1.796,2.405-3.474,4.951-4.832,7.622c-16.946,33.315-33.822,66.665-50.72,100.004
								C141.981,223.545,141.379,224.643,140.499,226.306z M96.816,71.635c-0.005,24.283,19.56,43.923,43.866,44.033
								c24.445,0.111,44.232-19.586,44.232-44.03c0-24.305-19.505-43.9-43.848-44.05C116.674,27.438,96.821,47.2,96.816,71.635z"/>
						</g>
						</svg>