<svg version="1.1" style="fill:#1970ff" xmlns="http://www.w3.org/2000/svg" xmlns:xlink="http://www.w3.org/1999/xlink" x="0px" y="0px" viewBox="0 0 54.5 52.6" xml:space="preserve">
						<g>
							<path d="M27.1,0C24.6,0,21,0.3,18,1.7c-2.8,1.4-6.6,5-10,9.4c-3.7,4.7-6.2,10.3-7.3,16.2C0.3,29.5,0,31.8,0,34.1
								c0,0.1,0,0.3,0.1,0.4C4,43.7,13,50,23,50.6c0.5,0,1,0,1.5,0c3.4,0,6.8-0.7,10-1.9c0.7-0.3,1.4-0.6,2-0.9c0.6-0.3,1.4-0.2,1.7,0.3
								c0.7,1.1,1.2,2.3,1.3,3.5c0.1,0.5,0.4,0.8,0.9,0.9c0.4,0.1,0.8,0.1,1.2,0.1c5.5,0,10-4.5,10-10v-0.1c2.1-2.4,3.2-5.4,3-8.7
								c-0.3-5.5-5.6-11.3-13-11.3c-4.1,0-7.3,1.4-10.3,4.6c-2-1.9-5-3.5-7.7-3.5c-2.5,0-4.6,0.6-6.1,1.3c1.2-2.9,1.7-6.2,2-9.1
								c0.3-2.6,0.7-5,1.5-6.2h2v2c0,0.6,0.4,1,1,1h5.8c2,0,3.8-1.6,3.9-3.6l0.2-4c0.2-1.1-0.1-2.2-0.7-3.1c-0.7-0.9-1.7-1.5-2.8-1.7
								C29.8,0.1,28.7,0,27.1,0z M27.4,2c1.4,0,2.4,0.1,2.7,0.2c0.6,0.1,1.1,0.4,1.5,0.9c0.4,0.5,0.5,1.1,0.4,1.7c0,0,0,0.1,0,0.1l-0.2,4
								c-0.1,1-0.9,1.8-1.9,1.8H25v-2v-2h2.1l-0.6,1.7c-0.2,0.5,0.1,1.1,0.6,1.3c0.5,0.2,1.1-0.1,1.3-0.6l1-3c0.1-0.3,0.1-0.6-0.1-0.9
								c-0.2-0.3-0.5-0.4-0.8-0.4H24c-0.6,0-1,0.4-1,1v2h-2.5c-0.3,0-0.5,0.1-0.7,0.3c-1.5,1.5-1.9,4.4-2.3,7.7
								c-0.7,5.5-1.5,11.8-7.4,14.1c-0.5,0.2-0.8,0.8-0.6,1.3c0.2,0.5,0.8,0.8,1.3,0.6c2-0.8,3.5-2,4.7-3.4c0.2,0,0.3,0,0.5-0.1
								c1.3-0.8,3.7-2.4,7.5-2.4c2.7,0,6.2,2.4,7.7,4.6c0.1,0.1,0.2,0.3,0.3,0.5c0.1,0.1,0.1,0.3,0.2,0.4c0.2,0.3,0.5,0.5,0.9,0.5
								c0.2,0,0.3,0,0.5-0.1c0.5-0.3,0.7-0.9,0.4-1.4c0-0.1-0.1-0.2-0.1-0.3c-0.2-0.3-0.3-0.6-0.4-0.7c-0.1-0.2-0.2-0.3-0.4-0.5
								c2.7-2.8,5.5-4,9-4c6.7,0,10.8,5.6,11,9.4c0.2,2.8-0.8,5.5-2.7,7.5c-0.2,0.2-0.3,0.5-0.3,0.8c0,0.1,0,0.2,0,0.4c0,4.4-3.6,8-8,8
								c-0.1,0-0.1,0-0.2,0c-0.3-1.3-0.8-2.5-1.5-3.6c-0.9-1.3-2.8-1.8-4.3-1c-0.5,0.2-1.1,0.5-1.8,0.8c-2.9,1.2-6,1.8-9.2,1.8
								c-0.5,0-0.9,0-1.4,0C13.9,48.1,5.7,42.3,2,33.9c0-2.1,0.3-4.2,0.6-6.2c1.1-5.6,3.5-10.9,6.9-15.3c3.2-4.1,6.8-7.6,9.3-8.8
								C21.6,2.2,25,2,27.4,2L27.4,2z M43.1,16.7c-0.6-0.1-1,0.4-1.1,0.9l-0.2,2c0,0.5,0.4,1,0.9,1.1c0,0,0.1,0,0.1,0c0.5,0,1-0.4,1-0.9
								l0.2-2C44.1,17.2,43.7,16.7,43.1,16.7z M37.9,16.9c-0.5,0.1-0.9,0.6-0.8,1.2l0.3,2c0.1,0.5,0.5,0.8,1,0.8c0.1,0,0.1,0,0.2,0
								c0.5-0.1,0.9-0.6,0.8-1.2l-0.3-2C38.9,17.2,38.4,16.8,37.9,16.9z M47.9,17.8c-0.4,0-0.7,0.3-0.9,0.6l-0.7,1.9
								c-0.2,0.5,0.1,1.1,0.6,1.3c0.1,0,0.2,0.1,0.4,0.1c0.4,0,0.8-0.2,0.9-0.6l0.7-1.9c0.2-0.5-0.1-1.1-0.6-1.3
								C48.1,17.8,48,17.8,47.9,17.8z M33.2,18.4c-0.1,0-0.3,0-0.4,0.1c-0.5,0.2-0.7,0.8-0.5,1.3l0.9,1.8c0.2,0.4,0.5,0.6,0.9,0.6
								c0.1,0,0.3,0,0.4-0.1c0.5-0.2,0.7-0.8,0.5-1.3L34.2,19C34,18.6,33.6,18.4,33.2,18.4z M52.1,20.2c-0.3,0-0.5,0.2-0.7,0.4l-1.2,1.6
								c-0.3,0.4-0.2,1.1,0.2,1.4c0.2,0.1,0.4,0.2,0.6,0.2c0.3,0,0.6-0.1,0.8-0.4l1.2-1.6c0.3-0.4,0.2-1.1-0.2-1.4
								C52.7,20.2,52.4,20.1,52.1,20.2z"/>
						</g>
						</svg>