<svg version="1.1" style="fill:#1970ff" xmlns="http://www.w3.org/2000/svg" xmlns:xlink="http://www.w3.org/1999/xlink" x="0px" y="0px" viewBox="0 0 38 46" xml:space="preserve">
						<g>
							<path d="M16,0c-4.4,0-8,3.6-8,8c0,3,1.6,5.5,4,6.9v15.4l-5.2-5.2c-1.6-1.6-4.1-1.6-5.7,0c-1.6,1.6-1.6,4.1,0,5.7l11.3,11.4
								c2.4,2.4,5.7,3.8,9.2,3.8H29c5,0,9-4,9-9V24c0-2.2-1.8-4-4-4c-0.8,0-1.6,0.2-2.3,0.7c-0.5-1.6-2-2.7-3.8-2.7c-1,0-1.9,0.4-2.6,1
								c-0.7-1.2-2-2-3.4-2c-0.7,0-1.4,0.2-2,0.6v-2.7c2.4-1.4,4-4,4-6.9C24,3.6,20.4,0,16,0z M16,2c3.3,0,6,2.7,6,6c0,1.8-0.8,3.4-2,4.5
								V8c0-2.2-1.8-4-4-4s-4,1.8-4,4v4.5c-1.2-1.1-2-2.7-2-4.5C10,4.7,12.7,2,16,2z M16,6c1.1,0,2,0.9,2,2v6.2c0,0.1,0,0.2,0,0.3V23
								c0,0.3,0.1,0.6,0.4,0.8c0.2,0.2,0.6,0.3,0.9,0.2c0.1,0,0.2-0.1,0.3-0.1c0,0,0,0,0.1,0c0.1,0,0.1-0.1,0.2-0.2
								c0.2-0.2,0.3-0.4,0.3-0.7v-2c0-1.1,0.9-2,2-2c1.1,0,2,0.9,2,2v2c0,0.1,0,0.1,0,0.2c0,0.1,0,0.2,0.1,0.3c0,0.1,0.1,0.2,0.2,0.3
								c0,0,0.1,0.1,0.2,0.1c0,0,0.1,0,0.1,0.1c0.1,0,0.2,0.1,0.3,0.1c0.1,0,0.3,0,0.4,0c0.1,0,0.2-0.1,0.3-0.1c0,0,0,0,0.1,0
								c0.1,0,0.1-0.1,0.2-0.2c0.2-0.2,0.3-0.4,0.3-0.7v-1c0-1.1,0.9-2,2-2c1.1,0,2,0.9,2,2v2c0,0,0,0.1,0,0.1V25c0,0.4,0.2,0.7,0.5,0.9
								c0.3,0.2,0.7,0.2,1,0c0.3-0.2,0.5-0.5,0.5-0.9v-0.8c0-0.1,0-0.1,0-0.2c0-1.1,0.9-2,2-2c1.1,0,2,0.9,2,2v13c0,3.9-3.1,7-7,7h-7.3
								c-2.9,0-5.7-1.2-7.8-3.2L2.6,29.4c-0.8-0.8-0.8-2,0-2.8c0.8-0.8,2-0.8,2.8,0l6.7,6.7c0,0.1,0.1,0.1,0.1,0.2c0,0,0,0,0.1,0.1
								c0.1,0.1,0.3,0.2,0.5,0.2c0.1,0,0.3,0,0.4,0c0.1,0,0.1,0,0.2-0.1c0,0,0.1,0,0.1-0.1c0.3-0.2,0.5-0.5,0.5-0.8c0,0,0,0,0,0
								c0,0,0,0,0-0.1c0,0,0-0.1,0-0.1V14.4c0-0.1,0-0.2,0-0.3V8C14,6.9,14.9,6,16,6L16,6z"/>
						</g>
						</svg>