<?xml version="1.0" encoding="utf-8"?>
<!-- Generator: Adobe Illustrator 23.1.0, SVG Export Plug-In . SVG Version: 6.00 Build 0)  -->
<svg version="1.1" id="Слой_1" xmlns="http://www.w3.org/2000/svg" xmlns:xlink="http://www.w3.org/1999/xlink" x="0px" y="0px"
	 viewBox="0 0 40 40" style="enable-background:new 0 0 40 40;" xml:space="preserve">
<style type="text/css">
	.st0{fill:#DAE2EB;}
	.st1{fill:url(#SVGID_1_);}
	.st2{fill:#4A5972;}
	.st3{fill:#002330;}
	.st4{fill:#DAE2EB;filter:url(#Adobe_OpacityMaskFilter);}
	.st5{mask:url(#mask0_1_);}
	.st6{fill:url(#SVGID_2_);}
</style>
<g>
	<path class="st0" d="M20,40c11,0,20-9,20-20S31,0,20,0S0,9,0,20S9,40,20,40z"/>
	
		<linearGradient id="SVGID_1_" gradientUnits="userSpaceOnUse" x1="27.3684" y1="18.873" x2="12.3005" y2="44.5018" gradientTransform="matrix(1 0 0 -1 0 42)">
		<stop  offset="0" style="stop-color:#007FFF"/>
		<stop  offset="1" style="stop-color:#8FD4FF"/>
	</linearGradient>
	<path class="st1" d="M30.5,20.6H9.2c-2.4,0-4.3-2-4.3-4.4V4.4C4.9,2,6.8,0,9.2,0h21.3c2.4,0,4.3,2,4.3,4.4v11.8
		C34.8,18.7,32.8,20.6,30.5,20.6z"/>
	<path class="st2" d="M36.2,13.3c-1,0-1.8-0.8-1.8-1.8V9.1c0-1,0.8-1.8,1.8-1.8c1,0,1.8,0.8,1.8,1.8v2.4
		C37.9,12.5,37.2,13.3,36.2,13.3z"/>
	<path class="st2" d="M31.9,17.6h-5.5c-0.3,0-0.5-0.2-0.5-0.5c0-0.3,0.2-0.5,0.5-0.5h5.5c2.1,0,3.8-1.7,3.8-3.9
		c0-0.3,0.2-0.5,0.5-0.5s0.5,0.2,0.5,0.5C36.7,15.4,34.6,17.6,31.9,17.6z"/>
	<path class="st3" d="M19.7,15.8c-0.9,0-1.6-0.4-2-1.1c-0.1-0.2,0-0.5,0.1-0.6c0.2-0.1,0.5-0.1,0.6,0.2c0.2,0.4,0.7,0.7,1.3,0.7
		c0.5,0,1-0.3,1.2-0.6c0.1-0.2,0.4-0.3,0.6-0.2c0.2,0.1,0.3,0.4,0.1,0.6C21.3,15.4,20.5,15.8,19.7,15.8z"/>
	<path class="st3" d="M16.2,10c-0.3,0-0.6-0.3-0.6-0.6c0-1.1-0.9-2-2-2c-1.1,0-2,0.9-2,2c0,0.4-0.3,0.6-0.6,0.6
		c-0.3,0-0.6-0.3-0.6-0.6c0-1.8,1.4-3.3,3.2-3.3c1.8,0,3.2,1.5,3.2,3.3C16.8,9.7,16.6,10,16.2,10z"/>
	<path class="st3" d="M28.6,10c-0.3,0-0.6-0.3-0.6-0.6c0-1.1-0.9-2-2-2c-1.1,0-2,0.9-2,2c0,0.4-0.3,0.6-0.6,0.6
		c-0.3,0-0.6-0.3-0.6-0.6c0-1.8,1.4-3.3,3.2-3.3c1.8,0,3.2,1.5,3.2,3.3C29.2,9.7,28.9,10,28.6,10z"/>
	<defs>
		<filter id="Adobe_OpacityMaskFilter" filterUnits="userSpaceOnUse" x="2.1" y="24" width="35.5" height="18.4">
			<feColorMatrix  type="matrix" values="1 0 0 0 0  0 1 0 0 0  0 0 1 0 0  0 0 0 1 0"/>
		</filter>
	</defs>
	<mask maskUnits="userSpaceOnUse" x="2.1" y="24" width="35.5" height="18.4" id="mask0_1_">
		<path class="st4" d="M20,40c11,0,20-9,20-20S31,0,20,0S0,9,0,20S9,40,20,40z"/>
	</mask>
	<g class="st5">
		<path class="st2" d="M36.3,38.9c-0.9,0-1.7-0.3-2.3-0.8c-1-0.9-1.5-2.5-1.4-4.7c0.1-2.8-0.3-4.6-1.2-5.5c-0.9-0.9-2.1-0.9-3.6-0.9
			c0,0,0,0,0,0c-0.3,0-0.5-0.2-0.5-0.5c0-0.3,0.2-0.5,0.5-0.5c1.4,0,3.1-0.1,4.3,1.2c1.1,1.1,1.6,3.2,1.5,6.2c0,1.9,0.3,3.3,1.1,3.9
			c0.6,0.5,1.4,0.7,2.4,0.5c0.3-0.1,0.5,0.1,0.6,0.4c0,0.3-0.1,0.5-0.4,0.6C36.9,38.9,36.6,38.9,36.3,38.9z"/>
		<path class="st2" d="M3.4,38.9c-0.3,0-0.6,0-0.9-0.1c-0.3-0.1-0.4-0.3-0.4-0.6c0-0.3,0.3-0.5,0.6-0.4c1,0.2,1.8,0,2.4-0.5
			c0.8-0.7,1.1-2,1.1-3.9c-0.1-3,0.4-5.1,1.5-6.2c1.2-1.3,3-1.2,4.3-1.2c0.3,0,0.5,0.2,0.5,0.5c0,0.3-0.2,0.5-0.5,0.5
			c-1.5,0-2.8,0-3.6,0.9c-0.9,0.9-1.3,2.7-1.2,5.5c0.1,2.2-0.4,3.8-1.4,4.7C5.1,38.7,4.3,38.9,3.4,38.9z"/>
		
			<linearGradient id="SVGID_2_" gradientUnits="userSpaceOnUse" x1="28.6499" y1="7.4396" x2="8.6528" y2="12.7014" gradientTransform="matrix(1 0 0 -1 0 42)">
			<stop  offset="0" style="stop-color:#007FFF"/>
			<stop  offset="1" style="stop-color:#8FD4FF"/>
		</linearGradient>
		<path class="st6" d="M29.9,29.3l-7.2,11.6c-1.3,2-4.3,2-5.6,0L9.8,29.3C8.4,27,10,24,12.6,24h14.5C29.7,24,31.3,27,29.9,29.3z"/>
	</g>
</g>
</svg>
