<svg version="1.1"
	 xmlns="http://www.w3.org/2000/svg" xmlns:xlink="http://www.w3.org/1999/xlink" x="0px" y="0px" viewBox="0 0 55 43" xml:space="preserve">
<g>
	<path style="fill:#FFC373;" d="M24.417,11.667H0L0,3.75C0,1.687,1.687,0,3.75,0l16.917,0c2.062,0,3.75,1.687,3.75,3.75V11.667z"/>
	<path style="fill:#FFDC7E;" d="M49,4.875H6c-3.3,0-6,2.7-6,6V37c0,3.3,2.7,6,6,6h43c3.3,0,6-2.7,6-6V10.875
		C55,7.575,52.3,4.875,49,4.875z M27.5,12.25c2.807,0,5.083,2.276,5.083,5.083c0,2.807-2.276,5.083-5.083,5.083
		s-5.083-2.276-5.083-5.083C22.417,14.526,24.693,12.25,27.5,12.25z M17.333,34.104c0-5.615,4.552-10.167,10.167-10.167
		s10.167,4.552,10.167,10.167H17.333z"/>
</g>
</svg>
