<svg version="1.1"
	 xmlns="http://www.w3.org/2000/svg" xmlns:xlink="http://www.w3.org/1999/xlink" x="0px" y="0px" viewBox="0 0 48 42" xml:space="preserve">
<g>
	<path style="fill:#96F2BB;" d="M43.944,0H4.056C1.825,0,0,1.825,0,4.056v3.056h48V4.056C48,1.825,46.175,0,43.944,0z"/>
	<g>
		<path style="fill:#96F2BB;" d="M22.78,19.786c-0.396-0.244-1.009-0.365-1.839-0.365h-0.78V22.7h0.83
			c0.813,0,1.414-0.136,1.801-0.407s0.581-0.697,0.581-1.278C23.373,20.439,23.176,20.03,22.78,19.786z"/>
		<path style="fill:#96F2BB;" d="M0,9.195V37.86C0,40.137,1.825,42,4.056,42h39.888C46.175,42,48,40.137,48,37.86V9.195H0z
			 M11.91,27.473c0.852,0,1.884-0.213,3.096-0.64v2.158c-0.996,0.416-2.108,0.623-3.337,0.623c-1.765,0-3.116-0.535-4.051-1.606
			c-0.935-1.07-1.403-2.607-1.403-4.611c0-1.262,0.229-2.367,0.689-3.316c0.459-0.949,1.119-1.677,1.979-2.184
			c0.861-0.506,1.869-0.759,3.026-0.759c1.179,0,2.363,0.285,3.553,0.855l-0.83,2.092c-0.454-0.216-0.91-0.404-1.37-0.564
			s-0.91-0.241-1.353-0.241c-0.968,0-1.718,0.364-2.25,1.091c-0.531,0.728-0.797,1.742-0.797,3.042
			C8.864,26.12,9.879,27.473,11.91,27.473z M24.427,29.448l-2.897-4.656h-1.37v4.656h-2.573V17.313h3.536
			c1.649,0,2.869,0.3,3.661,0.9c0.792,0.601,1.187,1.512,1.187,2.735c0,0.714-0.196,1.349-0.589,1.905
			c-0.393,0.556-0.949,0.992-1.668,1.307c1.826,2.728,3.016,4.491,3.569,5.288H24.427z M41.784,29.448h-2.399v-5.744
			c0-0.271,0.004-0.584,0.013-0.938c0.008-0.354,0.045-1.295,0.112-2.822h-0.075l-3.129,9.504h-2.357l-2.922-9.521h-0.075
			c0.105,1.937,0.158,3.229,0.158,3.876v5.645H28.81V17.313h3.503l2.872,9.28h0.05l3.046-9.28h3.503V29.448z"/>
	</g>
</g>
</svg>
