<?xml version="1.0" encoding="utf-8"?>
<!-- Generator: Adobe Illustrator 21.0.2, SVG Export Plug-In . SVG Version: 6.00 Build 0)  -->
<svg version="1.1" id="Layer_1" xmlns="http://www.w3.org/2000/svg" xmlns:xlink="http://www.w3.org/1999/xlink" x="0px" y="0px"
	 viewBox="0 0 165 269" style="enable-background:new 0 0 165 269;" xml:space="preserve">
<style type="text/css">
	.st0{fill:#FF7C4D;}
	.st1{fill:#FFDE4A;}
	.st2{fill:#C43B72;}
	.st3{fill:#FFAA97;}
	.st4{fill:#3B2B5B;}
	.st5{fill:#7F65C1;}
	.st6{fill:#6E57B5;}
	.st7{fill:#D5EAF5;}
	.st8{fill:#AACBE8;}
	.st9{fill:#FF8A70;}
	.st10{fill:#1E5160;}
	.st11{fill:#295A6E;}
	.st12{fill:#FFE5B0;}
	.st13{fill:#FFF0D2;}
</style>
<g id="Слой_x0020_1">
	<g id="_1095001760">
		<path class="st0" d="M31,30.6c-1.5,9.6-8.5,15.8-16,15.3c-1.6-0.1-3.5-0.3-4.7-0.7C3,42.7,3.2,34.7,4.4,26.5
			c1.4-9.1,2.8-17.3,13.1-15.8c0.5,0.1,2.3,0.3,2.9,0.4C27.6,12.8,32.5,21,31,30.6z"/>
		<path class="st1" d="M27.3,30c-1.5,9.6-8.6,16.5-16,15.3C4,44.2-0.8,35.5,0.7,25.9c1.5-9.6,8.6-16.5,16-15.3
			C24,11.7,28.8,20.4,27.3,30z"/>
		<path class="st2" d="M91.5,98c0,0-11.6-8.8-4.9-18.4c2.9-4.1,5-2.7,5-2.7s2-11.4,15.3-12.6c19.6-1.9,19.3,17.8,19.3,17.8
			s7.5-2.1,9.2,5.1c0.4,1.8,0.4,4.8-2.3,7.4c0,0,12.1-1.5,17.2,5.5c8.8,12,7.1,26.6-10.5,35.2c-23,11.2-35.4-15.6-35.4-15.6
			S91.5,98,91.5,98z"/>
		<path class="st3" d="M84.8,126.1c0,0.3-9.1,11.6-10.8,20.4c-5.2,26.3,2.2,94.5,4,108.5c0.2,1.9,1,0.4,1.4-2
			c1.9-14.6,20.1-94.1,20.1-94.1l55.6,98.3l1.4,0.1c0,0-12.5-43-19.7-65.9c-4.8-15.2-10.8-41.4-27.2-61
			C105.2,129.4,91.4,125.6,84.8,126.1L84.8,126.1z"/>
		<path class="st4" d="M69.4,259.6c0-0.7,3.1-2.1,5.2-2.8c-0.6,0.4-1.2,1-0.2,1.3c1.5,0.4,4.6-0.2,5.5-1.3c0.4,0.8,0.5,1.9,0.5,2.6
			C80.4,260.4,69.5,261.5,69.4,259.6L69.4,259.6z"/>
		<path class="st3" d="M74.3,258c-1-0.3-0.4-0.9,0.2-1.3c1.3-0.5,2.4-0.8,2.6-0.9c0.6-0.3,0.8-0.9,0.8-0.9l0.7-0.2
			c0,0,1.1,1.7,1.2,1.9C78.9,257.8,75.8,258.4,74.3,258L74.3,258z"/>
		<path class="st4" d="M164.6,260.5c0.1-1-3.2-2-5.3-2.6c0.6,0.4,1.3,1,0.3,1.3c-1.4,0.4-4.6,0-5.6-1c-0.3,0.8-0.4,1.9-0.4,2.6
			C153.7,261.8,164.5,262.4,164.6,260.5L164.6,260.5z"/>
		<path class="st3" d="M159.6,259.2c1-0.3,0.4-0.9-0.3-1.3c-1.3-0.4-2.4-0.7-2.6-0.8c-0.6-0.3-0.8-0.9-0.8-0.9l-0.7-0.1
			c0,0-1.1,1.8-1.1,2C155,259.2,158.2,259.6,159.6,259.2L159.6,259.2z"/>
		<path class="st5" d="M86.3,124c0,0-8,9.9-11.3,16.5c-5.6,11.1-3.7,25.7-2.6,46.3c0,0,18.3,14.3,52.9,5.5c0,0,9.9-3.4,11.1-5.2
			c0,0-9.7-45.2-26.1-58.8C93.9,114.7,86.3,124,86.3,124z"/>
		<path class="st6" d="M99.6,195.1c0,0,0.9,0,1.4,0.1c6.9,0.2,15-0.5,24.2-2.8c0,0,9.9-3.4,11.1-5.2c0,0-9.7-45.2-26.1-58.8
			c-2.8-2.3-5.3-3.9-7.5-5.1c-0.6-0.3-12.2,2.8-12.2,2.8s14.2,9.4,13.7,38.1C103.9,176.8,99.6,195.1,99.6,195.1z"/>
		<path class="st7" d="M85.9,92.5c3.4-2.3,12.9-4.1,29.1,1c1.6,0.5,3.1,1.2,4.7,2.3c-1.6,5.5-0.2,13.3-0.2,13.3
			c-4.6,7.7-8,18.8-8.1,20.6c-5.7,1.5-24.2-1.7-26.7-3.5c0-0.1-2.3-6.3-2.5-17.4C82.1,99.6,85.9,92.5,85.9,92.5z"/>
		<path class="st8" d="M112,92.6c1.6,0.5,5.7,1.5,7.7,3.2c-1.6,5.5-0.2,13.3-0.2,13.3c-4.6,7.7-7.2,19.2-7.4,21
			c-4.6,1.1-18.6-1.5-18.6-1.5s11-6.5,15.2-16.1C113.1,102.6,111.5,92.4,112,92.6z"/>
		<path class="st7" d="M88.7,98.4c0,0,0.2,2.2-9,10.4c-1.7,1.5-4.5,4.9-9,7.3c-3.2,1.7-4.4-5.7-4.4-5.7s13.4-11.8,16.6-15.2
			c1.5-1.5,3.3-2.8,3.3-2.8L88.7,98.4z"/>
		<path class="st3" d="M100.8,84.5c0,0,1.5,6,1.2,6.8c-0.3,0.7-1.4,1.8-2.4,0.3c-0.9-1.5-0.8-6.9-0.8-6.9S100.8,84.5,100.8,84.5z"/>
		<path class="st9" d="M101.7,88.9c-0.7,0.6-1.7,1-2.7,0.5c-0.2-1.1-0.2-2.4-0.2-3.3l1.9-1.8C100.9,85.2,101.5,87.9,101.7,88.9z"/>
		<path class="st3" d="M93.9,82.3c-0.1-0.7,0.6-3,1.3-5c0.5-1.6,2.3-2.5,3.9-1.9c2.4,0.9,5.1,2,5.6,2.7c0.9,1.1,0.4,2.8,0.1,4.1
			c-0.3,1.3-1.4,3.4-2.5,4.2c-1,0.8-3.2,1-4.3,0.7C94.6,86.1,93.9,84.9,93.9,82.3z"/>
		<path class="st3" d="M143,164.3c0.2-0.2,4.1,0.2,5.4,1.2c1,0.7,3,3.5,2.8,4.1c-0.3,0.5-0.8,0-0.8,0s0.3,0.7-0.2,0.8
			c-0.3,0.1-1.4-1.2-2.4-1.8c-0.6-0.4-1.5-0.5-1.8-0.9c0,0,0.7,1.3,0.3,1.5c-0.4,0.2-2.2-1.9-2.5-2.7
			C143.5,165.9,142.6,164.7,143,164.3L143,164.3z"/>
		<path class="st8" d="M125.6,129.7c0,0-5.1-18.1-7.1-21.7c-3.9-7.1-5.4-5.9-5.4-5.9l0.2-8.1c0,0,6.3,0.2,9,3.8
			c5,6.7,12.2,37.5,12.9,38.6C135.3,136.4,125.6,129.7,125.6,129.7z"/>
		<path class="st8" d="M137.7,140c2.7,4.2,9.3,17.8,9.3,17.8c2.9,8.2-6.5,9.8-9.8,6.6c-6.3-6-12.1-23.8-11.9-36.1
			c0.1-4.8,5.4-4.8,8.1,1.2C135.4,134.3,136.3,137.9,137.7,140z"/>
		<path class="st7" d="M79.7,89.9c0.5,0.3,0.8,1,0.6,1.6c-1.2,4.4-3,16.1-3.5,18.4c-0.5,2.2-7.5,9.1-9.6,5c-0.8-1.6-0.9-5.7-0.7-8.3
			C67.1,97.2,69.7,83.4,79.7,89.9z"/>
		<path class="st10" d="M75.3,88.8L75.3,88.8c0.8,0.4,1.8,0,2.2-0.8l3.7-8.3l-3-1.4l-3.7,8.3C74.1,87.5,74.5,88.4,75.3,88.8z"/>
		<path class="st0" d="M81.3,68.2c0,0-11.4-11.4-14.2-25.9L45.9,73.2c0,0,17.1-3.4,30.7,3.5C76.6,76.7,81.3,68.2,81.3,68.2z"/>
		<path class="st11" d="M75.2,77l7.9,3.5c0.7,0.3,1.6,0.1,2-0.6l3.8-6.3c0.4-0.7,0.2-1.6-0.5-2.1l-7.3-5c-0.7-0.5-1.8-0.3-2.2,0.5
			l-4.4,7.7C74,75.6,74.3,76.6,75.2,77z"/>
		<path class="st12" d="M51.5,55.4C46,63.7,43.2,71.6,45.4,73c2.1,1.4,8.3-4.2,13.8-12.6c5.5-8.3,9.6-17.9,7.5-19.3
			C64.5,39.7,57,47,51.5,55.4z"/>
		<polygon class="st10" points="63.3,58.4 59.6,54.7 54.1,62 58.9,64.6 		"/>
		<path class="st11" d="M55.8,57.5c-1.5,2.1-2.2,4.1-1.6,4.5c0.6,0.4,2.2-0.9,3.7-3c1.5-2.1,2.2-4.1,1.6-4.5
			C58.9,54.1,57.2,55.5,55.8,57.5z"/>
		<path class="st0" d="M63.9,52.4c0,0-4.6,9.1-8.5,13.3c-3.9,4.2,7,3.4,7.1,3.2C62.6,68.7,66,56.4,63.9,52.4z"/>
		<path class="st3" d="M76.5,81.5c0.2-0.4,0.6-0.7,1-0.7c0.9,0,2.3,0.3,1.4,1.8c-1,1.6-2.8,2.1-3.5,2.2l-0.2-0.3
			C75.1,84.5,76.5,81.5,76.5,81.5z"/>
		<path class="st3" d="M78.8,85c0,0-0.1-2.9,0.6-2.3c0.4,0.3,0.1,1.6,0.1,1.6s0.1,1.6,0.1,2.1c0,0.5-1.2,2.7-1.2,2.7L77,88.6
			l0.5-0.7C77.9,87.3,78.8,85,78.8,85z"/>
		<path class="st13" d="M17,18.3c1.2,0.1,2.1,0.3,2.8,0.5c0.7,0.2,1.2,0.5,1.6,0.7c0.3,0.2,0.6,0.4,0.8,0.7c0.3,0.3,0.5,0.6,0.7,1
			c0.2,0.4,0.4,0.8,0.5,1.3c0.1,0.5,0.1,1.1,0.1,1.7c-0.1,0.6-0.2,1.1-0.3,1.6c-0.2,0.5-0.4,0.9-0.6,1.3c-0.2,0.4-0.5,0.7-0.8,0.9
			c-0.3,0.3-0.5,0.5-0.8,0.6c-0.5,0.4-1,0.6-1.6,0.8c-0.6,0.2-1.1,0.3-1.6,0.4C17.3,30,16.8,30,16.3,30c-0.5,0-1,0-1.4-0.1l-1.6-0.1
			l-0.2,1.8l9.2,0.8l-0.1,1.2L13,32.8l-0.4,4.8l3.2,0.8l-0.1,1.1l-9-0.8l0.1-1.1l3-0.3l0.4-4.8l-2.9-0.3l0.1-1.2l2.9,0.3l0.2-1.8
			l-2.9-0.3l0.1-1.2l2.9,0.3l0.8-8.9l-2.9-0.8l0.1-1.1C8.6,17.5,17,18.3,17,18.3z M14.9,28.7c0.2,0,0.5,0,0.9,0.1
			c0.3,0,0.7,0,1.1-0.1c0.4-0.1,0.8-0.2,1.2-0.3c0.4-0.1,0.7-0.4,1.1-0.6c0.2-0.2,0.4-0.5,0.7-1c0.3-0.5,0.5-1.2,0.6-2.1
			c0.1-1,0-1.9-0.3-2.5c-0.3-0.6-0.6-1.1-1-1.5c-0.4-0.4-1-0.7-1.6-1c-0.6-0.2-1.4-0.4-2.2-0.5l-1-0.1l-0.9,9.4
			C13.4,28.6,14.9,28.7,14.9,28.7z"/>
	</g>
</g>
</svg>
