<svg version="1.1"
	 xmlns="http://www.w3.org/2000/svg" xmlns:xlink="http://www.w3.org/1999/xlink" x="0px" y="0px" viewBox="0 0 48 42" xml:space="preserve">
<path style="fill:#51CCFF;" d="M43.944,0H4.056C1.825,0,0,1.825,0,4.056v3.056h48V4.056C48,1.825,46.175,0,43.944,0z M4.25,4.656
	c-0.607,0-1.1-0.492-1.1-1.1s0.492-1.1,1.1-1.1s1.1,0.492,1.1,1.1S4.857,4.656,4.25,4.656z M7.859,4.656c-0.607,0-1.1-0.492-1.1-1.1
	s0.492-1.1,1.1-1.1s1.1,0.492,1.1,1.1S8.467,4.656,7.859,4.656z M11.469,4.656c-0.607,0-1.1-0.492-1.1-1.1s0.492-1.1,1.1-1.1
	s1.1,0.492,1.1,1.1S12.076,4.656,11.469,4.656z"/>
<path style="fill:#51CCFF;" d="M0,9.195V37.86C0,40.137,1.825,42,4.056,42h39.888C46.175,42,48,40.137,48,37.86V9.195H0z
	 M24.114,31.875c0,0.619-0.506,1.125-1.125,1.125H10.073c-0.619,0-1.125-0.506-1.125-1.125v-0.638c0-0.619,0.506-1.125,1.125-1.125
	h12.917c0.619,0,1.125,0.506,1.125,1.125V31.875z M24.114,19.875c0,0.619-0.506,1.125-1.125,1.125H10.073
	c-0.619,0-1.125-0.506-1.125-1.125v-0.638c0-0.619,0.506-1.125,1.125-1.125h12.917c0.619,0,1.125,0.506,1.125,1.125V19.875z
	 M29.048,18.958c0.438-0.438,1.154-0.438,1.591,0l2.616,2.616l3.345-5.325c0.329-0.524,1.027-0.683,1.551-0.354
	s0.683,1.027,0.354,1.551l-4.094,6.518c-0.036,0.056-0.291,0.446-0.795,0.518c-0.547,0.078-0.92-0.285-0.961-0.326l-3.607-3.607
	C28.611,20.112,28.611,19.396,29.048,18.958z M38.881,28.893l-4.094,6.518c-0.036,0.056-0.291,0.446-0.795,0.518
	c-0.547,0.078-0.92-0.285-0.961-0.326l-3.607-3.607c-0.438-0.438-0.438-1.153,0-1.591c0.438-0.438,1.154-0.438,1.591,0l2.616,2.616
	l3.345-5.325c0.329-0.524,1.027-0.683,1.551-0.354S39.21,28.369,38.881,28.893z"/>
</svg>
