<?xml version="1.0" encoding="utf-8"?>
<!-- Generator: Adobe Illustrator 21.0.2, SVG Export Plug-In . SVG Version: 6.00 Build 0)  -->
<svg version="1.1" id="Layer_1" xmlns="http://www.w3.org/2000/svg" xmlns:xlink="http://www.w3.org/1999/xlink" x="0px" y="0px"
	 viewBox="0 0 1366 768" style="enable-background:new 0 0 1366 768;" xml:space="preserve">
<style type="text/css">
	.st0{fill:#FFD87D;}
	.st1{fill:#FFC277;}
</style>
<path class="st0" d="M356.6,261.4h-33.7c-2.2,0-4,1.8-4,4v33.7c0,2.2,1.8,4,4,4h0.2v0h33.8c2.1-0.2,3.7-1.9,3.7-4v-33.7
	C360.6,263.2,358.8,261.4,356.6,261.4z"/>
<path class="st1" d="M332.6,282.7L332.6,282.7c-0.1-5.8-4.6-8.6-7.5-5c-2.5,3.1-4.8,2.2-6.1,1.2v-13c0-2.2-1.8-4-4-4h-33.7
	c-2.2,0-4,1.8-4,4v33.7c0,2.2,1.8,4,4,4H315c2.2,0,4-1.8,4-4v-13c1.3-0.9,3.6-1.8,6.1,1.2c2.9,3.6,7.4,0.7,7.5-5h0
	C332.6,282.9,332.6,282.9,332.6,282.7C332.6,282.8,332.6,282.8,332.6,282.7z"/>
<path class="st0" d="M312.8,319.1c2.5,3.1,4.9,2.1,6.1,1.2v-12.9c0-2.2-1.8-4-4-4h-13c-0.9-1.3-1.8-3.6,1.3-6.1
	c3.6-2.9,0.7-7.4-5-7.5v0c0,0-0.1,0-0.1,0c0,0-0.1,0-0.1,0v0c-5.8,0.1-8.6,4.6-5,7.5c3,2.5,2.2,4.8,1.3,6.1h-13c-2.2,0-4,1.8-4,4
	v33.7c0,2.2,1.8,4,4,4H315c2.2,0,4-1.8,4-4v-12.9c-1.3-0.9-3.6-1.9-6.1,1.2c-2.9,3.6-7.4,0.7-7.5-5h0c0,0,0-0.1,0-0.1
	c0,0,0-0.1,0-0.1h0C305.4,318.4,310,315.6,312.8,319.1z"/>
	<circle class="st1" cx="339.8" cy="319.9" r="5.4"/>
	<path class="st1" d="M351.8,336.7c-1.5-5.3-6.3-9.1-12-9.1c-5.7,0-10.6,3.9-12,9.1H351.8z"/>
</svg>
