<?xml version="1.0" encoding="utf-8"?>
<!-- Generator: Adobe Illustrator 21.0.2, SVG Export Plug-In . SVG Version: 6.00 Build 0)  -->
<svg version="1.1" id="Layer_1" xmlns="http://www.w3.org/2000/svg" xmlns:xlink="http://www.w3.org/1999/xlink" x="0px" y="0px"
	 viewBox="0 0 102.8 229.3" style="enable-background:new 0 0 102.8 229.3;" xml:space="preserve">
<style type="text/css">
	.st0{fill:#7F65C1;}
	.st1{fill:#FFAA97;}
	.st2{fill:#30193B;}
	.st3{fill:#3B2B5B;}
	.st4{fill:#AACBE8;}
	.st5{fill:#C95D77;}
	.st6{fill:#6E57B5;}
	.st7{fill:#D5EAF5;}
</style>
<g>
	<path class="st0" d="M23.7,59.7c0,0,6.3-13.3,8.7-17.5c1-1.8,2.4-4.1,6.1-7.5c2.2-2,3.4-2.4,9.1-4c-0.1,5.7-10.6,32.4-15.5,34.1
		C29.1,68.8,23.7,59.7,23.7,59.7z"/>
	<path class="st1" d="M10.1,62.7c-0.2,0.3-3.8,0.2-5.2-0.5c-1-0.5-3.4-2.8-3.2-3.3c0.1-0.5,0.7-0.1,0.7-0.1S2,58.2,2.5,58
		C2.8,57.9,4,58.9,5,59.3c0.6,0.3,1.5,0.2,1.8,0.5c0,0-0.9-1.1-0.5-1.3c0.4-0.2,2.3,1.3,2.7,2c0.1,0.2,2,1.6,2.2,1.9
		C11.6,62.8,10.3,62.4,10.1,62.7z"/>
	<path class="st1" d="M8.7,43.5c-0.2,0.3-3.8,0.2-5.2-0.5c-1-0.5-3.4-2.8-3.2-3.3c0.1-0.5,0.7-0.1,0.7-0.1S0.7,39,1.1,38.8
		c0.3-0.1,1.5,0.9,2.5,1.3c0.6,0.3,1.5,0.2,1.8,0.5c0,0-0.9-1.1-0.5-1.3c0.4-0.2,2.3,1.3,2.7,2c0.1,0.2,2,1.6,2.2,1.9
		C10.2,43.6,8.9,43.2,8.7,43.5z"/>
	<path class="st2" d="M42.1,222.1c-1.8,0.8-6.5,4.9-6.1,6.2c1.1,3,10.5-1.5,10.5-2.7c0-0.9-0.1-2.3-0.4-3.3l-0.1,0.2l-0.2,0.2
		l-0.5,0.4l-0.1,0.1c-1.5,1.2-4.1,2.4-5.1,1.9c-0.9-0.4,1.1-2.3,1.6-2.8L42.1,222.1L42.1,222.1z"/>
	<g>
		<path class="st1" d="M41.9,222.3c-0.5,0.5-2.5,2.5-1.6,2.8c1,0.4,3.6-0.8,5.1-1.9c-1.1,0.8-2.7,1.2-3.6,0.8
			c-0.9-0.4-0.1-1.4,0.4-1.9l0,0L41.9,222.3z"/>
		<path class="st1" d="M42.1,222.1c-0.5,0.5-1.3,1.5-0.4,1.9c0.9,0.4,2.5,0,3.6-0.8l0.1-0.1l0.5-0.4l0.2-0.2l0.1-0.2
			c-0.1-0.3-0.2-0.5-0.3-0.8c-0.2-0.4-0.3-0.7-0.4-1c-0.4,0.1-0.8,0.1-1.2,0.1l-0.4,0.4C43.7,221.2,43.3,221.2,42.1,222.1z"/>
	</g>
	<path class="st2" d="M96.5,221.8l0.2,0.2c0.6,0.5,2.5,2.4,1.7,2.8c-1,0.5-3.6-0.6-5.1-1.8l-0.1-0.1l-0.5-0.4l-0.2-0.2l-0.1-0.2
		c-1.1,1.9-0.7,1.8,0.1,3c1.2,2,9.2,5.8,10.3,2.7C103.1,226.5,98.3,222.5,96.5,221.8L96.5,221.8z"/>
	<g>
		<path class="st1" d="M96.5,221.8L96.5,221.8c0.5,0.5,1.3,1.5,0.5,1.9c-0.9,0.4-2.5,0.1-3.7-0.7c1.5,1.1,4.1,2.2,5.1,1.8
			c0.8-0.4-1.1-2.3-1.7-2.8L96.5,221.8z"/>
		<path class="st1" d="M94.6,220.8l-0.4-0.4c-0.4,0-0.8-0.1-1.2-0.1c0,0.3-0.1,0.6-0.3,1c-0.1,0.2-0.2,0.5-0.3,0.8l0.1,0.2l0.2,0.2
			l0.5,0.4l0.1,0.1c1.1,0.8,2.7,1.1,3.7,0.7c0.8-0.4,0.1-1.4-0.5-1.9C95.2,221,94.8,220.9,94.6,220.8z"/>
	</g>
	<path class="st2" d="M76.6,70.6c0.1,0.4,8.3,8.6,12.6,18.5c6.7,15.3,9.2,114.1,7.9,131c0.1,1-5.4,1.2-5.5,0.3
		C89.7,202.8,63.9,109,63.9,109L46.8,221.2l-5.6,0.3c0,0-1.7-144,0.7-148.4C47.2,71.8,68.4,70.5,76.6,70.6L76.6,70.6z"/>
	<path class="st3" d="M42.4,73c2.2-0.6,5.2-0.8,11.9-1h-2.3l11.9,37c0,0-8.1,61.8-17.1,112.2l-5.6,0.3
		C41.2,221.4,28.1,121.5,42.4,73L42.4,73z"/>
	<path class="st4" d="M38.2,35.5c2.8-3.9,18.7-7.8,28.9-6.9c2.5,0.2,8.6,3.7,9.9,5.4c4.4,5.5,2.9,17,3.1,21.6
		c0.2,6-1.5,13.8-0.6,19.9c1.4,9.2-35.1,2.5-36-0.7c-1.8-6.3-2.5-11.1-3.3-20.5C39.3,43.3,38.2,35.5,38.2,35.5L38.2,35.5z"/>
	<path class="st1" d="M54.6,21.7c0,0,2.2,7.3,1.6,8.2c-0.7,0.9-3.4,2.2-5.1,0.5c-1.8-1.7-0.7-8.3-0.7-8.3L54.6,21.7z"/>
	<path class="st5" d="M56,27c-1.6,0.8-3.9,1.3-5.9,0.7c-0.2-1.4-0.1-2.9,0-4l4.4-2.5C54.7,22.3,55.7,25.8,56,27z"/>
	<path class="st1" d="M46.1,20c-0.1-1,0.9-3.7,1.6-5c0.3-0.5,1.2-2.1,1.8-2.2c3.1-0.9,7.5,3.2,8.2,4.2c0.8,1.3,0.2,2.9-0.3,4.2
		c-0.5,1.3-3.9,7.2-7.8,5.3C45.2,24.5,45.8,22.7,46.1,20L46.1,20z"/>
	<path class="st6" d="M76.6,36.6c0.8,3.1-1.1,6.3-3.2,10.1C69.1,54.4,58.7,63.3,55.6,66c-5.8,5.1-11.3-2.9-11.3-2.9
		s9.4-10.7,15.3-19.7c1.4-2.2,8.1-10.2,10.1-11.6C72.5,29.9,76,33.9,76.6,36.6z"/>
	<path class="st7" d="M38.2,35.5c1.3-1.8,5.2-3.5,10.3-4.9c0.3-0.1,1.3-0.3,1.3-0.3s-3.3,12.4-1.1,23.9c2.5,13.5,5.5,24.3,5.5,24.3
		s-0.4,0-0.7,0c-5.7-1.1-9.6-2.6-9.9-3.6c-1.8-6.3-2.5-11.1-3.3-20.5C39.3,43.3,38.2,35.5,38.2,35.5L38.2,35.5z"/>
	<path class="st0" d="M16.9,41.5c3.7,3,17.8,17.5,17.8,17.5s-1.4,8.9-6.5,6.7c-5.6-2.5-5-3.2-12.3-8.6c-3.7-2.7-8.7-6.3-9-10.8
		C6.8,41.8,11.5,37,16.9,41.5L16.9,41.5z"/>
	<path class="st6" d="M56.7,28.6c0,0-2.3,39.8,3.3,50.8c0,0,9.3,23,14.1,24.4c4.8,1.3,18.2-3.5,18.2-3.5s1.5-9.9-12.8-27.3
		c0,0,4-28.7-0.7-37.2c-1.9-3.5-7.2-6.7-11.6-7.2C62.3,28.1,56.7,28.6,56.7,28.6L56.7,28.6z"/>
	<path class="st0" d="M48.6,30.6c0,0-4.3,12.3-3.1,29.2c1.2,16.9,2,17.2,2,17.2s-6,21.5-8.2,23.8c-2.2,2.3-10-4.6-10-4.6
		s9-20.9,9.4-20.7l1.5-20.4l-2.7-19.3C37.6,35.9,39.1,32.6,48.6,30.6L48.6,30.6z"/>
	<path class="st6" d="M13.1,67.3c5,4.7,46.6,2.8,42.5-3.3c-2.1-3.2-0.4-6.7-0.4-6.7l-39.9,0.1C15.4,57.3,4.3,59,13.1,67.3z"/>
	<path class="st3" d="M44.4,22.2c0.8-2,2.2-4.6,2.1-4c-0.4,2.3-0.8,5.4,2.4,6.7c2.9,1.2,5.2,1,7-1.4c0.9-1.9,1.3-2.9,1.8-5
		c0.1-0.7-0.3-2.4-1.6-2.6c-3-0.6-5.4-1.2-7.9-3.1C46.7,11.6,46,9.3,46,7.5c-0.3-2.1,0.5-4.8,2.4-6.7c0.5-0.6,1.5-0.4,1.2,0.4
		c-1.9,4.3,5.2,3.6,7,3.2c1-0.3,1.9-0.8,3-0.7c1.3,0.1,2.4,1,3.2,2c1.8,2.2,2.3,5.4,0.3,7.7c0.8,0.4,1.2,1.3,0.8,3
		c-0.8,2.8-3,5.6-5.5,7.2c-0.1,1-0.1,2.3-0.4,3.4c-0.1,0.8-0.4,1.6-0.8,1.9c-1.3,1.2-5.2,1.6-6.9,1.6c-1.6-0.1-4.9-0.6-5.8-2.2
		C43.4,26.5,43.4,24.5,44.4,22.2L44.4,22.2z"/>
</g>
</svg>
