<?xml version="1.0" encoding="utf-8"?>
<!-- Generator: Adobe Illustrator 21.0.2, SVG Export Plug-In . SVG Version: 6.00 Build 0)  -->
<svg version="1.1" xmlns="http://www.w3.org/2000/svg" xmlns:xlink="http://www.w3.org/1999/xlink" x="0px" y="0px"
	 viewBox="0 0 173 226" style="enable-background:new 0 0 173 226;" xml:space="preserve">
<style type="text/css">
	.st0{fill:#FFDE00;}
	.st1{fill:#30193B;}
	.st2{fill:#FFAA97;}
	.st3{fill:#7F65C1;}
	.st4{fill:#6E57B5;}
	.st5{fill:#AACBE8;}
	.st6{fill:#C95D77;}
	.st7{fill:#91C1E5;}
	.st8{fill:#FF7C4D;}
	.st9{fill:#295A6E;}
	.st10{fill:#FF97A6;}
	.st11{fill:#1E5160;}
	.st12{fill:#FF8A70;}
</style>
<g id="_1029237632">
	<path class="st0" d="M67.6,48.6c0,0,13.5,2.9,14.7-1c1.6-5.4-3.7-8.1-3.7-8.1s4-12,0.8-17.8c-1.8-3.3-7.5-7.3-10.2-4.5
		c0,0-3.9-6.2-9.4-4.3c-5.5,1.9-5.9,9.4-5.9,9.4s-7.3-2.8-5.6,4.5c0,0-16.4-5.1-23.9,7.5c-7.5,12.6,4.1,23.1,9,26.4
		C38.2,64,67.6,48.6,67.6,48.6L67.6,48.6z"/>
	<path class="st1" d="M5.8,218.3c-1.8,0.8-6.3,4.7-5.8,6c1.1,2.9,10.1-1.4,10.1-2.6c0-0.9-0.1-2.2-0.4-3.2l-0.1,0.2l-0.2,0.2
		L9,219.3l-0.1,0.1c-1.4,1.1-3.9,2.3-4.8,1.8c-0.8-0.4,1-2.2,1.5-2.7C5.6,218.5,5.8,218.3,5.8,218.3z"/>
	<path class="st2" d="M5.6,218.5c-0.5,0.5-2.4,2.4-1.5,2.7c0.9,0.4,3.4-0.7,4.8-1.8c-1.1,0.8-2.6,1.2-3.5,0.8
		c-0.8-0.4-0.1-1.3,0.4-1.8l0,0L5.6,218.5z"/>
	<path class="st2" d="M5.9,218.3c-0.5,0.5-1.2,1.5-0.4,1.8c0.9,0.4,2.4,0,3.5-0.8l0.1-0.1l0.4-0.4l0.2-0.2l0.1-0.2
		c-0.1-0.3-0.2-0.5-0.3-0.7c-0.2-0.3-0.3-0.7-0.3-1c-0.4,0.1-0.8,0.1-1.2,0.1l-0.4,0.4C7.4,217.4,7,217.5,5.9,218.3z"/>
	<path class="st1" d="M72.4,218.3c1.8,0.8,6.3,4.7,5.8,6c-1.1,2.9-10.1-1.4-10.1-2.6c0-0.9,0.1-2.2,0.4-3.2l0.1,0.2l0.2,0.2l0.4,0.4
		l0.1,0.1c1.4,1.1,3.9,2.3,4.8,1.8c0.8-0.4-1-2.2-1.5-2.7C72.6,218.5,72.4,218.3,72.4,218.3z"/>
	<path class="st2" d="M72.6,218.5c0.5,0.5,2.4,2.4,1.5,2.7c-0.9,0.4-3.4-0.7-4.8-1.8c1.1,0.8,2.6,1.2,3.5,0.8
		c0.8-0.4,0.1-1.3-0.4-1.8l0,0L72.6,218.5L72.6,218.5z"/>
	<path class="st2" d="M72.4,218.3c0.5,0.5,1.2,1.5,0.4,1.8c-0.9,0.4-2.4,0-3.5-0.8l-0.1-0.1l-0.4-0.4l-0.2-0.2l-0.1-0.2
		c0.1-0.3,0.2-0.5,0.3-0.7c0.2-0.3,0.3-0.7,0.3-1c0.4,0.1,0.8,0.1,1.2,0.1l0.4,0.4C70.9,217.4,71.2,217.5,72.4,218.3L72.4,218.3z"/>
	<path class="st3" d="M61.1,87.3c-1-7-4-12.5-6.8-16.3h0c-2.2,1.5-5.6,1.7-9.3,1.2C39.5,71.4,33.2,69,29,67
		c-2.7-1.3-4.5-2.4-4.7-2.7c-2.7,1.6-9,6-14.1,16.1C3,94.8,7.3,201.1,6.8,217c0.1,0.4,4.3,0,4.3,0L35,97.1l32.4,116.2
		c0.1,0.4,0.4,0.8,0.8,0.9l0.1,0l1.3,0.2c0.3,0,0.6,0.1,0.8,0.1c0.7,0.1,1.3-0.4,1.3-1.1C72.1,194.1,63.2,102.5,61.1,87.3L61.1,87.3
		z"/>
	<path class="st2" d="M13.6,71.3c0,0,3.4-3.2,4.7-2.4c1.3,0.9,3.5,2.2,3.3,2.9c-0.2,0.7-1.8-0.4-1.8-0.4s0.6,1.6,0.6,1.9
		c0,0.3-0.9,0-0.9,0s0.2,0.4-0.2,0.9c-0.4,0.4-1-0.9-1.7-1.2c-0.7-0.3-3.1,0.8-4.5,0.3C12.6,73.2,12.6,72.2,13.6,71.3L13.6,71.3z"/>
	<path class="st4" d="M61.1,87.3c-1-7-4-12.5-6.8-16.3h0c-2.2,1.5-5.6,1.7-9.3,1.2c-5.6-0.8-5.7-0.7-9.9-2.6
		C32.4,68.3,7.9,217.2,8.9,217.1c1.1-0.1,2.2-0.2,2.2-0.2L35,97.1l32.7,119.9c0,0,3.9,0.1,4.1,0C72.2,197.7,63.2,102.5,61.1,87.3
		L61.1,87.3z"/>
	<path class="st5" d="M69.7,42.5c-2-0.8-4.1-1.9-6.3-2.8c-0.4,0.5-0.8,0.9-1.1,1.2c-1.9,1.3-2.5-0.6-2.3-1.6c0-0.2,0.2-0.5,0.4-0.8
		c-3-1.1-6.1-2.1-9.5-2.3c-2.6-0.2-6.6-1.7-9.2,2c-5.7,8.1-16.2,24-17.3,26.3c0.1,0.4,1.9,1.8,4.3,3.5c5,3.7,10.7,4.8,16.2,5.5
		c4.4,0.5,7.9,0.1,10.4-0.9c0,0,7.1-5.7,11.1-11c1.5-2,5.5-7.5,6.6-12.6C73.7,45.7,72.2,43.6,69.7,42.5z"/>
	<path class="st2" d="M65.4,36.6c-0.3,0.2-1.7-2.3-1.6-2.8c0-0.3-1.3,1.5-1.7,2.1c-0.7,1-1.3,1.8-1.7,2.5c-0.2,0.4-0.4,0.7-0.4,0.8
		c-0.2,1,0.5,2.8,2.3,1.6c0.3-0.2,0.7-0.6,1.1-1.2c0.4-0.5,0.8-1.1,1.2-1.7C64.2,38.4,65.7,36.4,65.4,36.6z"/>
	<polygon class="st6" points="64.5,38 64.7,37.8 64.6,37.8 	"/>
	<path class="st7" d="M94.4,52.1l-18.6-3.4c0,0,18.3,15,23.3,11.6c1.6-1.1,11.1-14.5,14.4-23.5c0.8-2.1-0.8-4.5-3-5.7
		c-0.2,0.1-0.5,0.3-0.8,0.4l-1.8,0.1c0,0,0-0.6,0.1-1.4c-0.4,0-0.8,0.1-1.1,0.4C104.3,33.8,94.4,52.1,94.4,52.1z"/>
	<path class="st8" d="M82.1,28.6c-0.4,0.2-0.3,1.2-0.1,1.7c0.2,0.5,0.7,1.3,1.1,1.3c0.2,0,0.5-0.1,0.8-0.3c-0.3-0.2-0.9-0.6-1-1.6
		c-0.1-0.7,0.1-1.1,0.2-1.3C82.7,28.4,82.4,28.4,82.1,28.6z"/>
	<path class="st9" d="M93.8,29.1c-0.3-0.3-0.7-0.9-0.9-1.7c-0.2-0.9-0.1-1.5,0.1-1.9l-9.7,2.8L83,28.4c-0.1,0.2-0.2,0.6-0.2,1.3
		c0.1,1,0.7,1.4,1,1.6l0.1,0.1l9.9-2.2L93.8,29.1L93.8,29.1z"/>
	<path class="st8" d="M98.7,25.9c-0.3-1.1-0.5-1.9-0.5-2.6l-4.6,1.5L93.2,25l-0.3,0.4c-0.2,0.4-0.3,1-0.1,1.9
		c0.2,0.9,0.6,1.4,0.9,1.7l0.1,0.1c0.3,0.2,0.7,0.3,1,0.3c1-0.2,3.1-0.6,5-1C99.5,27.9,99.1,27.1,98.7,25.9L98.7,25.9z"/>
	<path class="st9" d="M112.6,27.5l10.1-2c-0.3-0.1-0.6-0.2-0.9-0.3c-1.3-0.6-2.9-2.1-3.5-5.3c-0.3-2-0.2-3.4,0.1-4.4l0.2-0.5
		l-19.1,5.9c-0.6,0.2-1.1,0.7-1.3,1.3c-0.1,0.3-0.1,0.7-0.1,1.1c0,0.7,0.2,1.5,0.5,2.6c0.4,1.2,0.8,2.1,1.2,2.6
		c0.9,1.3,1.8,1.1,1.8,1.1l6.4-1.2C111.6,27.6,110.3,27.9,112.6,27.5z"/>
	<path class="st2" d="M109.7,28l-1.6,0.3c-0.1,0.7-0.1,1.4-0.2,2l0.2,0l0.3,0.1c0.7,0.2,1.4,0.4,2,0.8c1.5-0.9,1.1-2.2,1.7-3.2
		c-0.4,0.5-0.7,0.8-0.7,0.8L109.7,28L109.7,28z"/>
	<path class="st5" d="M108.2,30.3l-0.2,0c0,0.8-0.1,1.4-0.1,1.4l1.8-0.1c0.3-0.1,0.6-0.3,0.8-0.4c-0.7-0.4-1.3-0.7-2-0.8L108.2,30.3
		z"/>
	<path class="st2" d="M109.7,28l1.7,0.7c0,0,0.3-0.3,0.7-0.8v0l0.4-0.5l0,0L109.7,28L109.7,28z"/>
	<path class="st2" d="M109.7,28l2.9-0.6c0.5-0.7,1-1.4,0.9-1.9c-0.3-0.1-0.6-0.2-1-0.3C111.5,25.8,109.9,27.9,109.7,28z"/>
	<path class="st10" d="M112.2,28l0.4-0.5L112.2,28z"/>
	<path class="st2" d="M113.4,25.2c-0.2-0.2-0.5-0.1-0.8,0c0.4,0.1,0.7,0.2,1,0.3L113.4,25.2z"/>
	<path class="st9" d="M113.5,25.5c0.1,0.5-0.4,1.3-0.9,1.9c0.3-0.2,0.7-0.5,1.3-0.7C114.9,26.5,114.5,25.9,113.5,25.5z"/>
	<path class="st8" d="M160.7,17.7c-0.9-1.4-2.1-4.3-2.8-7c-0.7-2.6-0.5-5.8-0.4-7.2L121,13.2c-1,0.3-1.8,0.9-2.3,1.8l-0.2,0.5
		c-0.3,1-0.5,2.4-0.1,4.4c0.5,3.2,2.2,4.7,3.5,5.3c0.3,0.1,0.6,0.3,0.9,0.3h0c0.5,0.1,1,0.1,1.5,0l36.8-7.4L160.7,17.7L160.7,17.7z"
		/>
	<path class="st9" d="M157.9,2.7c-2.7,4.3,1.3,16.5,4.2,15.7l8.6-1.1c-0.8,0.2-2.2-2.4-3.3-6.1c-0.1-0.4-0.2-0.8-0.3-1.2
		c-0.1-0.3-0.1-0.5-0.2-0.8l0-0.1l-0.1-0.5L166.6,8l-0.1-0.6L166.4,7c-0.1-0.4-0.1-0.8-0.2-1.1c-0.5-3.2-0.4-5.5,0.3-5.7L157.9,2.7
		L157.9,2.7z"/>
	<path class="st1" d="M166.3,3.3c-0.3,0.1-0.3,1.1-0.1,2.5c0.1,0.3,0.1,0.7,0.2,1.1l0.1,0.4l0.1,0.6l0.1,0.6l0.1,0.5l0,0.1
		c0.1,0.3,0.1,0.6,0.2,0.9c0.1,0.4,0.2,0.8,0.3,1.2c0.6,2,1.2,3.3,1.6,3.2C170,14.2,167.3,3.1,166.3,3.3L166.3,3.3z"/>
	<path class="st3" d="M166.5,7.4L166.4,7L166.5,7.4z"/>
	<path class="st3" d="M166.8,8.6L166.6,8L166.8,8.6z"/>
	<path class="st3" d="M167.1,10c-0.1-0.3-0.1-0.5-0.2-0.8C167,9.5,167,9.7,167.1,10z"/>
	<path class="st11" d="M170.4,8.3c-1.1-4.7-2.9-8.3-3.8-8.1c-0.7,0.2-0.8,2.5-0.3,5.7c-0.2-1.4-0.2-2.4,0.1-2.5
		c0.4-0.1,1.1,1.6,1.7,3.9l0,0c0.1,0.4,0.2,0.9,0.4,1.3c0.2,0.7,0.3,1.3,0.4,1.9c0.4,2.1,0.5,3.6,0.1,3.7c-0.3,0.1-0.9-1.2-1.5-3.1
		c1.1,3.7,2.5,6.3,3.3,6.1C171.7,17.1,171.5,13,170.4,8.3z"/>
	<path class="st7" d="M71.2,43.3c10.5,6,23.2,8.8,23.2,8.8l0.9,8.5c0,0-13.3-2.3-23.2-9.7c-3-2.3-5-4.2-6.2-5.9
		C65.7,44.9,70.3,42.8,71.2,43.3z"/>
	<path class="st5" d="M54.7,36.7c0,0-7.9-2.9-14.4-3.4c-9-0.6-23.6,0.9-29.5,6.3C4,45.8,1,67.7,9.5,73.5c3.2,2.2,6.4-4.7,6.4-4.7
		L19,45.4L44,40.6C44,40.6,54.7,36.7,54.7,36.7z"/>
	<path class="st12" d="M64,37.3c-0.5-0.5-0.9-1.6-1.1-2.5c-0.2,0.3-0.5,0.7-0.7,1L61.3,37c0,0-0.3,0.4,0.1,0.8
		c1.1,0.9,2.7,0.9,2.7,0.9s0.1-0.1,0.4-0.6l0.1-0.2C64.4,37.7,64.1,37.5,64,37.3L64,37.3z"/>
	<path class="st2" d="M72.5,34.8c0.2-0.6,0-2.9-0.3-4.7c-0.2-1.6-1.7-2.6-3.2-2.3c-2.4,0.4-5,1-5.7,1.6c-1,0.9-0.9,2.5-0.8,3.7
		c0,0.5,0.2,1.1,0.3,1.8l0,0.1c0.3,0.9,0.7,1.9,1.2,2.4c0.2,0.2,0.4,0.4,0.7,0.5l0,0c1,0.6,2.4,0.9,3.2,0.8
		C71.2,38.2,72,37.2,72.5,34.8L72.5,34.8z"/>
	<path class="st7" d="M69.7,42.5c-2-0.8-4.1-1.9-6.3-2.8c-0.4,0.5-0.8,0.9-1.1,1.2c-0.9,0.6-4,9.9-10.9,17c-7.2,7.5-17,13.1-17,13.1
		s0.5,0.2,0.8,0.3c3.2,1.1,6.4,1.6,9.7,2c4.4,0.5,7.9,0.1,10.4-0.9c0,0,7.1-5.7,11.1-11c1.5-2,5.5-7.5,6.6-12.6
		C73.7,45.7,72.2,43.6,69.7,42.5L69.7,42.5z"/>
</g>
</svg>
