<?xml version="1.0" encoding="utf-8"?>
<!-- Generator: Adobe Illustrator 21.0.2, SVG Export Plug-In . SVG Version: 6.00 Build 0)  -->
<svg version="1.1" id="Layer_1" xmlns="http://www.w3.org/2000/svg" xmlns:xlink="http://www.w3.org/1999/xlink" x="0px" y="0px"
	 viewBox="0 0 465 378" style="enable-background:new 0 0 465 378;" xml:space="preserve">
<style type="text/css">
	.st0{fill:#D5EAF5;}
	.st1{fill:#1E5160;}
	.st2{fill:#295A6E;}
	.st3{fill:#AACBE8;}
	.st4{fill:#30193B;}
	.st5{fill:#FFFFFF;}
	.st6{fill:#7F65C1;}
	.st7{fill:#FFAA97;}
	.st8{fill:#3B2B5B;}
	.st9{fill:#C95D77;}
	.st10{fill:#6E57B5;}
	.st11{fill:#FFDE4A;}
	.st12{fill:#91C1E5;}
	.st13{fill:#FF7C4D;}
	.st14{fill:#FF97A6;}
	.st15{fill:#FF8A70;}
	.st16{fill:#9FC0E2;}
	.st17{fill:#AF2B67;}
	.st18{fill:#C43B72;}
	.st19{fill:#E2F1F8;}
	.st20{fill:#A0BDCB;}
	.st21{fill:#C8E0F1;}
	.st22{fill:#C9AFC9;}
	.st23{fill:#D0B4CC;}
	.st24{fill:#FFF0D2;}
	.st25{fill:#92BDDD;}
	.st26{fill:#F74D0A;}
	.st27{fill:#FC6226;}
	.st28{fill:#FFE5B0;}
</style>
<g>
	<path class="st0" d="M260.8,364.1c0,6-38.2,10.9-85.3,10.9c-47.1,0-85.3-4.9-85.3-10.9c0-6,38.2-10.9,85.3-10.9
		C222.6,353.2,260.8,358.1,260.8,364.1z"/>
	<path class="st0" d="M463.1,372.8c0,2.5-17.3,4.5-38.8,4.5c-21.4,0-38.8-2-38.8-4.5c0-2.5,17.3-4.5,38.8-4.5
		S463.1,370.4,463.1,372.8z"/>
	<path class="st0" d="M426,364.3c-0.8,10.1-36.3,15.5-79.3,12.1c-43-3.4-77.2-14.3-76.4-24.4c0.8-10.1,36.3-15.5,79.3-12.1
		C392.6,343.2,426.8,354.2,426,364.3z"/>
	<path class="st1" d="M286.4,347.8c-3.5-1.2-5.8-5-5-9.3c10.2-55.6,20.4-111.2,30.5-166.7c0.8-4.3,4-7.5,8-8.5
		c22.6-5.8,65.1-17.4,87.3-22.9c6.8-1.7,13.1,4.2,11.9,11.1l-38.8,214.5c-1.2,6.6-7.9,10.6-14.2,8.5
		C346.3,367.9,307.2,354.4,286.4,347.8L286.4,347.8z"/>
	<path class="st2" d="M365,373.1c-27.6-8.9-55.3-17.8-82.9-26.7c-3.4-1.1-5.6-5.4-4.8-9.6c10-54.4,19.9-108.7,29.9-163.1
		c0.8-4.2,4.5-8.4,8.3-9.4c30.7-7.9,61.4-15.8,92.2-23.8c3.8-1,6.1,2.7,5.1,8.3C399.5,220.9,386.3,293,373.1,365
		C372.1,370.6,368.5,374.2,365,373.1z"/>
	<path class="st3" d="M367.6,351.7c-27.3-7.2-54.7-14.4-82-21.7c9.4-51.3,18.8-102.5,28.2-153.8c29.9-6.7,59.7-13.3,89.6-20
		C391.5,221.4,379.6,286.6,367.6,351.7z"/>
	<path class="st4" d="M372.9,156.3c-0.2,1.3-1.2,2.6-2.1,2.8c-0.9,0.2-1.5-0.7-1.3-2c0.2-1.3,1.2-2.5,2.1-2.8
		C372.6,154.1,373.1,155,372.9,156.3L372.9,156.3z"/>
	<path class="st4" d="M379.5,154.7c-0.2,1.3-1.2,2.6-2.1,2.8c-0.9,0.2-1.5-0.7-1.2-2c0.2-1.3,1.2-2.6,2.1-2.8
		C379.2,152.5,379.7,153.4,379.5,154.7z"/>
	<path class="st4" d="M321.9,354.5c-3-0.9-6-1.8-9-2.8c-1.4-0.4-2.2-2.3-1.8-4.2c0.2-0.9,0.3-1.7,0.5-2.6c0.3-1.9,1.7-3.1,3.1-2.7
		c3,0.8,6,1.7,9,2.5c1.4,0.4,2.2,2.3,1.8,4.3c-0.2,0.9-0.3,1.8-0.5,2.7C324.7,353.7,323.3,355,321.9,354.5L321.9,354.5z"/>
	<path class="st0" d="M402.2,163.2c-29.8,6.2-59.6,12.3-89.3,18.5c0.3-1.8,0.7-3.6,1-5.5c29.9-6.7,59.7-13.3,89.6-20
		C403,158.6,402.6,160.9,402.2,163.2L402.2,163.2z"/>
	<path class="st3" d="M321.9,185.1c-3.4,0.6-6.7,1.3-10.1,1.9c0.3-1.8,0.7-3.6,1-5.3c3.4-0.7,6.7-1.4,10.1-2.1
		C322.6,181.5,322.3,183.3,321.9,185.1L321.9,185.1z"/>
	<path class="st5" d="M400.9,170c-26.4,5.1-52.9,10.1-79.3,15.2c0.3-1.8,0.7-3.7,1-5.5c26.5-5.5,53-11,79.5-16.5
		C401.8,165.5,401.4,167.7,400.9,170z"/>
	<path class="st0" d="M398.2,185c-29.5,4.6-59,9.2-88.5,13.9c0.7-3.9,1.4-7.9,2.2-11.8c29.7-5.7,59.4-11.4,89.1-17.1
		C400,175,399.1,180,398.2,185z"/>
	<path class="st0" d="M345.3,262.5c-14.6-0.5-29.2-1-43.8-1.5c3.6-19.5,7.2-39.1,10.7-58.6c15.1-2.2,30.2-4.4,45.3-6.6
		C353.4,218,349.4,240.3,345.3,262.5z"/>
	<path class="st2" d="M341,262.3c0,0,1.4-8.4,1.5-10.3c0.1-1.8-0.2-4.8-1.3-6.4c-1.1-1.6-5.4-3.1-5.4-3.1c-3.3,1.6-6.6,3.1-9.9,4.6
		c-2.7-1.5-5.5-2.9-8.3-4.2c0,0-4.9,1.6-6.5,3c-1.6,1.5-3,4.2-3.5,5.8c-0.5,1.7-2.1,9.3-2.1,9.3C317.5,261.5,329.3,261.9,341,262.3z
		"/>
	<path class="st2" d="M331.6,206.9c0,0-3.3-1.2-6.4,2.5c-4.2,5.1-7.8,12.6-11.4,35.3c0,0,2,0.9,4.9,1.9c4.9,1.6,12.4,3.3,17.7,0.1
		c1-0.7,1.9-1.5,2.9-2.2c0,0,4.3-19.4,3.2-29.8C341.4,204.4,336.3,202.5,331.6,206.9z"/>
	<path class="st0" d="M331.8,239.9c-1.2-1.9-0.3-7.6-0.3-7.6c-1.9,0.1-3.7,0.2-5.6,0.3c0,0-1.1,5.6-3,7.5c-1.9,1.9-5.1,2.8-5.1,2.8
		c0,0,1.6,6.8,7.8,6.9c6.2,0,10.4-7.2,10.4-7.3C335.9,242.6,333,241.8,331.8,239.9L331.8,239.9z"/>
	<path class="st3" d="M323.6,224.1c0,0-1.5-0.7-1.8,0.8c-0.3,1.5,0.8,4.6,1.7,4.4c0.9-0.2,0.3-5.1,0.3-5.1L323.6,224.1L323.6,224.1z
		"/>
	<path class="st3" d="M337.4,223c0,0,1.8-0.8,1.5,0.8c-0.4,1.6-2.9,4.8-3.7,4.6c-0.8-0.2,2-5.2,2-5.2L337.4,223z"/>
	<path class="st3" d="M325.3,234.1c0,0,2.4,5,6.3,5.4c0,0-0.8-2.3-0.1-7.1C329.4,232.9,327.3,233.5,325.3,234.1z"/>
	<path class="st0" d="M337.2,223.8c-1.2,6.3-5.2,11.6-9.1,11.7c-3.8,0.1-6.1-4.6-5-10.7c0.2-1.1,0.9-5,1.8-5.8
		c3.3-2.8,11.2-3.3,13.1-0.6C338.5,219.1,337.4,222.8,337.2,223.8z"/>
	<path class="st2" d="M338.4,221.5c-3.6,0.3-7.2,0.6-10.8,0.9c0.3-1.8,0.7-3.6,1-5.4c-0.6,1.9-1.2,3.7-1.8,5.6
		c-1.3,0.1-2.6,0.3-3.9,0.4c0,0,2.6-9.4,5-11.7c1.6-1.6,8.4-4.2,10.1,0c2.1,5.4,0.3,10.6,0.3,10.6L338.4,221.5L338.4,221.5z"/>
	<path class="st0" d="M380.7,196.8c-7,0.9-13.9,1.9-20.9,2.8c0.3-1.4,0.5-2.8,0.8-4.2c7-1,14-2,21-3
		C381.3,193.8,381,195.3,380.7,196.8z"/>
	<path class="st0" d="M391.3,202.1c-10.9,1.3-21.8,2.6-32.7,3.8c0.3-1.4,0.5-2.8,0.8-4.2c10.9-1.4,21.9-2.8,32.8-4.2
		C391.9,199.1,391.6,200.6,391.3,202.1z"/>
	<path class="st0" d="M386.3,229.4c-10.8,0.6-21.6,1.1-32.4,1.7c0.3-1.4,0.5-2.8,0.8-4.2c10.8-0.7,21.7-1.4,32.5-2
		C386.9,226.4,386.6,227.9,386.3,229.4z"/>
	<path class="st0" d="M384.8,238c-10.8,0.3-21.5,0.6-32.3,1c0.3-1.4,0.5-2.8,0.8-4.2c10.8-0.4,21.6-0.9,32.4-1.3
		C385.3,234.9,385.1,236.5,384.8,238z"/>
	<path class="st0" d="M383.2,246.5c-10.7,0.1-21.4,0.2-32.2,0.3c0.3-1.4,0.5-2.8,0.8-4.2c10.7-0.2,21.5-0.4,32.2-0.7
		C383.8,243.5,383.5,245,383.2,246.5L383.2,246.5z"/>
	<path class="st0" d="M381.6,255.1c-10.7-0.1-21.4-0.3-32-0.4c0.3-1.4,0.5-2.8,0.8-4.2c10.7,0,21.4,0,32.1,0
		C382.2,252,381.9,253.6,381.6,255.1L381.6,255.1z"/>
	<path class="st0" d="M380.1,263.7c-10.6-0.4-21.3-0.7-31.9-1.1c0.3-1.4,0.5-2.8,0.8-4.2c10.7,0.2,21.3,0.5,32,0.7
		C380.6,260.6,380.4,262.1,380.1,263.7z"/>
	<path class="st0" d="M365.6,342.1c-10.9-2.6-21.7-5.2-32.6-7.8c0.3-1.4,0.5-2.8,0.8-4.2c10.9,2.5,21.8,5,32.6,7.4
		C366.1,339.1,365.8,340.6,365.6,342.1L365.6,342.1z"/>
	<path class="st0" d="M312.6,329.4c-5.5-1.3-10.9-2.6-16.4-3.9c0.2-1.3,0.5-2.5,0.7-3.8c5.5,1.2,10.9,2.5,16.4,3.7
		C313.1,326.7,312.8,328.1,312.6,329.4z"/>
	<path class="st0" d="M377.7,275.9c-23.9-1.6-47.8-3.1-71.6-4.7c0.2-1.3,0.5-2.5,0.7-3.8c23.9,1.3,47.9,2.6,71.8,3.8
		C378.3,272.8,378,274.3,377.7,275.9z"/>
	<path class="st0" d="M376.2,284.3c-23.8-2.1-47.6-4.1-71.4-6.2c0.2-1.3,0.5-2.5,0.7-3.8c23.8,1.8,47.7,3.6,71.5,5.4
		C376.7,281.2,376.4,282.8,376.2,284.3z"/>
	<path class="st0" d="M374.6,292.7c-23.7-2.6-47.4-5.2-71.1-7.7c0.2-1.3,0.5-2.5,0.7-3.8c23.7,2.3,47.5,4.6,71.2,6.9
		C375.2,289.7,374.9,291.2,374.6,292.7L374.6,292.7z"/>
	<path class="st2" d="M304.6,269.2c-0.3,1.5-1.4,2.7-2.6,2.6c-1.2-0.1-1.9-1.3-1.6-2.8c0.3-1.5,1.4-2.6,2.6-2.6
		C304.2,266.4,304.9,267.7,304.6,269.2L304.6,269.2z"/>
	<path class="st0" d="M372.3,306c-23.5-3.4-47.1-6.8-70.6-10.1c0.2-1.3,0.5-2.5,0.7-3.8c23.6,3.1,47.2,6.2,70.8,9.3
		C372.9,302.9,372.6,304.5,372.3,306z"/>
	<path class="st0" d="M370.8,314.4c-23.4-3.9-46.9-7.8-70.4-11.7c0.2-1.3,0.5-2.5,0.7-3.8c23.5,3.6,47,7.2,70.5,10.8
		C371.3,311.4,371.1,312.9,370.8,314.4z"/>
	<path class="st0" d="M369.2,322.9c-23.4-4.4-46.7-8.8-70.1-13.2c0.2-1.3,0.5-2.5,0.7-3.8c23.4,4.1,46.8,8.2,70.2,12.4
		C369.8,319.8,369.5,321.3,369.2,322.9z"/>
	<path class="st0" d="M367.3,332.5c-23.3-5-46.5-10-69.8-15c0.2-1.3,0.5-2.5,0.7-3.8c23.3,4.7,46.6,9.4,69.9,14.1
		C367.9,329.4,367.6,331,367.3,332.5z"/>
	<path class="st2" d="M300.2,293.7c-0.3,1.5-1.4,2.6-2.6,2.4c-1.1-0.2-1.8-1.5-1.6-3c0.3-1.5,1.4-2.6,2.6-2.4
		C299.8,290.9,300.5,292.2,300.2,293.7L300.2,293.7z"/>
	<path class="st6" d="M401.7,288.9c0,0,3.2-6.7,4.4-8.9c0.5-0.9,1.2-2.1,3.1-3.8c1.1-1,1.7-1.2,4.6-2c-0.6,2.3-7.2,14.6-8.6,16.5
		C403.7,292.7,401.7,288.9,401.7,288.9L401.7,288.9z"/>
	<path class="st7" d="M396.5,278c0.1,0,0.8-1.3,0.9-1.9c0-0.5-0.3-1.7-0.5-1.8c-0.2-0.1-0.2,0.2-0.2,0.2s-0.1-0.3-0.3-0.1
		c-0.1,0.1,0,0.7-0.1,1.1c0,0.3-0.2,0.6-0.2,0.7c0,0-0.2-0.5-0.4-0.5c-0.2,0.1,0,1.1,0.1,1.4c0,0.1,0.2,1,0.2,1.2
		C396.2,278.6,396.4,278,396.5,278L396.5,278z"/>
	<path class="st4" d="M432.4,372.2c-0.4-1.6,1.9-1.3,3.2-1.7c-0.4,0.3-0.8,0.6-0.1,0.8c0.9,0.2,2.9-0.1,3.4-0.8
		c0.2,0.5,0.3,1.1,0.3,1.6C439.2,372.7,432.6,373.3,432.4,372.2z"/>
	<path class="st7" d="M435.4,371.3c-0.6-0.2-0.2-0.5,0.1-0.8c0.8-0.3,1.5-0.5,1.6-0.5c0.4-0.2,0.5-0.6,0.5-0.6l0.4-0.1
		c0,0,0.7,1.1,0.8,1.2C438.3,371.1,436.4,371.5,435.4,371.3z"/>
	<path class="st4" d="M407.3,372.8c-0.4-1.6,1.9-1.3,3.2-1.7c-0.4,0.3-0.8,0.6-0.1,0.8c0.9,0.2,2.9-0.1,3.4-0.8
		c0.2,0.5,0.3,1.2,0.3,1.6C414.1,373.3,407.5,374,407.3,372.8L407.3,372.8z"/>
	<path class="st7" d="M410.3,371.9c-0.6-0.2-0.2-0.5,0.1-0.8c0.8-0.3,1.5-0.5,1.6-0.5c0.4-0.2,0.5-0.6,0.5-0.6l0.4-0.1
		c0,0,0.7,1.1,0.8,1.2C413.2,371.8,411.3,372.1,410.3,371.9z"/>
	<path class="st4" d="M428.4,294.3c0,0.2,4.2,4.4,6.4,9.3c3.4,7.7,4.6,57.2,4,65.7c-0.1,1.2-2.9,0.2-3-1.2
		c-0.9-8.9-13.7-54.5-13.7-54.5l-8.6,56.7l-2.8,0.2c0,0-0.9-72.8,0.4-75C413.5,294.9,424.3,294.3,428.4,294.3L428.4,294.3z"/>
	<path class="st8" d="M411.2,295.6c1.1-0.3,2.6-0.4,6-0.5H416l6,18.7c0,0-4.1,31.2-8.6,56.7l-2.8,0.2
		C410.6,370.6,403.9,320.1,411.2,295.6L411.2,295.6z"/>
	<path class="st3" d="M409,276.7c1.4-2,9.5-3.9,14.6-3.5c1.3,0.1,4.3,1.9,5,2.7c2.2,2.8,1.5,8.6,1.6,10.9c0.1,3-0.7,7-0.3,10.1
		c0.7,4.7-17.7,1.3-18.2-0.4c-0.9-3.2-1.3-5.6-1.7-10.4C409.6,280.6,409,276.7,409,276.7L409,276.7z"/>
	<path class="st7" d="M417.3,269.7c0,0,1.1,3.7,0.8,4.1c-0.3,0.5-1.7,1.1-2.6,0.2c-0.9-0.9-0.4-4.2-0.4-4.2L417.3,269.7z"/>
	<path class="st9" d="M418,272.4c-0.8,0.4-1.9,0.6-3,0.4c-0.1-0.7,0-1.5,0-2l2.2-1.2C417.4,270,417.9,271.7,418,272.4z"/>
	<path class="st7" d="M413,268.8c0-0.5,0.5-1.9,0.8-2.5c0.1-0.3,0.6-1.1,0.9-1.1c1.5-0.4,3.8,1.6,4.1,2.1c0.4,0.6,0.1,1.5-0.2,2.1
		c-0.2,0.6-2,3.6-4,2.7C412.6,271.1,412.9,270.2,413,268.8L413,268.8z"/>
	<path class="st10" d="M428.5,277.2c0.4,1.6-0.6,3.2-1.6,5.1c-2.2,3.9-7.4,8.4-9,9.7c-2.9,2.6-5.7-1.5-5.7-1.5s5.5-5.2,8.5-9.8
		c0.7-1.1,3.3-5.4,4.4-6C426.4,273.8,428.1,275.8,428.5,277.2z"/>
	<path class="st0" d="M409,276.7c0.6-0.9,2.6-1.8,5.2-2.5c0.2,0,0.7-0.2,0.7-0.2s-1.6,6.2-0.5,12.1c1.3,6.8,2.8,12.3,2.8,12.3
		s-0.2,0-0.4,0c-2.9-0.6-4.9-1.3-5-1.8c-0.9-3.2-1.3-5.6-1.7-10.4C409.6,280.6,409,276.7,409,276.7L409,276.7z"/>
	<path class="st6" d="M400.4,279.3c1.2,2.1,5.4,11.4,5.4,11.4s-2.2,4-4.2,2.1c-2.2-2.1-1.8-2.4-4.4-6.2c-1.3-1.9-3.1-4.5-2.4-6.7
		c0.6-1.9,2.5-2.9,2.5-2.9S399.1,277.3,400.4,279.3z"/>
	<path class="st10" d="M418.4,273.2c0,0-1.2,20.1,1.6,25.7c0,0,4.7,11.6,7.1,12.3c2.4,0.7,9.2-1.8,9.2-1.8s0.7-5-6.5-13.8
		c0,0,2-14.5-0.4-18.8c-1-1.8-3.7-3.4-5.9-3.6C421.2,272.9,418.4,273.2,418.4,273.2L418.4,273.2z"/>
	<path class="st6" d="M414.3,274.1c0,0-2.2,6.2-1.6,14.8c0.6,8.6,1,8.7,1,8.7s-3,10.9-4.1,12c-1.1,1.2-5-2.3-5-2.3
		s4.6-10.6,4.8-10.5l0.8-10.3l-1.4-9.7C408.7,276.8,409.5,275.2,414.3,274.1L414.3,274.1z"/>
	<path class="st7" d="M391.9,288.4c0,0-0.4-0.2-0.3-0.4l0.6,0c-0.2-0.1-0.3-0.3-0.2-0.4c0.1-0.1,1.5,0.3,1.6,0.4
		c-0.1-0.2-0.5-0.6-0.4-0.8l0.1-0.1c0.1,0,0.6,0.4,0.7,0.6c0.2,0.2,0.4,0.5,0.6,0.8l0.4,0.7c0.2,0,0.7,0.2,0.9,0.5
		c0.1,0.2,0,0,0,0.2l-0.1,0.1l0.1,0l0,0.1c-0.6,0.2-1.6,0.2-2.3-0.1c-0.2-0.1-0.4-0.2-0.6-0.3l-0.2-0.1l-0.1,0l-0.1-0.1
		c-0.1-0.1-0.4-0.4-0.5-0.5c-0.1-0.2,0.1-0.2,0.1-0.2c0,0-0.4-0.2-0.3-0.3C391.7,288.3,391.8,288.4,391.9,288.4L391.9,288.4z"/>
	<path class="st10" d="M396.4,292.7c2.5,2.4,23.5,1.4,21.5-1.7c-1.1-1.6,0-3.1,0-3.1l-20.3-0.3C397.5,287.7,391.9,288.5,396.4,292.7
		L396.4,292.7z"/>
	<path class="st8" d="M412.2,269.9c0.4-1,1.1-2.3,1.1-2c-0.2,1.1-0.4,2.7,1.2,3.4c1.5,0.6,2.7,0.5,3.6-0.7c0.5-0.9,0.6-1.5,0.9-2.5
		c0-0.3-0.2-1.2-0.8-1.3c-1.5-0.3-2.7-0.6-4-1.6c-0.7-0.6-1.1-1.8-1.1-2.7c-0.2-1,0.3-2.4,1.2-3.4c0.3-0.3,0.8-0.2,0.6,0.2
		c-0.9,2.2,2.6,1.8,3.5,1.6c0.5-0.1,1-0.4,1.5-0.4c0.7,0.1,1.2,0.5,1.6,1c0.9,1.1,1.1,2.7,0.2,3.9c0.4,0.2,0.6,0.7,0.4,1.5
		c-0.4,1.4-1.5,2.8-2.8,3.6c0,0.5-0.1,1.2-0.2,1.7c-0.1,0.4-0.2,0.8-0.4,1c-0.7,0.6-2.6,0.8-3.5,0.8c-0.8,0-2.5-0.3-2.9-1.1
		C411.7,272.1,411.7,271.1,412.2,269.9L412.2,269.9z"/>
	<path class="st11" d="M376.6,79.8c0,0,5.8,1.3,6.3-0.4c0.7-2.3-1.6-3.5-1.6-3.5s1.7-5.2,0.3-7.7c-0.8-1.4-3.2-3.2-4.4-2
		c0,0-1.7-2.7-4.1-1.9c-2.4,0.8-2.6,4.1-2.6,4.1s-3.2-1.2-2.4,2c0,0-7.1-2.2-10.3,3.2c-3.3,5.4,1.8,10,3.9,11.4
		C363.9,86.5,376.6,79.8,376.6,79.8L376.6,79.8z"/>
	<path class="st4" d="M349.9,153.1c-0.8,0.3-2.7,2-2.5,2.6c0.5,1.3,4.3-0.6,4.3-1.1c0-0.4,0-1-0.2-1.4l-0.1,0.1l-0.1,0.1l-0.2,0.2
		l0,0c-0.6,0.5-1.7,1-2.1,0.8C348.8,154.2,349.6,153.4,349.9,153.1L349.9,153.1L349.9,153.1z"/>
	<path class="st7" d="M349.8,153.2c-0.2,0.2-1,1-0.7,1.2c0.4,0.2,1.5-0.3,2.1-0.8c-0.5,0.3-1.1,0.5-1.5,0.3c-0.4-0.2,0-0.6,0.2-0.8
		L349.8,153.2L349.8,153.2z"/>
	<path class="st7" d="M349.9,153.1c-0.2,0.2-0.5,0.6-0.2,0.8c0.4,0.2,1.1,0,1.5-0.3l0,0l0.2-0.2l0.1-0.1l0.1-0.1
		c0-0.1-0.1-0.2-0.1-0.3c-0.1-0.1-0.1-0.3-0.1-0.4c-0.2,0-0.3,0-0.5,0.1l-0.2,0.2C350.6,152.7,350.4,152.7,349.9,153.1z"/>
	<path class="st4" d="M377.3,148c0.1,0.4,4.6-0.7,4.6-1c-0.2-1.2-1.5-0.7-2.5-0.6c0.5,0,0.4,0.3,0.1,0.5c-0.5,0.3-1.8,0.5-2.3,0.2
		C377.1,147.3,377.2,147.7,377.3,148z"/>
	<path class="st7" d="M377.1,146.1c0,0.2,0,0.7,0,0.8c0.5,0.3,1.8,0.1,2.3-0.2c0.4-0.2,0-0.4-0.3-0.4c-0.5,0-1,0-1.1,0
		c-0.1,0-0.3-0.1-0.3-0.2C377.5,146.1,377.4,146.1,377.1,146.1L377.1,146.1L377.1,146.1z"/>
	<path class="st7" d="M379.2,146.3L379.2,146.3c0.2,0.1,0.6,0.2,0.2,0.5c0.3-0.2,0.4-0.5-0.1-0.5L379.2,146.3z"/>
	<path class="st6" d="M373.8,96.6c-0.4-3-1.7-5.4-2.9-7h0c-1,0.7-2.4,0.7-4,0.5c-2.4-0.3-5.1-1.4-6.9-2.2c-1.2-0.6-2-1-2-1.2
		c-1.2,0.7-3.9,2.6-6.1,7c-3.1,6.2-1.2,52.1-1.5,58.9c0,0.2,1.9,0,1.9,0l10.3-51.7l14,44.9c0,0.2,0.2,0.3,0.4,0.4l0.1,0l0.5,0.1
		c0.1,0,0.2,0,0.4,0c0.3,0,0.5-0.2,0.6-0.5C378.5,137.4,374.7,103.1,373.8,96.6z"/>
	<path class="st7" d="M353.3,89.6c0,0,1.5-1.4,2-1c0.6,0.4,1.5,1,1.4,1.3c-0.1,0.3-0.8-0.2-0.8-0.2s0.3,0.7,0.3,0.8
		c0,0.1-0.4,0-0.4,0s0.1,0.2-0.1,0.4c-0.2,0.2-0.4-0.4-0.7-0.5c-0.3-0.1-1.4,0.3-1.9,0.1C352.8,90.5,352.8,90,353.3,89.6z"/>
	<path class="st10" d="M373.8,96.6c-0.4-3-1.7-5.4-2.9-7h0c-1,0.7-2.4,0.7-4,0.5c-2.4-0.3-2.5-0.3-4.3-1.1
		c-1.2-0.6-11.8,63.7-11.3,63.7c0.5,0,1-0.1,1-0.1l10.3-51.7l14,44.9c0,0.2,0.2,0.3,0.4,0.4l0.1,0l0.5,0.1c0.1,0,0.2,0,0.4,0
		c0.3,0,0.5-0.2,0.6-0.5C378.5,137.4,374.7,103.1,373.8,96.6z"/>
	<path class="st3" d="M377.5,77.2c-0.9-0.4-1.8-0.8-2.7-1.2c-0.2,0.2-0.3,0.4-0.5,0.5c-0.8,0.5-1.1-0.3-1-0.7c0-0.1,0.1-0.2,0.2-0.4
		c-1.3-0.5-2.6-0.9-4.1-1c-1.1-0.1-2.8-0.7-4,0.8c-2.5,3.5-7,10.4-7.5,11.3c0,0.2,0.8,0.8,1.9,1.5c2.2,1.6,4.6,2.1,7,2.4
		c1.9,0.2,3.4,0,4.5-0.4c0,0,3-2.4,4.8-4.8c0.7-0.9,2.4-3.2,2.9-5.4C379.2,78.6,378.6,77.7,377.5,77.2z"/>
	<path class="st7" d="M375.6,74.7c-0.1,0.1-0.7-1-0.7-1.2c0-0.1-0.6,0.6-0.7,0.9c-0.3,0.4-0.6,0.8-0.7,1.1c-0.1,0.2-0.2,0.3-0.2,0.4
		c-0.1,0.4,0.2,1.2,1,0.7c0.1-0.1,0.3-0.3,0.5-0.5c0.2-0.2,0.3-0.5,0.5-0.7C375.1,75.4,375.8,74.6,375.6,74.7L375.6,74.7z"/>
	<polygon class="st9" points="375.3,75.3 375.3,75.2 375.3,75.2 	"/>
	<path class="st12" d="M388.1,81.4l-8-1.5c0,0,7.9,6.5,10,5c0.7-0.5,4.8-6.2,6.2-10.1c0.3-0.9-0.4-1.9-1.3-2.5
		c-0.1,0.1-0.2,0.1-0.3,0.2l-0.8,0c0,0,0-0.2,0-0.6c-0.2,0-0.3,0.1-0.5,0.2C392.4,73.5,388.1,81.4,388.1,81.4L388.1,81.4z"/>
	<path class="st13" d="M382.8,71.2c-0.2,0.1-0.1,0.5,0,0.7c0.1,0.2,0.3,0.6,0.5,0.6c0.1,0,0.2-0.1,0.3-0.1c-0.1-0.1-0.4-0.3-0.4-0.7
		c0-0.3,0-0.5,0.1-0.6C383.1,71.1,383,71.1,382.8,71.2L382.8,71.2z"/>
	<path class="st2" d="M387.9,71.4c-0.1-0.1-0.3-0.4-0.4-0.8c-0.1-0.4,0-0.7,0-0.8l-4.2,1.2l-0.1,0.1c-0.1,0.1-0.1,0.3-0.1,0.6
		c0,0.4,0.3,0.6,0.4,0.7l0.1,0L387.9,71.4L387.9,71.4L387.9,71.4z"/>
	<path class="st13" d="M390,70c-0.1-0.5-0.2-0.8-0.2-1.1l-2,0.6l-0.2,0.1l-0.1,0.2c-0.1,0.2-0.1,0.4,0,0.8c0.1,0.4,0.3,0.6,0.4,0.8
		l0.1,0.1c0.1,0.1,0.3,0.1,0.4,0.1c0.4-0.1,1.4-0.3,2.2-0.4C390.4,70.9,390.2,70.5,390,70z"/>
	<path class="st7" d="M394.8,71l-0.7,0.1c0,0.3-0.1,0.6-0.1,0.8l0.1,0l0.1,0c0.3,0.1,0.6,0.2,0.9,0.3c0.7-0.4,0.5-0.9,0.7-1.4
		c-0.2,0.2-0.3,0.3-0.3,0.3L394.8,71L394.8,71L394.8,71z"/>
	<path class="st3" d="M394.1,71.9L394.1,71.9c-0.1,0.3-0.1,0.6-0.1,0.6l0.8,0c0.1-0.1,0.2-0.1,0.3-0.2c-0.3-0.2-0.6-0.3-0.9-0.3
		L394.1,71.9z"/>
	<path class="st7" d="M394.8,71l0.7,0.3c0,0,0.1-0.1,0.3-0.3v0l0.2-0.2l0,0C396,70.7,394.8,71,394.8,71z"/>
	<path class="st7" d="M394.8,71l1.2-0.2c0.2-0.3,0.4-0.6,0.4-0.8c-0.1,0-0.3-0.1-0.4-0.1C395.5,70,394.8,70.9,394.8,71z"/>
	<path class="st14" d="M395.8,70.9l0.2-0.2L395.8,70.9z"/>
	<path class="st7" d="M396.3,69.7c-0.1-0.1-0.2-0.1-0.3,0c0.2,0,0.3,0.1,0.4,0.1L396.3,69.7z"/>
	<path class="st13" d="M416.8,66.5c-0.4-0.6-0.9-1.9-1.2-3c-0.3-1.1-0.2-2.5-0.2-3.1l-15.8,4.2c-0.4,0.1-0.8,0.4-1,0.8l-0.1,0.2
		c-0.1,0.4-0.2,1-0.1,1.9c0.2,1.4,1,2,1.5,2.3c0.1,0.1,0.2,0.1,0.4,0.1h0c0.2,0,0.4,0,0.6,0l15.9-3.2
		C416.9,66.7,416.8,66.5,416.8,66.5z"/>
	<path class="st12" d="M378.1,77.6c4.5,2.6,10,3.8,10,3.8l0.4,3.7c0,0-5.7-1-10-4.2c-1.3-1-2.1-1.8-2.7-2.5
		C375.8,78.2,377.7,77.4,378.1,77.6z"/>
	<path class="st3" d="M371,74.7c0,0-3.4-1.3-6.2-1.5c-3.9-0.3-10.2,0.4-12.7,2.7c-2.9,2.7-4.2,12.1-0.5,14.6
		c1.4,0.9,2.8-2.1,2.8-2.1l1.3-10.1l10.8-2.1C366.4,76.4,371,74.7,371,74.7z"/>
	<path class="st15" d="M375,75c-0.2-0.2-0.4-0.7-0.5-1.1c-0.1,0.1-0.2,0.3-0.3,0.4l-0.4,0.5c0,0-0.1,0.2,0.1,0.3
		c0.5,0.4,1.2,0.4,1.2,0.4s0-0.1,0.2-0.3l0-0.1C375.2,75.1,375.1,75.1,375,75L375,75z"/>
	<path class="st7" d="M378.7,73.9c0.1-0.3,0-1.2-0.1-2c-0.1-0.7-0.7-1.1-1.4-1c-1,0.2-2.2,0.4-2.5,0.7c-0.4,0.4-0.4,1.1-0.3,1.6
		c0,0.2,0.1,0.5,0.2,0.8l0,0c0.1,0.4,0.3,0.8,0.5,1c0.1,0.1,0.2,0.2,0.3,0.2l0,0c0.4,0.2,1,0.4,1.4,0.3
		C378.1,75.3,378.5,74.9,378.7,73.9z"/>
	<path class="st12" d="M377.5,77.2c-0.9-0.4-1.8-0.8-2.7-1.2c-0.2,0.2-0.3,0.4-0.5,0.5c-0.4,0.3-1.7,4.3-4.7,7.4
		c-3.1,3.2-7.3,5.7-7.3,5.7s0.2,0.1,0.3,0.1c1.4,0.5,2.8,0.7,4.2,0.9c1.9,0.2,3.4,0,4.5-0.4c0,0,3-2.4,4.8-4.8
		c0.7-0.9,2.4-3.2,2.9-5.4C379.2,78.6,378.6,77.7,377.5,77.2L377.5,77.2z"/>
	<path class="st13" d="M229,174.9c0,0-0.9-10.6-11.7-9.9c-4.9,0.3-4.6,4.1-8.6,2.8c-4-1.3-1.4,0.9-4.2,3.1
		c-2.8,2.2-12.1-3.9-15.1-0.7c-3,3.2-2.2,5.5-2.1,9.3c0,3.8-7.1-2-9.5,3.3c-2.5,5.3-4.2,20.1,16.2,28.8c13.8,5.9,35.1-15.8,37.7-22
		C233.8,184.8,237.8,170.9,229,174.9L229,174.9z"/>
	<path class="st13" d="M229,174.9c-0.5-2.8-1.8-5.6-4.1-7.3c-2.2-1.8-5.1-2.3-7.9-2c-1.4,0.2-2.5,0.7-3.6,1.6c-0.6,0.4-1.2,1-2,1.3
		c-0.8,0.3-1.7,0.2-2.5,0c-0.4-0.1-0.7-0.2-1.1-0.3c-0.3-0.1-0.7-0.2-0.9-0.1c-0.1,0-0.2,0-0.1,0c0,0,0,0-0.1,0.1
		c-0.1,0.3-0.2,0.7-0.3,1.1c-0.3,0.8-0.8,1.5-1.5,2c-0.8,0.6-1.7,0.7-2.5,0.7c-1.6-0.1-3-0.5-4.4-0.9c-1.4-0.4-2.8-0.8-4.2-1.1
		c-1.3-0.2-2.8-0.4-3.7,0.3c-0.1,0.1-0.2,0.2-0.3,0.3l-0.3,0.4c-0.2,0.3-0.4,0.5-0.6,0.8c-0.4,0.6-0.7,1.2-0.9,1.8
		c-0.4,1.3-0.3,2.7-0.3,4.2l0,1.1c0,0.4,0,0.7-0.1,1.2c-0.1,0.4-0.5,0.9-0.9,1c-0.4,0.1-0.8,0.1-1.2,0.1c-1.5-0.2-2.9-0.6-4.3-0.6
		c-1.4,0-2.8,0.9-3.4,2.2c0.3-0.7,0.7-1.3,1.3-1.8c0.6-0.5,1.3-0.7,2.1-0.8c1.5-0.2,3,0.2,4.4,0.3c0.7,0,1.3-0.1,1.4-0.6
		c0.1-0.3,0-0.6,0-1l-0.1-1.1c-0.1-1.4-0.3-3,0.1-4.5c0.2-0.8,0.5-1.5,1-2.1c0.2-0.3,0.4-0.6,0.7-0.9l0.4-0.4
		c0.1-0.1,0.3-0.3,0.5-0.4c0.3-0.3,0.8-0.4,1.2-0.6c0.4-0.1,0.8-0.2,1.2-0.2c0.8,0,1.6,0,2.3,0.2c1.5,0.3,2.9,0.7,4.3,1
		c1.4,0.4,2.8,0.8,4.1,0.8c0.7,0,1.2-0.1,1.6-0.4c0.5-0.4,0.9-0.9,1.1-1.4c0.1-0.3,0.2-0.6,0.3-1c0.1-0.2,0.2-0.5,0.5-0.8
		c0.3-0.2,0.6-0.3,0.9-0.3c0.9,0,1.6,0.4,2.3,0.5c0.6,0.2,1.2,0.2,1.8,0c0.5-0.2,1.1-0.6,1.7-1.1c1.1-1,2.7-1.7,4.3-1.7
		c3-0.2,6.2,0.5,8.5,2.5C227.6,169.1,228.7,172,229,174.9L229,174.9z"/>
	<path class="st4" d="M197.4,363.5c-0.5-0.9-2.8-1.7-4.7-2.2c0.6,0.3,1.1,0.8,0.3,1.1c-1.3,0.4-4.1-0.6-5-1.5
		c-0.3,0.7-0.4,1.7-0.3,2.3C187.7,364,198.2,364.9,197.4,363.5L197.4,363.5z"/>
	<path class="st4" d="M144.8,370.5c-0.2-1,3.6-3.6,5-4c-0.4,0.3-1.1,1-0.5,1.3c0.9,0.5,2.7,0.1,3.4-0.8c0.1,0.8,0.1,1.8,0,2.5
		C152.5,370.4,145.3,372.8,144.8,370.5z"/>
	<path class="st7" d="M193.8,361.6c-1-0.6-4.1-1.3-4.2-1.5c1.8-5,13.9-55.2,15-66.5c1.9-19.6-0.2-69.8-2.1-74.5
		c-5.1-2.1-17.8-0.4-26.1-1.3c-0.1,0.4-10.1,7.9-15.8,17.3c-8.9,14.6-8.3,113.5-9.2,130.8c-0.2,0.1-0.7,0.2-1.9,0.8
		c-0.4,0.3-2.1,1.5-1.5,1.9c0.8,0.5,3.9-0.5,4.6-1.4c0-0.2-0.1-0.4-0.1-0.6c-0.1-0.1,30-109.6,30-109.6l5.6,35.8l-0.3,68.4
		c0.6,1.1,3.6,1.6,4.9,1.5C193.7,362.7,194.3,362.1,193.8,361.6L193.8,361.6z"/>
	<path class="st8" d="M177.6,217.2c0,0-9.4,3.5-18.5,18.5c-3.2,5.3-7.7,37.8-8.2,45.6h7.4l3.7-27.7l-0.5,27.7c0,0,31.8,3.6,46.4-2
		c0,0,5.2-28.8-5.6-67.4L177.6,217.2z"/>
	<path class="st4" d="M182.7,282.5c0,0,1.1,0,1.7,0c8.5-0.1,17.5-0.8,23.5-3.1c0,0,5.2-28.8-5.6-67.4l-10.3,2.2l-2.8,0.1
		c0,0,8,14.2,4.9,29C190.2,262,182.7,282.5,182.7,282.5z"/>
	<path class="st3" d="M202.2,184.6c4.2,1.1,13.4,7.2,14.3,7.8c4,2.5,6.3,2.5,5.2,9.1c-0.7,3.8-3.5,8.5-4.8,10.4
		c-6.2,8.9-13.5,16.6-13.5,16.6s-8.4,0.5-16.2-3.4c-8.8-4.5-9.6-8-9.6-8s2.1-10.5,12.5-27.5C190.8,188.6,197.2,183.3,202.2,184.6
		L202.2,184.6z"/>
	<path class="st16" d="M229,225.6c0,0,13,14.8,19.3,16.9c0.5,0.2,2.4,0.7,3.5,0.7c3.7,0,8.9-3.6,3.1-10
		c-9.6-10.7-21.9-15.9-21.9-15.9S234.7,221.1,229,225.6L229,225.6z"/>
	<path class="st16" d="M220.2,194.7c-3.9-4-8.6,5.4,8.8,30.9c1.9,2.8,8.8-0.5,6.2-4.7C228.7,210.1,224.3,198.8,220.2,194.7z"/>
	<polygon class="st17" points="248.6,242.5 245.4,236.9 263.5,226.6 266.7,232.2 	"/>
	<path class="st17" d="M217.5,261.5l-4.4-7.8c-0.6-1-0.2-2.3,0.8-2.9l28.6-16.2c2.3-1.3,5.1-0.5,6.4,1.8l1.9,3.3
		c1.3,2.3,0.5,5.1-1.8,6.4l-28.6,16.2C219.4,262.9,218.1,262.5,217.5,261.5L217.5,261.5z"/>
	<path class="st18" d="M223.9,260.3l-6.5-11.5l25.1-14.2c2.3-1.3,5.1-0.5,6.4,1.8l1.9,3.3c1.3,2.3,0.5,5.1-1.8,6.4L223.9,260.3z"/>
	<path class="st17" d="M333.3,204.1l0-0.2c-2.7-18.1-21.7-27.4-42.2-20.8c-20.4,6.6-34.9,26.6-32.3,44.6l0,0.2
		c2.7,18.1,21.7,27.4,42.2,20.8C321.4,242.2,335.8,222.2,333.3,204.1z M326.5,206.3c2.1,14.7-9.7,31.1-26.4,36.5
		c-8.1,2.6-16.2,2.3-22.7-0.9c-6.5-3.2-10.7-8.9-11.8-16.1l0-0.2c-2.1-14.7,9.7-31.1,26.4-36.5c16.8-5.4,32.3,2.2,34.5,17
		L326.5,206.3z"/>
	<path class="st18" d="M331.2,201.3l0-0.2c-2.7-18.1-21.7-27.4-42.2-20.8c-20.4,6.6-34.9,26.6-32.3,44.6l0,0.2
		c2.7,18.1,21.7,27.4,42.2,20.8C319.3,239.3,333.8,219.3,331.2,201.3L331.2,201.3z M324.4,203.4c2.1,14.7-9.7,31.1-26.4,36.5
		c-8.1,2.6-16.2,2.3-22.7-0.9c-6.5-3.2-10.7-8.9-11.8-16.1l0-0.2c-2.1-14.7,9.7-31.1,26.4-36.5c16.8-5.4,32.3,2.2,34.5,17
		L324.4,203.4L324.4,203.4z"/>
	<path class="st19" d="M287.3,241.7c-4.3,0-8.4-0.9-12-2.7c-2.7-1.3-5.1-3.1-6.9-5.3c-1.4-2.4-2.4-5-2.8-8l0-0.2
		c-2.1-14.7,9.7-31.1,26.4-36.5c3.7-1.2,7.3-1.8,10.7-1.8c0.7,0,1.3,0,2,0.1c-3.3,17.8-6.5,35.6-9.8,53.4
		C292.3,241.4,289.8,241.7,287.3,241.7L287.3,241.7z"/>
	<path class="st20" d="M294.9,240.8c3.3-17.8,6.5-35.6,9.8-53.4c2.4,0.2,4.7,0.6,6.9,1.3c-3,16.5-6,33-9.1,49.5
		c-1.5,0.7-2.9,1.3-4.5,1.8C297,240.3,295.9,240.6,294.9,240.8L294.9,240.8z"/>
	<path class="st21" d="M302.5,238.2c3-16.5,6-33,9.1-49.5v0c-0.6,3.4-1.2,6.8-1.9,10.2c4.3-0.7,8.5-1.3,12.8-2
		c0.6,1.2,1.1,2.5,1.4,3.8c-3.9,0.6-7.8,1.1-11.6,1.7c-2.1,11.3-4.1,22.6-6.2,33.9C304.9,237,303.7,237.6,302.5,238.2L302.5,238.2z"
		/>
	<path class="st0" d="M309.7,198.9c0.6-3.4,1.2-6.8,1.9-10.2c4,1.3,7.4,3.6,10,6.6c0.3,0.5,0.6,1.1,0.9,1.6
		C318.2,197.5,313.9,198.2,309.7,198.9L309.7,198.9z"/>
	<path class="st0" d="M306,236.3c2.1-11.3,4.1-22.6,6.2-33.9c3.9-0.6,7.8-1.1,11.6-1.7c0.2,0.8,0.4,1.7,0.5,2.5l0,0.2
		c0.3,2.3,0.3,4.7,0,7c-2.4,3.2-4.6,7.6-6.8,15.6C314.5,230.1,310.6,233.6,306,236.3L306,236.3z"/>
	<path class="st20" d="M317.6,226.1c2.2-8.1,4.4-12.5,6.8-15.6C323.7,215.9,321.2,221.3,317.6,226.1z"/>
	<path class="st22" d="M268.4,233.8c-2.6-3-4.3-6.7-4.9-10.8l0-0.2c-2.1-14.7,9.7-31.1,26.4-36.5c3.7-1.2,7.3-1.8,10.7-1.8
		c9.1,0,16.9,4,21,10.8c-2.6-3-6-5.2-10-6.6v0c-2.2-0.7-4.5-1.2-6.9-1.3c-0.7,0-1.3-0.1-2-0.1c-3.4,0-7,0.6-10.7,1.8
		c-16.7,5.4-28.5,21.8-26.4,36.5l0,0.2C266,228.7,267,231.4,268.4,233.8L268.4,233.8z"/>
	<path class="st23" d="M286.9,243.3c-12.9,0-23.2-7.6-25.1-19.8c-2.4-15.7,10.1-33,27.8-38.8c3.9-1.3,7.7-1.9,11.3-1.9
		c12.9,0,23.3,7.6,25.1,19.8c2.4,15.7-10.1,33-27.8,38.8C294.3,242.7,290.5,243.3,286.9,243.3z M268.4,233.8
		c1.9,2.1,4.2,3.9,6.9,5.3c3.6,1.8,7.7,2.7,12,2.7c2.5,0,5-0.3,7.6-0.9c1-0.2,2.1-0.5,3.1-0.9c1.5-0.5,3-1.1,4.5-1.8
		c1.2-0.6,2.4-1.2,3.5-1.9c4.5-2.7,8.5-6.2,11.6-10.2c3.7-4.8,6.1-10.2,6.8-15.6c0.3-2.3,0.3-4.7,0-7l0-0.2
		c-0.1-0.9-0.3-1.7-0.5-2.5c-0.4-1.3-0.8-2.6-1.4-3.8c-0.3-0.6-0.6-1.1-0.9-1.6c-4.1-6.8-11.9-10.8-21-10.8c-3.4,0-7,0.6-10.7,1.8
		c-16.7,5.4-28.5,21.8-26.4,36.5l0,0.2C264.1,227.1,265.8,230.8,268.4,233.8L268.4,233.8z"/>
	<path class="st7" d="M252.9,240.5l0.3,0c0.8-0.3,4.4-1.7,4.4-3.1c-0.1-2.2-2.5-3.7-3.2-3.3c-0.6,0.3,0.2,1.6,0.2,1.6
		s0.1-0.3-0.6-0.1c-0.7,0.2,0,1.5,0,2.3C254,238.6,251.7,240.3,252.9,240.5L252.9,240.5z"/>
	<path class="st14" d="M228,248.1c0,0,0.6-0.2,1.3-0.5c0.7-0.3,1.4-0.6,1-0.8c-0.3-0.1-1-0.1-1.6,0c-1.5,0.2-3.1,0.8-1.9,1.2
		C227.4,248.3,228,248.1,228,248.1L228,248.1z"/>
	<path class="st7" d="M225.1,247.8c0.1-0.2,0.4-0.3,0.6-0.3c0.8,0,2.7-0.1,3.5,0.1c1,0.3,3.6,2.2,3.6,2.8c0,0.6-1.3-0.1-1.3-0.1
		s1.5,0.6,1.4,1.4c-0.2,0.7-2.6-0.1-2.6-0.1s0.6,1,0.1,1c-0.4-0.1-1.7-0.6-2.6-0.9c-0.3-0.1-1.2-0.5-1.4-0.7c-0.6-0.6-1.9-1.8-1.9-2
		C224.4,248.7,224.8,248.1,225.1,247.8z"/>
	<path class="st16" d="M194,227.6c0,0,17.2-17.8,19.9-29.8c0.4-2-0.3-5.8,0.9-6.6c1.2-0.8,6.2,3.6,6.7,4.9c0.5,1.3,0.4,9.3-5.5,17
		c-5.9,7.7-11.7,16.4-11.7,16.4S194.3,228.3,194,227.6L194,227.6z"/>
	<path class="st0" d="M196.1,186.4c-2.3,2-4.7,8.5-3.5,16.9c1.1,7.6,3.8,22.2,11,27.8c5.3,4.2,3.2-10.4,3.2-10.4l-5-18.9
		C201.7,201.9,198.6,184.3,196.1,186.4L196.1,186.4z"/>
	<path class="st0" d="M198.5,220.6c-1.8,6.5,14.4,31.4,24.3,29.1c3.7-0.9,4.2-3.3,4.2-3.3l-20.8-27.5
		C206.3,218.8,200.5,213.2,198.5,220.6L198.5,220.6z"/>
	<path class="st7" d="M220.4,185c0,0-6.1,4.9-6.4,5.8c-0.3,0.9-0.1,2.8,1.9,2c2-0.8,6.2-6.2,6.2-6.2L220.4,185L220.4,185z"/>
	<path class="st15" d="M221.3,184.1c0,0-6.1,4.9-6.4,5.8c-0.3,0.9,0.1,2.8,2.1,2.1c2-0.8,6-6.2,6-6.2L221.3,184.1z"/>
	<path class="st7" d="M227.6,183.6c-0.5-3.4-6.6-5.5-7.9-5.3c-1.5,0.2-2.3,1.8-2.9,2.9c-0.6,1.2-2.4,6.6,1.1,9.2
		C224.3,195.2,227.6,183.6,227.6,183.6L227.6,183.6z"/>
	<path class="st13" d="M209.9,183c0,0,9.4,4,15.9-2.1c0,0-1.3,5.8,2.7,9.4c0,0,4.6-6.9-0.7-12.8C222.6,171.5,210.1,179.1,209.9,183
		L209.9,183z"/>
	<path class="st0" d="M293.6,59.4c3.1,1,5,4.3,4.8,7.5l0,0.1c0,0.4,0.6,0.5,0.7,0.1l0-0.1c1.3-5.2,1.4-12.4,6.8-15.2
		c2.5-1.3,5.5-0.9,7.4,1.3c2.1,2.4,2.3,5.7,2.6,8.8c0,0.3,0.5,0.5,0.6,0.2l0.1-0.1c1-1.4,3.2-1.2,4.3-0.1c1.4,1.3,1.7,3.5,1.8,5.3
		c0,0.2,0.1,0.4,0.3,0.3c2.7-0.3,5.1,2,5.1,4.7l0.1,0.2c-4.6-0.2-9.2-0.1-13.9-0.1c-4.9,0-9.9,0-14.8,0c-9.9,0-19.7,0-29.6,0
		c-5.4,0-11-0.2-16.4,0.1c-1.4-3.8,2.6-7.4,6.2-5.4c0.2,0.1,0.6-0.1,0.5-0.4l-0.1-0.2c-2.1-6.4-1.4-13.5,2.3-19.2
		c1.7-2.7,4.5-5.5,7.9-5.3c3.3,0.2,5.6,3.1,6.7,6c1.5,4.1,0.8,8.6,1.4,12.8c0.1,0.4,0.6,0.4,0.7,0c0.1-1.6,1.8-2.6,3.3-2.2
		c1.5,0.5,2.3,2.1,2.5,3.6l0,0.2c0,0.3,0.5,0.5,0.6,0.2C287.1,59.7,290.6,58.4,293.6,59.4L293.6,59.4z"/>
	<path class="st0" d="M328.1,72.2c0.2,0,0.4,0,0.6,0C328.6,72.4,328.3,72.4,328.1,72.2z"/>
	<path class="st0" d="M323.3,66.6c0,0.1,0,0.2,0,0.4c-0.1-0.1-0.2-0.2-0.3-0.3L323.3,66.6z"/>
	<path class="st0" d="M323.3,66.6c2.9-0.1,5.5,2.4,5.5,5.4l-0.1,0.2c-0.2,0-0.4,0-0.6,0l-0.1-0.2c0.1-2.7-2.4-4.9-5.1-4.7
		c-0.2,0-0.3-0.2-0.3-0.3c-0.1-1.8-0.4-4-1.8-5.3c-1.2-1.1-3.4-1.3-4.3,0.1l0,0c0-0.3,0-0.6-0.1-0.9c1.1-1,2.9-1,4.2-0.2
		C322.7,61.9,323.2,64.5,323.3,66.6l-0.3,0c0.1,0.1,0.2,0.2,0.3,0.3C323.3,66.9,323.3,66.8,323.3,66.6z"/>
	<path class="st0" d="M316.5,61.8c-0.2-0.1-0.4-0.1-0.6-0.2c0.2-0.3,0.3-0.5,0.6-0.7C316.5,61.2,316.5,61.5,316.5,61.8z"/>
	<path class="st0" d="M315.8,61.8c-0.2-3-0.5-6.4-2.6-8.8c-1.9-2.2-4.8-2.6-7.4-1.3c-5.4,2.8-5.5,10-6.8,15.2h0
		c0.1-0.8,0-1.7-0.2-2.5c1.1-5.4,2.1-12,7.9-13.8c2.7-0.9,5.4,0,7.1,2.1c1.9,2.3,2.3,5.3,2.5,8.2c-0.2,0.2-0.4,0.4-0.6,0.7
		c0.2,0.1,0.4,0.1,0.6,0.2l0,0l-0.1,0.1C316.3,62.2,315.9,62.1,315.8,61.8z"/>
	<path class="st0" d="M298.9,64.4c0.2,0.8,0.2,1.6,0.2,2.5c-0.2,0-0.5-0.1-0.7-0.1C298.6,66.1,298.7,65.3,298.9,64.4z"/>
	<path class="st0" d="M299.1,66.9L299.1,66.9L299.1,66.9c-0.1,0.5-0.7,0.4-0.7,0l0-0.1h0C298.6,66.8,298.8,66.9,299.1,66.9
		L299.1,66.9z"/>
	<path class="st0" d="M285.5,62.1c-0.2-0.1-0.4-0.1-0.6-0.2c0.2-0.2,0.3-0.5,0.5-0.7C285.4,61.5,285.4,61.8,285.5,62.1z"/>
	<path class="st0" d="M293.6,59.4c-3-1-6.5,0.3-8.2,2.9c-0.2,0.3-0.6,0.2-0.6-0.2l0-0.2l0.1,0c0.2,0.1,0.4,0.1,0.6,0.2
		c0-0.3-0.1-0.6-0.1-0.9c2-2.4,5.4-3.6,8.5-2.6c2.6,0.9,4.5,3.1,5.1,5.8c-0.2,0.8-0.3,1.6-0.5,2.4h0
		C298.6,63.6,296.7,60.4,293.6,59.4z"/>
	<path class="st0" d="M282,57.6c1.9,0.2,3,1.9,3.4,3.6c-0.2,0.2-0.4,0.5-0.5,0.7l-0.1,0c-0.1-1.5-0.9-3.1-2.5-3.6
		c-1.5-0.4-3.2,0.6-3.3,2.2c0,0.4-0.6,0.4-0.7,0c0.2,0,0.4-0.1,0.6-0.1c-0.1-0.5-0.1-1-0.2-1.4C279.5,58.1,280.7,57.5,282,57.6z"/>
	<path class="st0" d="M278.8,59c0,0.5,0.1,1,0.2,1.4c-0.2,0-0.4,0.1-0.6,0.1C278.4,60,278.5,59.5,278.8,59z"/>
	<path class="st0" d="M260,66.3c-0.2,0.1-0.3,0.2-0.5,0.4c-0.1-0.2-0.2-0.5-0.2-0.7C259.6,66.1,259.8,66.2,260,66.3z"/>
	<path class="st0" d="M277.6,47.5c1.3,3.7,0.9,7.7,1.2,11.5c-0.3,0.4-0.5,0.9-0.5,1.5c-0.6-4.2,0.1-8.8-1.4-12.8
		c-1.1-2.9-3.4-5.8-6.7-6c-3.4-0.2-6.2,2.7-7.9,5.3c-3.6,5.7-4.3,12.8-2.3,19.2l-0.1,0c-0.2-0.1-0.5-0.2-0.7-0.3
		c-1.2-3.7-1.4-7.7-0.6-11.5c0.7-3.5,2.2-7,4.5-9.7c2-2.4,5.1-4.4,8.3-3.5C274.5,42,276.6,44.8,277.6,47.5L277.6,47.5z"/>
	<path class="st0" d="M253.5,72.3c0.1,0.3-0.3,0.4-0.4,0.1l0,0l0.1-0.1L253.5,72.3C253.5,72.2,253.5,72.3,253.5,72.3z"/>
	<path class="st0" d="M260.2,66.5c0.1,0.3-0.2,0.5-0.5,0.4c-3.6-2.1-7.6,1.5-6.2,5.4l-0.3,0l-0.1,0.1c-1.7-4,2.5-7.7,6.3-6.3
		c0.1,0.2,0.2,0.5,0.2,0.7c0.2-0.1,0.3-0.2,0.5-0.4l0.1,0C260.1,66.3,260.2,66.5,260.2,66.5z"/>
	<path class="st0" d="M269.9,72.1c9.9,0,19.7,0,29.6,0c4.9,0,9.9,0,14.8,0c4.6,0,9.3-0.1,13.9,0.1c0.1,0.2,0.4,0.2,0.6,0
		c0.1,0,0.2,0,0.4,0c0.3,0,0.3,0.4,0,0.4c-5.6,0.3-11.2,0.1-16.7,0.1c-9.9,0-19.7,0-29.6,0c-4.9,0-9.9,0-14.8,0
		c-4.9,0-9.9,0.2-14.8-0.1c-0.2,0-0.2-0.2-0.1-0.3l0,0c0.1,0.3,0.5,0.2,0.4-0.1l0,0C259,71.9,264.5,72.2,269.9,72.1z"/>
	<path class="st0" d="M215,23.8c0,0.2,0.2,0.3,0.3,0.3l0,0.3c-8.1-0.3-16.2-0.2-24.2-0.2c-4.1,0-8.1,0-12.2,0c-2,0-4.1,0-6.1,0
		c-1.6,0-3.3-0.1-4.9,0.1l0-0.1c0.1,0,0.2-0.1,0.2-0.2c0-2.4,1.1-4.8,3.4-5.9c2.2-1.1,4.8-0.6,6.7,0.9l0.2,0.1
		c0.2,0.2,0.5,0,0.6-0.2c0.7-6.9,4-14.5,11.3-16.6c3.4-1,7.3-0.4,10,2c2.4,2.2,3.5,5.7,2.5,8.8c-0.1,0.3,0.3,0.6,0.5,0.4l0.2-0.1
		c2.4-1.6,5.5,0.4,4.9,3.3c0,0.2,0.1,0.4,0.3,0.4c0.1,0,0.2,0,0.3,0C212.4,17.4,215.1,20.2,215,23.8z"/>
	<path class="st0" d="M208.9,16.7c3.9,0,6.9,3.2,6.8,7.1c0,0.2-0.2,0.3-0.4,0.3c-0.2,0-0.3-0.1-0.3-0.3c0.1-3.6-2.7-6.4-6.2-6.4
		l0-0.2C208.9,17,208.9,16.8,208.9,16.7L208.9,16.7z"/>
	<path class="st0" d="M208.5,16.7c0.1,0,0.3,0,0.4,0c0,0.1,0,0.3-0.1,0.4C208.7,17,208.6,16.8,208.5,16.7z"/>
	<path class="st0" d="M203.4,12.8c2.7-1.3,5.7,0.9,5.5,3.9c-0.1,0-0.3,0-0.4,0c0.1,0.1,0.2,0.3,0.3,0.4l0,0.2c-0.1,0-0.2,0-0.3,0
		c-0.2,0-0.4-0.2-0.3-0.4c0.6-2.9-2.5-4.9-4.9-3.3l0-0.1C203.3,13.3,203.4,13,203.4,12.8L203.4,12.8z"/>
	<path class="st0" d="M203.4,12.8c-0.1,0.3-0.1,0.5-0.2,0.8c-0.2-0.1-0.3-0.2-0.5-0.4C203,13,203.2,12.9,203.4,12.8z"/>
	<path class="st0" d="M178.8,18.9c-0.2,0.1-0.4,0.1-0.6,0.2c0-0.2,0-0.4,0.1-0.6C178.4,18.6,178.6,18.7,178.8,18.9L178.8,18.9z"/>
	<path class="st0" d="M195.6,1.7c5.1,1,9,5.9,7.8,11.1c-0.2,0.1-0.5,0.3-0.7,0.4c0.2,0.1,0.3,0.3,0.5,0.4l0,0.1l-0.2,0.1
		c-0.2,0.2-0.6-0.1-0.5-0.4c1-3.1-0.1-6.6-2.5-8.8c-2.6-2.4-6.6-3-10-2c-7.3,2.1-10.5,9.7-11.3,16.6c0,0.3-0.3,0.4-0.6,0.2l-0.2-0.1
		l0.1-0.1c0.2-0.1,0.4-0.2,0.6-0.2c-0.2-0.1-0.3-0.3-0.5-0.4c0.4-3.4,1.3-6.9,3.2-9.8C184.4,3.9,189.9,0.5,195.6,1.7z"/>
	<path class="st0" d="M178.3,18.5c0,0.2,0,0.4-0.1,0.6l-0.1,0.1c-1.8-1.6-4.5-2-6.7-0.9c-2.2,1.1-3.3,3.5-3.4,5.9
		c0,0.1-0.1,0.2-0.2,0.2l-0.1-0.1c-0.4-2.6,1.2-5.3,3.5-6.5C173.6,16.6,176.3,17,178.3,18.5z"/>
	<path class="st0" d="M191.1,24.2c8.1,0,16.2-0.1,24.2,0.2l0.1,0c0.1,0,0.1,0.2,0,0.2c-8.1,0.3-16.2,0.2-24.4,0.2
		c-4.1,0-8.1,0-12.2,0c-2,0-4.1,0-6.1,0c-1.9,0-3.8,0.1-5.7-0.2v0c0.3,0,0.5-0.1,0.8-0.1c1.6-0.2,3.3-0.1,4.9-0.1c2,0,4.1,0,6.1,0
		C183,24.2,187,24.2,191.1,24.2L191.1,24.2z"/>
	<path class="st11" d="M221.2,117.8c0.4-7.3-4.9-13.5-11.8-13.8c-6.9-0.4-12.8,5.2-13.2,12.5c-0.3,5.1,2.2,9.6,6.1,12.1
		c0.1,0.3,0.2,0.6,0.3,0.9c0.3,1.2,0.5,2.4,1.1,3.4c1,1.7,2.9,2.2,4.6,2.3c0.1,0,0.2,0,0.4,0c0.2,0,0.4,0,0.6,0
		c1.3,0,3.4-0.5,4.2-1.9c0.2-0.3,0.3-0.7,0.4-1c0.1-0.2,0.2-0.4,0.3-0.7c0.4-0.9,0.6-2,0.8-3C218.5,126.3,221,122.4,221.2,117.8
		L221.2,117.8z"/>
	<path class="st24" d="M209.7,120.9c0-0.3,0-0.6,0.1-0.9c0.3,0.1,0.7,0.3,1,0.4c0.2,0.3-0.4,1.2-0.5,1.4c-0.2,0.2-0.3,0.4-0.5,0.6
		C209.7,121.8,209.7,121.4,209.7,120.9L209.7,120.9z M205.2,121.6c-0.2-0.3-0.5-0.8-0.4-1.1c0.2-0.9,1-0.6,1.5,0
		c0.7,0.7,1.2,1.6,1.4,2.6C206.7,123,205.7,122.4,205.2,121.6z M209.7,122.9c0.3-0.2,0.5-0.4,0.7-0.6c0.7-0.8,1.3-2.3,0.4-3.1
		c-0.8-0.8-1.6,0.1-1.8,0.9c-0.2,0.8-0.2,1.7-0.1,2.7c-0.3,0.1-0.5,0.2-0.8,0.2l0-0.2c-0.4-1.2-1.2-3-2.6-3.5
		c-1.1-0.4-1.4,0.6-1.3,1.4c0.3,1.7,1.9,2.8,3.6,2.8c0.1,0.3,0.2,0.7,0.2,1c0.6,3.5,0.3,7-0.3,10.5c0,0.1,0.2,0.2,0.3,0
		c1.1-3.6,1.2-7.9,0.2-11.6c0.3,0,0.5-0.1,0.7-0.2c0.1,1.2,0.3,2.4,0.4,3.5c0.2,2.7,0.1,5.2-0.6,7.8c-0.1,0.3,0.4,0.5,0.5,0.2
		c1.2-2.8,0.9-6.1,0.6-9.1C209.9,124.8,209.8,123.8,209.7,122.9L209.7,122.9z"/>
	<path class="st3" d="M211.6,135.3c0-0.3-0.2-0.6-0.5-0.7c-0.2-0.1-0.3-0.1-0.5,0c-0.1-0.1-0.3-0.1-0.4,0c-0.7,0.2-1.4,0.2-2.1,0.2
		c-0.4-0.1-0.9-0.2-1.3-0.3c-0.4-0.1-0.8-0.2-1,0.1c-0.1,0.1-0.1,0.2-0.1,0.3c-0.1,0.2-0.2,0.5-0.1,0.7c0.1,0.3,0.3,0.5,0.5,0.6
		c-0.2,0.2-0.3,0.4-0.2,0.6c0.1,0.3,0.3,0.5,0.6,0.6c0.1,0.1,0.3,0.1,0.4,0.2c-0.1,1.4,4.2,1.2,3.9-0.2l0-0.1
		c0.3-0.1,0.5-0.3,0.6-0.5c0.1-0.3,0.1-0.6-0.1-0.8C211.5,135.8,211.6,135.6,211.6,135.3L211.6,135.3z"/>
	<polygon class="st0" points="387.4,12.7 393.4,20 428.8,13.2 	"/>
	<path class="st3" d="M393,19.7c0.4,0.4,0.6,11.3,0.6,11.3l1.8-9l33.1-8.7C428.6,13.2,393,19.7,393,19.7z"/>
	<polygon class="st25" points="407.1,26.4 393.6,31 395.5,21.9 413.4,22.1 	"/>
	<path class="st0" d="M395.5,21.9c0.2,0.1,4,9.7,4,9.7l29.3-18.4L395.5,21.9z"/>
	<path class="st0" d="M106.7,60.7c2.8,2.1,3.7,5.6,3.5,9c-10.9,0.5-21.8,0.7-32.8,0.6c0.1-3.3-2.3-6.1-5.4-6.6
		c2.1-5.8,5.8-11.8,12.3-12.8c7.4-1.1,13.1,5.8,11.9,12.9c-0.1,0.6,1.1,0.4,1.2-0.1C98.4,59.3,103.3,58.3,106.7,60.7z"/>
	<path class="st0" d="M104.6,58.6c5,1.1,7.1,6.2,6.9,10.9c0,0.2-0.1,0.3-0.3,0.4c0.1,0.3-0.2,0.6-0.6,0.6
		c-11.1,0.5-22.2,0.7-33.3,0.6c-7.8,0.3-15.5,0.2-23.3,0.2c-3.9,0-7.8,0-11.7,0c-1.9,0-3.9,0-5.8,0c-1.8,0-3.7,0.1-5.4-0.2v0
		c0.2,0,0.5-0.1,0.7-0.1l0-0.1l-0.1-0.1c-0.3-2.5,1.1-5.1,3.4-6.2c2.2-1,4.7-0.7,6.6,0.7c0.4-3.3,1.3-6.6,3-9.4
		c2.9-4.6,8.1-7.8,13.6-6.7c4.9,1,8.6,5.7,7.5,10.6c2.5-1.2,5.4,0.8,5.2,3.7c2.4-6.3,6.6-12.6,13.8-13.5c6.9-0.8,12.6,4.5,12.9,11
		C99.3,59,102,58,104.6,58.6L104.6,58.6z M110.2,69.6c0.2-3.3-0.7-6.9-3.5-9c-3.3-2.4-8.3-1.4-9.2,2.9c-0.1,0.5-1.3,0.7-1.2,0.1
		c1.2-7.1-4.5-14-11.9-12.9c-6.5,1-10.2,7-12.3,12.8c3.1,0.5,5.5,3.3,5.4,6.6C88.4,70.3,99.3,70.1,110.2,69.6z"/>
	<path class="st13" d="M15.7,96.6c-0.7,4.7-4.2,7.7-7.8,7.5c-0.8,0-1.7-0.1-2.3-0.4c-3.5-1.2-3.5-5.1-2.9-9.1
		c0.7-4.4,1.4-8.4,6.4-7.7c0.3,0,1.1,0.2,1.4,0.2C14,87.9,16.4,91.9,15.7,96.6z"/>
	<path class="st11" d="M13.8,96.3c-0.7,4.7-4.2,8-7.8,7.5S0.2,99,0.9,94.3c0.7-4.7,4.2-8,7.8-7.5C12.2,87.4,14.6,91.6,13.8,96.3z"/>
	<path class="st0" d="M134.6,354.4c0,5-23.8,9.1-53.1,9.1c-29.4,0-53.1-4.1-53.1-9.1c0-5,23.8-9.1,53.1-9.1
		C110.8,345.3,134.6,349.4,134.6,354.4z"/>
	<path class="st2" d="M18.8,257L18.8,257c-0.2,0-0.2-0.2-0.2-0.3L29,219.7c0-0.1,0.2-0.2,0.3-0.2c0.1,0,0.2,0.2,0.2,0.3L19,256.9
		L18.8,257L18.8,257z"/>
	<polygon class="st8" points="78.8,318.8 81.3,318.8 81.3,315.2 78.8,315.2 	"/>
	<path class="st8" d="M89.6,313.7H70.3c-4,0-7.2-3.2-7.2-7.2h33.7C96.8,310.5,93.6,313.7,89.6,313.7z"/>
	<path class="st13" d="M34,299.3l-6.4-79.7c-0.4-5.4,3.4-10.3,8.7-11.1c8-1.3,20.4-2.4,34.8-0.4c7.4,1,15.4,3.6,16.4,11.1
		c0.3,2.2-0.1,8.1-0.2,10.6c-0.5,11.5,2.6,19.8,4.6,26c2,6.2,6.5,25.7,4.3,36c0,0,26.2-0.8,32.5-0.4c6.3,0.4,4.2,9.4,3,10.5
		c-1.2,1.1-23.1,5.5-44.5,6.5c-16.4,0.7-35.8,1.4-46.2-0.8C37.2,306.6,34.3,303.2,34,299.3L34,299.3z"/>
	<path class="st26" d="M59.8,297.6c0,0,8.2-1.3,15.9-2.3c7.6-1,52.8-5,54.5-3.7c1.8,1.3,2.8,1,2.8,5.3c0,4.3-0.2,3.8-1.4,4.9
		c-0.8,0.7-12.1,3.4-28.3,5.2c-7.6,0.8-15.5,1.2-24.6,1.6c-29.5,1.5-28-2-28-2L59.8,297.6z"/>
	<path class="st4" d="M73.3,313.7l6.8,3.1c0,0,6.1-3.1,6.4-3.1c0.2,0,0.2,0,0.2,0S73.3,313.7,73.3,313.7z"/>
	<path class="st4" d="M83.5,324.2h-6.8v-2.4c0-1.9,1.5-3.4,3.4-3.4c1.9,0,3.4,1.5,3.4,3.4V324.2z"/>
	<path class="st8" d="M84.7,339.9h-9.5l0.1-16c0-0.5,0.4-1,1-1h7.5c0.5,0,1,0.4,1,1C84.7,323.9,84.7,339.9,84.7,339.9z"/>
	<path class="st4" d="M57.1,318.9c-0.2,0-0.3-0.1-0.5-0.2c-0.2-0.3-0.2-0.7,0-0.9l3.5-3.2c0.1-0.1,0.3-0.2,0.4-0.2h17
		c0.3,0,0.6,0.3,0.6,0.6c0,0.3-0.3,0.6-0.6,0.6H60.8l-3.3,3C57.4,318.9,57.2,318.9,57.1,318.9L57.1,318.9z"/>
	<path class="st8" d="M58,317.7c0.5,0.6-0.3,2-1.8,3.3c-1.5,1.3-3.1,1.8-3.6,1.2c-0.5-0.6,0.3-2,1.8-3.3
		C55.9,317.7,57.5,317.1,58,317.7z"/>
	<path class="st13" d="M42.1,294.2c0,0,12.3,0.3,32.4-1.3c20.1-1.6,22.4-1.3,22.4-1.3s29.4-1.2,31.9-0.4c0,0-5.1,2.8-20.5,4
		c-15.3,1.2-31.2,3.8-38.9,1.6C65,295.6,38.9,304.6,42.1,294.2L42.1,294.2z"/>
	<path class="st27" d="M64.9,296.2c-8-0.3-18.2-2-22.8-1.3c-3.3,0.5-4.6,1.9-5,1.3c-1.1-1.5,4.2-4.6,4.4-9.8
		c0.2-3.5-2.5-70.8-4.4-75.8l0,0c-0.5-1.4-2.1-2-3.5-1.3c-3.9,1.8-6.4,5.9-6,10.3l6.4,79.8c0.3,3.9,3.1,7.2,7,8.1
		c5.6,1.2,13.9,1.6,22.9,1.5c3,0,8.3-0.1,10.7-3.1C77.7,302,74.1,296.6,64.9,296.2z"/>
	<path class="st3" d="M84.1,354c0,2.3-1.9,4.1-4.1,4.1c-2.3,0-4.1-1.9-4.1-4.1c0-2.3,1.9-4.1,4.1-4.1
		C82.3,349.9,84.1,351.7,84.1,354z"/>
	<path class="st0" d="M81.4,353.6c0.2,0.8-0.4,1.6-1.2,1.8c-0.8,0.2-1.6-0.4-1.8-1.2c-0.2-0.8,0.4-1.6,1.2-1.8
		C80.5,352.2,81.3,352.8,81.4,353.6L81.4,353.6z"/>
	<path class="st8" d="M84.7,354h-9.5c0,0,0-0.6,0.1-0.9c0.4-2.2,2.4-3.8,4.7-3.8c2.4,0,4.4,1.8,4.7,4C84.7,353.5,84.7,354,84.7,354
		L84.7,354z"/>
	<path class="st4" d="M107.5,351.7c1.1,0,1.9-0.9,1.9-1.9v-4.4c0-0.7-0.4-1.4-1-1.7c-0.5-0.3-12.9-6.6-27.5-5.7
		c-1.1,0.1-1.9,1-1.8,2c0.1,1.1,1,1.9,2,1.8c11.3-0.7,21.3,3.3,24.5,4.8v3.2C105.6,350.9,106.4,351.7,107.5,351.7L107.5,351.7z"/>
	<path class="st3" d="M103.6,354.5c0,2.3,1.9,4.1,4.1,4.1c2.3,0,4.1-1.9,4.1-4.1c0-2.3-1.9-4.1-4.1-4.1
		C105.5,350.4,103.6,352.3,103.6,354.5z"/>
	<path class="st0" d="M106.3,354.1c-0.2,0.8,0.4,1.6,1.2,1.8c0.8,0.2,1.6-0.4,1.8-1.2c0.2-0.8-0.4-1.6-1.2-1.8
		C107.2,352.8,106.5,353.3,106.3,354.1z"/>
	<path class="st8" d="M103,354.5h9.5c0,0,0-0.6-0.1-0.9c-0.4-2.2-2.4-3.8-4.7-3.8c-2.4,0-4.4,1.8-4.7,4C103,354,103,354.5,103,354.5
		z"/>
	<path class="st4" d="M53.1,351.6c-1.1,0-1.9-0.9-1.9-1.9v-4.4c0-0.7,0.4-1.4,1-1.7c0.5-0.3,12.9-6.6,27.5-5.7c1.1,0.1,1.9,1,1.8,2
		c-0.1,1.1-1,1.9-2,1.8c-11.3-0.7-21.3,3.3-24.5,4.8v3.2C55.1,350.7,54.2,351.6,53.1,351.6L53.1,351.6z"/>
	<path class="st8" d="M80,352.9c-1.1,0-1.9-0.9-1.9-1.9v-14.2c0-1.1,0.9-1.9,1.9-1.9c1.1,0,1.9,0.9,1.9,1.9V351
		C82,352.1,81.1,352.9,80,352.9z"/>
	<path class="st3" d="M57.1,354.4c0,2.3-1.9,4.1-4.1,4.1c-2.3,0-4.1-1.9-4.1-4.1s1.9-4.1,4.1-4.1C55.2,350.3,57.1,352.1,57.1,354.4z
		"/>
	<path class="st0" d="M54.4,354c0.2,0.8-0.4,1.6-1.2,1.8c-0.8,0.2-1.6-0.4-1.8-1.2c-0.2-0.8,0.4-1.6,1.2-1.8
		C53.4,352.6,54.2,353.2,54.4,354z"/>
	<path class="st8" d="M57.7,354.4h-9.5c0,0,0-0.6,0.1-0.9c0.4-2.2,2.4-3.8,4.7-3.8c2.4,0,4.4,1.8,4.7,4
		C57.7,353.9,57.7,354.4,57.7,354.4z"/>
	<path class="st2" d="M62.8,242.1l-0.2-0.1c-0.1-0.3-14.7-28.4-16.9-31.1c-2.1-2.7-5.5-2.9-5.5-2.9c-0.1,0-0.2-0.1-0.2-0.2
		c0-0.1,0.1-0.2,0.2-0.2c0.1,0,3.6,0.2,5.8,3.1c2.2,2.8,16.3,30,16.9,31.2c0.1,0.1,0,0.2-0.1,0.3L62.8,242.1z"/>
	<path class="st28" d="M64.9,249.7l-41.9,14.2c-1.4,0.5-3-0.3-3.5-1.7l-2.3-6.9c-0.5-1.4,0.3-3,1.7-3.5l41.9-14.2
		c1.4-0.5,3,0.3,3.5,1.7l2.3,6.9C67.1,247.7,66.3,249.2,64.9,249.7L64.9,249.7z"/>
	<path class="st2" d="M23.2,254.6c1.6,1.5,2.9,3.1,4.3,4.8c0.2,0.3,0.9-0.2,0.9-0.5c0.1-2.1,0.6-4.2,0.6-6.4c0-0.3-0.9,0.1-0.9,0.4
		c0,2.2-0.5,4.3-0.6,6.4c0.3-0.2,0.6-0.3,0.9-0.5c-1.4-1.7-2.7-3.3-4.3-4.8C23.7,253.7,22.9,254.4,23.2,254.6z"/>
	<path class="st2" d="M31.6,257.9c0.1-2.1,0.2-4.2,0.1-6.4c-0.3,0.1-0.6,0.2-0.9,0.4c1.3,1.7,2.7,3.3,4.2,4.9
		c0.3,0.3,1.1-0.3,0.7-0.7c-1.5-1.5-2.9-3-4.1-4.7c-0.2-0.3-0.9,0-0.9,0.4c0.1,2.1,0,4.2-0.1,6.4C30.6,258.6,31.5,258.3,31.6,257.9z
		"/>
	<path class="st2" d="M31.3,255.6c0.7-0.4,1.4-0.5,2.1-0.9c0.2-0.1,0.5-0.3,0.4-0.5c0-0.2-0.3-0.2-0.5-0.1c-0.7,0.4-1.4,0.5-2.1,0.9
		c-0.2,0.1-0.5,0.3-0.4,0.5C30.9,255.7,31.2,255.7,31.3,255.6z"/>
	<path class="st2" d="M43.3,253.7c0.2-2.1,0.4-4.3,0.5-6.4c-0.3,0.1-0.6,0.2-0.9,0.4c1.1,1.8,2.4,3.4,3.8,5c0.3,0.4,1.2-0.2,0.8-0.6
		c-1.4-1.6-2.7-3.2-3.8-5c-0.2-0.4-0.9,0-0.9,0.4c0,2.1-0.2,4.3-0.5,6.4C42.3,254.4,43.3,254.1,43.3,253.7z"/>
	<path class="st2" d="M43.2,251.4c0.7-0.3,1.4-0.5,2.1-0.8c0.2-0.1,0.5-0.3,0.4-0.5c0-0.2-0.3-0.2-0.5-0.1c-0.7,0.3-1.4,0.5-2.1,0.8
		c-0.2,0.1-0.5,0.3-0.4,0.5C42.8,251.6,43.1,251.5,43.2,251.4L43.2,251.4z"/>
	<path class="st2" d="M39.9,249.6c-2.2-1.7-5.3,1.7-4.6,3.9c0.9,3.1,5.2,2.1,6.6-0.1c0.3-0.5-0.6-0.2-0.8,0.1c-1,1.7-3.7,1.7-4.7,0
		c-0.9-1.7,1-4.7,2.8-3.2C39.4,250.5,40.2,249.9,39.9,249.6z"/>
	<path class="st2" d="M46.8,246.5c0.6,1.9,1.3,3.7,1.9,5.6c0.1,0.2,0.9-0.3,0.8-0.6c-0.6-1.9-1.3-3.7-1.9-5.6
		C47.6,245.7,46.7,246.2,46.8,246.5z"/>
	<path class="st2" d="M47.2,246.6c1.8,1.4,3.8,2.5,5.7,3.9c0.3,0.2,0.9-0.2,0.8-0.5c-0.4-1.9-1.1-3.8-1.6-5.7c-0.1-0.4-1,0-0.9,0.4
		c0.4,1.9,1.1,3.8,1.6,5.7c0.3-0.2,0.5-0.4,0.8-0.5c-1.8-1.4-3.8-2.5-5.7-3.9C47.6,245.6,46.8,246.3,47.2,246.6L47.2,246.6z"/>
	<path class="st2" d="M55.1,243.6c0.7,1.8,1.4,3.5,2.1,5.3c0.1,0.2,0.9-0.3,0.8-0.6c-0.7-1.8-1.4-3.5-2.1-5.3
		C55.9,242.9,55,243.4,55.1,243.6z"/>
	<path class="st2" d="M53.1,244.4c1.7-0.5,3.4-1.1,5.1-1.7c0.5-0.2,0.6-0.8-0.1-0.6c-1.6,0.6-3.2,1.1-4.8,1.6
		C52.9,243.8,52.5,244.6,53.1,244.4z"/>
	<path class="st2" d="M21.2,253.3c0,0.4-0.3,0.7-0.7,0.7c-0.4,0-0.7-0.3-0.7-0.7c0-0.4,0.3-0.7,0.7-0.7
		C20.8,252.6,21.2,252.9,21.2,253.3z"/>
	<path class="st2" d="M62.3,239c0,0.4-0.3,0.7-0.7,0.7c-0.4,0-0.7-0.3-0.7-0.7c0-0.4,0.3-0.7,0.7-0.7
		C61.9,238.3,62.3,238.6,62.3,239z"/>
	<path class="st18" d="M45.1,129.4c0,0-5.6-4.3-2.4-9c1.4-2,2.4-1.3,2.4-1.3s1-5.5,7.5-6.2c9.6-0.9,9.4,8.7,9.4,8.7s3.6-1,4.5,2.5
		c0.2,0.9,0.2,2.3-1.1,3.6c0,0,5.9-0.8,8.4,2.7c4.3,5.9,3.5,13-5.1,17.2c-11.2,5.5-17.3-7.6-17.3-7.6S45.1,129.4,45.1,129.4z"/>
	<path class="st7" d="M41.9,143.2c0,0.2-4.4,5.7-5.3,9.9c-2.6,12.8,1.1,46.1,1.9,52.9c0.1,0.9,0.5,0.2,0.7-1
		c0.9-7.1,9.8-45.9,9.8-45.9L76.1,207l0.7,0c0,0-6.1-20.9-9.6-32.1c-2.3-7.4-5.3-20.2-13.2-29.7C51.8,144.7,45.1,142.9,41.9,143.2z"
		/>
	<path class="st8" d="M34.3,208.2c0-0.3,1.5-1,2.5-1.4c-0.3,0.2-0.6,0.5-0.1,0.6c0.7,0.2,2.3-0.1,2.7-0.6c0.2,0.4,0.2,0.9,0.3,1.3
		C39.7,208.6,34.4,209.1,34.3,208.2L34.3,208.2z"/>
	<path class="st7" d="M36.8,207.4c-0.5-0.1-0.2-0.4,0.1-0.6c0.6-0.2,1.2-0.4,1.3-0.4c0.3-0.2,0.4-0.4,0.4-0.4l0.3-0.1
		c0,0,0.6,0.8,0.6,1C39,207.3,37.5,207.6,36.8,207.4z"/>
	<path class="st8" d="M80.8,208.6c0-0.5-1.5-1-2.6-1.3c0.3,0.2,0.6,0.5,0.1,0.6c-0.7,0.2-2.2,0-2.7-0.5c-0.2,0.4-0.2,0.9-0.2,1.3
		C75.4,209.3,80.7,209.5,80.8,208.6z"/>
	<path class="st7" d="M78.3,208c0.5-0.1,0.2-0.4-0.1-0.6c-0.6-0.2-1.2-0.3-1.3-0.4c-0.3-0.1-0.4-0.4-0.4-0.4l-0.3-0.1
		c0,0-0.5,0.9-0.6,1C76.1,208,77.6,208.2,78.3,208z"/>
	<path class="st6" d="M42.6,142.1c0,0-3.9,4.8-5.5,8c-2.7,5.4-1.8,12.5-1.3,22.6c0,0,8.9,7,25.8,2.7c0,0,4.8-1.7,5.4-2.5
		c0,0-4.8-22-12.7-28.7C46.3,137.6,42.6,142.1,42.6,142.1z"/>
	<path class="st10" d="M49.1,176.7c0,0,0.5,0,0.7,0c3.4,0.1,7.3-0.2,11.8-1.4c0,0,4.8-1.7,5.4-2.5c0,0-4.8-22-12.7-28.7
		c-1.3-1.1-2.6-1.9-3.7-2.5c-0.3-0.1-6,1.4-6,1.4s6.9,4.6,6.7,18.6C51.2,167.8,49.1,176.7,49.1,176.7z"/>
	<path class="st0" d="M42.4,126.8c1.7-1.1,6.3-2,14.2,0.5c0.8,0.2,1.5,0.6,2.3,1.1c-0.8,2.7-0.1,6.5-0.1,6.5
		c-2.2,3.8-3.9,9.2-3.9,10.1c-2.8,0.7-11.8-0.8-13-1.7c0,0-1.1-3.1-1.2-8.5C40.6,130.2,42.4,126.8,42.4,126.8z"/>
	<path class="st3" d="M55.1,126.8c0.8,0.2,2.8,0.7,3.7,1.5c-0.8,2.7-0.1,6.5-0.1,6.5c-2.2,3.8-3.5,9.3-3.6,10.2
		c-2.2,0.6-9.1-0.7-9.1-0.7s5.4-3.2,7.4-7.9C55.6,131.7,54.9,126.7,55.1,126.8z"/>
	<path class="st0" d="M43.8,129.6c0,0,0.1,1.1-4.4,5.1c-0.8,0.7-2.2,2.4-4.4,3.5c-1.6,0.8-2.2-2.8-2.2-2.8s6.5-5.7,8.1-7.4
		c0.7-0.7,1.6-1.4,1.6-1.4S43.8,129.6,43.8,129.6z"/>
	<path class="st7" d="M49.6,122.9c0,0,0.7,2.9,0.6,3.3c-0.1,0.4-0.7,0.9-1.2,0.2c-0.5-0.7-0.4-3.3-0.4-3.3L49.6,122.9z"/>
	<path class="st15" d="M50.1,125c-0.3,0.3-0.8,0.5-1.3,0.3c-0.1-0.5-0.1-1.2-0.1-1.6l0.9-0.9C49.7,123.2,50,124.5,50.1,125z"/>
	<path class="st7" d="M46.3,121.8c-0.1-0.3,0.3-1.5,0.6-2.4c0.3-0.8,1.1-1.2,1.9-0.9c1.2,0.4,2.5,1,2.7,1.3c0.4,0.5,0.2,1.4,0,2
		c-0.2,0.6-0.7,1.7-1.2,2.1c-0.5,0.4-1.6,0.5-2.1,0.3C46.6,123.7,46.3,123.1,46.3,121.8z"/>
	<path class="st7" d="M70.2,161.7c0.1-0.1,2,0.1,2.6,0.6c0.5,0.4,1.5,1.7,1.3,2c-0.1,0.3-0.4,0-0.4,0s0.1,0.3-0.1,0.4
		c-0.2,0-0.7-0.6-1.2-0.9c-0.3-0.2-0.7-0.2-0.9-0.4c0,0,0.4,0.7,0.1,0.7c-0.2,0.1-1.1-0.9-1.2-1.3C70.5,162.5,70,161.9,70.2,161.7z"
		/>
	<path class="st3" d="M61.8,144.9c0,0-2.5-8.8-3.4-10.6c-1.9-3.4-2.6-2.9-2.6-2.9l0.1-3.9c0,0,3.1,0.1,4.4,1.8
		c2.4,3.3,5.9,18.3,6.3,18.8C66.5,148.1,61.8,144.9,61.8,144.9z"/>
	<path class="st3" d="M67.6,149.9c1.3,2.1,4.5,8.7,4.5,8.7c1.4,4-3.2,4.8-4.8,3.2c-3.1-2.9-5.9-11.6-5.8-17.6c0-2.3,2.6-2.4,3.9,0.6
		C66.5,147.2,67,148.9,67.6,149.9z"/>
	<path class="st0" d="M39.4,125.5c0.3,0.2,0.4,0.5,0.3,0.8c-0.6,2.1-1.4,7.8-1.7,9c-0.2,1.1-3.7,4.4-4.7,2.5
		c-0.4-0.8-0.4-2.8-0.3-4.1C33.2,129.1,34.5,122.3,39.4,125.5z"/>
	<path class="st1" d="M37.3,125L37.3,125c0.4,0.2,0.9,0,1.1-0.4l1.8-4l-1.5-0.7l-1.8,4C36.7,124.3,36.9,124.8,37.3,125z"/>
	<path class="st13" d="M40.2,114.9c0,0-5.6-5.6-6.9-12.6l-10.3,15c0,0,8.3-1.7,14.9,1.7C37.9,119,40.2,114.9,40.2,114.9z"/>
	<path class="st2" d="M37.2,119.2l3.9,1.7c0.3,0.2,0.8,0,1-0.3l1.8-3.1c0.2-0.3,0.1-0.8-0.2-1l-3.5-2.4c-0.4-0.3-0.9-0.1-1.1,0.2
		l-2.1,3.8C36.6,118.5,36.8,119,37.2,119.2z"/>
	<path class="st28" d="M25.6,108.7c-2.7,4.1-4,7.9-3,8.6c1,0.7,4-2.1,6.7-6.1c2.7-4.1,4.7-8.7,3.6-9.4C32,101,28.3,104.6,25.6,108.7
		z"/>
	<polygon class="st1" points="31.4,110.2 29.6,108.3 26.9,111.9 29.3,113.2 	"/>
	<path class="st2" d="M27.7,109.7c-0.7,1-1.1,2-0.8,2.2c0.3,0.2,1.1-0.5,1.8-1.5c0.7-1,1.1-2,0.8-2.2
		C29.2,108.1,28.4,108.7,27.7,109.7z"/>
	<path class="st13" d="M31.7,107.2c0,0-2.3,4.4-4.1,6.5c-1.9,2.1,3.4,1.6,3.5,1.6C31.1,115.2,32.7,109.2,31.7,107.2z"/>
	<path class="st7" d="M37.8,121.4c0.1-0.2,0.3-0.3,0.5-0.3c0.5,0,1.1,0.2,0.7,0.9c-0.5,0.8-1.3,1-1.7,1.1l-0.1-0.2
		C37.1,122.9,37.8,121.4,37.8,121.4z"/>
	<path class="st7" d="M39,123.1c0,0,0-1.4,0.3-1.1c0.2,0.2,0,0.8,0,0.8s0.1,0.8,0.1,1c0,0.2-0.6,1.3-0.6,1.3l-0.7-0.2l0.2-0.3
		C38.5,124.2,39,123.1,39,123.1z"/>
	<path class="st2" d="M396,70.7l4.4-0.8c-0.1,0-0.3-0.1-0.4-0.1c-0.5-0.3-1.3-0.9-1.5-2.3c-0.1-0.9-0.1-1.5,0.1-1.9l0.1-0.2
		l-8.3,2.5c-0.3,0.1-0.5,0.3-0.6,0.6c0,0.1-0.1,0.3,0,0.5c0,0.3,0.1,0.6,0.2,1.1c0.2,0.5,0.3,0.9,0.5,1.1c0.4,0.6,0.8,0.5,0.8,0.5
		l2.8-0.5C395.6,70.8,395.1,70.9,396,70.7L396,70.7z"/>
	<path class="st2" d="M415.3,60.1c-1.2,1.8,0.6,7.1,1.8,6.8l3.7-0.5c-0.4,0.1-0.9-1-1.4-2.6c0-0.2-0.1-0.3-0.1-0.5
		c0-0.1-0.1-0.2-0.1-0.4l0-0.1l0-0.2l-0.1-0.3l-0.1-0.3l0-0.2c0-0.2-0.1-0.3-0.1-0.5c-0.2-1.4-0.2-2.4,0.1-2.5L415.3,60.1
		L415.3,60.1z"/>
	<path class="st4" d="M418.9,60.4c-0.1,0-0.1,0.5,0,1.1c0,0.1,0,0.3,0.1,0.5l0,0.2l0.1,0.3l0.1,0.3l0,0.2l0,0.1
		c0,0.1,0.1,0.2,0.1,0.4c0,0.2,0.1,0.4,0.1,0.5c0.3,0.8,0.5,1.4,0.7,1.4C420.5,65.1,419.4,60.3,418.9,60.4L418.9,60.4z"/>
	<path class="st6" d="M419,62.1l0-0.2L419,62.1z"/>
	<path class="st6" d="M419.1,62.6l-0.1-0.3L419.1,62.6z"/>
	<path class="st6" d="M419.3,63.2c0-0.1-0.1-0.2-0.1-0.4C419.2,63,419.2,63.1,419.3,63.2z"/>
	<path class="st1" d="M420.7,62.5c-0.5-2-1.2-3.6-1.7-3.5c-0.3,0.1-0.4,1.1-0.1,2.5c-0.1-0.6-0.1-1,0-1.1c0.2,0,0.5,0.7,0.8,1.7l0,0
		c0.1,0.2,0.1,0.4,0.2,0.6c0.1,0.3,0.1,0.6,0.2,0.8c0.2,0.9,0.2,1.6,0.1,1.6c-0.1,0-0.4-0.5-0.7-1.3c0.5,1.6,1.1,2.7,1.4,2.6
		C421.2,66.3,421.2,64.5,420.7,62.5z"/>
	<path class="st24" d="M8.6,90.5c0.6,0.1,1,0.1,1.3,0.2c0.3,0.1,0.6,0.2,0.7,0.3c0.1,0.1,0.3,0.2,0.4,0.3c0.1,0.1,0.2,0.3,0.3,0.5
		c0.1,0.2,0.2,0.4,0.2,0.6s0.1,0.5,0,0.8c0,0.3-0.1,0.5-0.2,0.7c-0.1,0.2-0.2,0.4-0.3,0.6c-0.1,0.2-0.2,0.3-0.4,0.4
		c-0.1,0.1-0.2,0.2-0.4,0.3c-0.2,0.2-0.5,0.3-0.7,0.4C9.5,95.9,9.3,95.9,9,96c-0.3,0-0.5,0-0.7,0c-0.2,0-0.4,0-0.6,0l-0.7-0.1
		l-0.1,0.9l4.3,0.4l-0.1,0.5l-4.3-0.4l-0.2,2.2L8,100l0,0.5l-4.2-0.4l0-0.5l1.4-0.1l0.2-2.2L4,97.1l0.1-0.5l1.4,0.1l0.1-0.9
		l-1.4-0.1l0.1-0.5l1.4,0.1L6,91.1l-1.4-0.4l0-0.5L8.6,90.5L8.6,90.5z M7.6,95.4c0.1,0,0.3,0,0.4,0c0.2,0,0.3,0,0.5,0
		c0.2,0,0.4-0.1,0.5-0.1c0.2-0.1,0.4-0.2,0.5-0.3c0.1-0.1,0.2-0.2,0.3-0.4s0.2-0.5,0.3-1c0-0.5,0-0.9-0.1-1.2
		c-0.1-0.3-0.3-0.5-0.5-0.7c-0.2-0.2-0.5-0.3-0.8-0.5c-0.3-0.1-0.6-0.2-1-0.2l-0.5,0l-0.4,4.4C6.9,95.4,7.6,95.4,7.6,95.4z"/>
</g>
</svg>
