<?xml version="1.0" encoding="utf-8"?>
<!-- Generator: Adobe Illustrator 21.0.2, SVG Export Plug-In . SVG Version: 6.00 Build 0)  -->
<svg version="1.1" id="Layer_1" xmlns="http://www.w3.org/2000/svg" xmlns:xlink="http://www.w3.org/1999/xlink" x="0px" y="0px"
	 viewBox="0 0 23 23" style="enable-background:new 0 0 23 23;" xml:space="preserve">
<style type="text/css">
	.st0{fill:none;stroke:#000000;stroke-miterlimit:10;}
</style>
<g>
	<path class="st0" d="M18.8,7.9c0.1-0.3,0-0.6-0.5-0.6h-1.6c-0.4,0-0.6,0.2-0.7,0.5c0,0-0.8,2-2,3.4c-0.4,0.4-0.6,0.5-0.8,0.5
		c-0.1,0-0.3-0.1-0.3-0.5V7.9c0-0.4-0.1-0.6-0.5-0.6H9.9c-0.3,0-0.4,0.2-0.4,0.4c0,0.4,0.6,0.5,0.7,1.6v2.4c0,0.5-0.1,0.6-0.3,0.6
		c-0.6,0-1.9-2-2.7-4.4C7,7.4,6.8,7.3,6.4,7.3H4.7c-0.5,0-0.6,0.2-0.6,0.5c0,0.4,0.6,2.6,2.6,5.4c1.4,2,3.3,3,5,3
		c1,0,1.2-0.2,1.2-0.6v-1.5c0-0.5,0.1-0.6,0.4-0.6c0.2,0,0.7,0.1,1.6,1.1c1.1,1.1,1.3,1.6,1.9,1.6h1.6c0.5,0,0.7-0.2,0.6-0.7
		c-0.1-0.5-0.7-1.1-1.4-1.9c-0.4-0.4-1-0.9-1.1-1.2c-0.2-0.3-0.2-0.4,0-0.7C16.6,11.7,18.6,8.8,18.8,7.9"/>
	<circle class="st0" cx="11.7" cy="11.5" r="11"/>
</g>
</svg>
