<?xml version="1.0" encoding="utf-8"?>
<!-- Generator: Adobe Illustrator 21.0.2, SVG Export Plug-In . SVG Version: 6.00 Build 0)  -->
<svg version="1.1" id="Layer_1" xmlns="http://www.w3.org/2000/svg" xmlns:xlink="http://www.w3.org/1999/xlink" x="0px" y="0px"
	 viewBox="0 0 165.3 320" style="enable-background:new 0 0 165.3 320;" xml:space="preserve">
<style type="text/css">
	.st0{fill:#F9C4C8;}
	.st1{fill:#F17599;}
	.st2{fill:#2F3081;}
	.st3{fill:#4060AB;}
	.st4{fill:#4670B6;}
	.st5{fill:#EC2E66;}
	.st6{fill:#FFFFFF;}
</style>
<path class="st0" d="M149.9,71.2c0,0,11-5.3,11.6-4.1c0.6,1.2,2.7,8.4-2.8,13c-3.4,2.8-9.9,5.2-14.3,6.5l-4.9-5
	c-0.2-0.1,1.2-2.2,0.7-1.9c1-1.5,1.9-3.3,2.4-4.4c1.2-2.5,7.2-8.4,7.2-8.4S156.7,62.4,149.9,71.2z"/>
<path class="st1" d="M68.4,52.2c0,0,27,24,33.9,51.6c0,0,25.9-19.9,37.9-25.8l7.6,9.1c0,0-24.9,31.6-37.4,38.6
	c-10.3,5.8-18.1,1.3-36.2-24.6S68.4,52.2,68.4,52.2z"/>
<path class="st0" d="M66.3,29.9c-0.3-0.1-0.4-0.1-0.6,0c-0.4,3.2-0.7,5.7-0.7,5.7h-0.4c-0.2,0.3-0.4,0.5-0.7,0.6c0,0.7,0,1.9,0,3.3
	c0.2-0.1,0.4-0.2,0.7-0.4C67.2,37.4,67.6,30.4,66.3,29.9z"/>
<path class="st2" d="M24.2,304.3c0,0-5.8,10.9-5.4,13.1c0.4,2.2,13.4,1.7,13.4,1.7s-1.5-10.4-3.7-13.5c-1.3-1.9-0.4-4.8,0.5-7
	l-4.4-0.6L24.2,304.3z"/>
<path class="st2" d="M47.7,302.5l-4.3,4.8l-0.4,2.9c0,0,28.7,2.6,30.5,2c1.8-0.7-0.4-4-0.4-4l-20.2-5.7l0.5-4.8l-5.8-0.2L47.7,302.5
	z"/>
<path class="st3" d="M72.5,156.9c-4.9,10-11.6,18.4-16.9,28.3c-0.9,1,0.6,5.1-2.8,14.5c0.1,4.7,0.4,15.4-0.2,22.1l-8.4,75.7l3.4,0.1
	l5.8,0.2l8.2,0.3c0,0,22.2-126.8,21-140.4c-0.1-0.8-0.1-1.3-0.2-1.7c-0.1,1.5-0.1,2.4-0.1,2.4S75.3,156.6,72.5,156.9z"/>
<path class="st4" d="M77.6,158.7c-12.5,1-46.4,3.7-50.1,3.5L15.8,296.9l8.8,1.1l4.4,0.6l5.1,0.7c0,0,4.7-42.4,12.9-75
	c1.7-6.9,3.9-13.6,6-19.4c3.4-9.4,6.6-16.3,7.5-17.3C65.7,177.8,72.7,168.7,77.6,158.7z"/>
<path class="st5" d="M31.5,125.7l23.5-8.1l1.9,1.2l0.2-0.1c-1.6-16.6-4.6-47.9-4.2-52c-0.2,0.1-0.4,0.2-0.7,0.3c0,0-2.5,7.7-8.3,3.8
	c-6.1-4.1-12.3-8.3-11.7-13.4c0.1-0.5,1-0.8,1.1-1.2c-0.4-0.4,0-2,0-2l-8.5,7.4C28.1,65.3,29.2,100.4,31.5,125.7z"/>
<path class="st5" d="M68.4,52.2L68.4,52.2l-4.8-0.8c0,2,0,3.6,0,4.2c0,0.3,0,0.6-0.1,1c0,3.1,0,7.3,0,8.4c0,3.8-8.2,1.6-9.7,1.1
	c-0.2,0.2-0.4,0.3-0.7,0.4c1.1,2.9,5.3,27.6,8.2,45.6c1.6-2.6,2.9-4.2,3.4-3.9c1.1,0.5-1.7,6.1-1.7,6.1s7.2-0.6,7.2,2.6
	c0,3.3,10.2,7.8-3.4,9.9c-1.1,0.2-2.1,0.3-3.1,0.4c0.3,2,0.5,3.3,0.5,3.5c0,4.1-1.7,13.8-1.4,11.4c0.2-1.8-2.6-8.3-4-11.4
	c-4.9,4.3-22.4,18.8-32.7,18.2c0.4,7.9,0.7,13.1,1,13.2c0,0,0.2,0,0.3,0c3.7,0.2,37.7-2.5,50.1-3.5c2.8-0.2,4.6-0.4,4.6-0.4
	s0.1-0.8,0.1-2.4c0.4-7.4,1.5-30.8,0.5-53.6c-0.1-3.2-0.3-6.4-0.6-9.6C80.3,67.1,68.4,52.2,68.4,52.2z"/>
<path class="st1" d="M58.8,62.6c3.3-1.8,4.4-4.4,4.6-6.1c0,3.1,0,7.3,0,8.4c0,3.8-9.7,2.5-10.6,1.3C53,66.2,58.3,63.3,58.8,62.6z"/>
<path class="st6" d="M53,66.2c-0.1,0-0.1,0.2-0.1,0.4c-0.4,4.1,2.5,35.4,4.2,52l0.8-0.3c0,0,1.7-3.3,3.5-6.3
	c-2.9-17.9-7.1-42.7-8.2-45.6C53.1,66.3,53,66.2,53,66.2z"/>
<path class="st6" d="M60.1,129.5c0,0-0.5,0.4-1.3,1.2c1.4,3.1,4.3,9.6,4,11.4c-0.3,2.4,1.4-7.2,1.4-11.4c0-0.2-0.2-1.5-0.5-3.5
	c-1.6,0.2-2.9,0.4-4.2,0.5L60.1,129.5z"/>
<path class="st0" d="M56,118.6l-0.2,0.1l3.2,10.6c1.4-0.2,3-0.4,4.9-0.6c1.1-0.2,2.3-0.5,3.6-0.5c10.8-0.3,7.8-8.7,7.8-12.5
	c0-3.8-9.9-2.4-9.9-2.4s1.8-8.4-1.6-8.9c-0.6-0.1-0.9,3.5-2.7,6.6c-2.1,3.5-4.1,7.4-4.1,7.4L56,118.6z"/>
<path class="st0" d="M58.9,62.6c-2.2,1.2-5.5,2.1-10.1,2.1c-2.4,0-4.3-0.3-5.9-0.9c2,1.6,4.6,2.6,7.3,2.6h0c0.2,0,0.5,0.6,0.7,0.6
	c0.9-0.1,1.2-0.6,2.1-0.9C55,65.6,57.5,64.2,58.9,62.6z"/>
<path class="st0" d="M37.1,38c0,5.6,2.1,5.4,2.1,5.4s2.6-0.2,2.8-3.3c0.2-3,2.7-3.7,2.7-3.7s6.1,0,9.8,0c3.7,0,3.4,6.5,5.2,6.5
	c1.8,0,2.2-2.9,2.2-4.9c0-1.4,0.9-2.1,1.4-2.4h-0.1c0,0,0-10.1,0-12.5c0-0.1,0-0.2,0-0.3c-1.1-1.1-2-2.4-2.7-4
	c0-0.1-0.1-0.2-0.1-0.3c0,0,0,0,0,0c-2.2,0-6.2-6.5-7.8-4.8c-1.6,1.7-3.8,0-10.4,0c-4.2,0-4.4,12.6-5.7,11.1v11.3
	C37.2,36.9,37.1,38,37.1,38z"/>
<path class="st0" d="M31.7,20.5c0-0.4,0-0.8,0-1.2C31.6,19.7,31.6,20.1,31.7,20.5z"/>
<path class="st0" d="M35.7,35.7c-0.2-0.2-0.3-0.6-0.4-0.9h-1.2c0,0-0.3-1.7-0.6-4.3c-0.7,1.7-0.1,7.2,2.1,8.7c0,0,0,0,0.1,0V35.7z"
	/>
<path class="st2" d="M42.9,63.9c1.6,0.5,3.5,0.9,5.9,0.9c4.7,0,7.9-0.9,10.1-2.1c3.3-1.8,4.4-4.4,4.6-6.1c0.1-0.4,0.1-0.7,0.1-1
	c0-0.6,0-2.2,0-4.2c0-3.3,0-7.6,0-11c2.5-0.1,4.5-2.5,4.4-5.4l0.2-14.4c0,0,0-0.1,0-0.1c0-0.4,0-0.8,0-1.2c0-0.1,0-0.2,0-0.3
	c0-0.1,0-0.1,0-0.2c0-0.1,0-0.1,0-0.2l0-0.7l0,0c-0.2-3.6-1.4-7-3.4-9.8C63.1,4,59.9,0,54.3,0c-1.7,0-3.1,0.2-4.3,0.5
	c0,0-0.1,0-0.1,0c-9.8,0-17.8,7.7-18.3,17.4l0,0l0,0.7c0,0.1,0,0.1,0,0.2c0,0.1,0,0.1,0,0.2c0,0.1,0,0.2,0,0.3c0,0.4,0,0.8,0,1.2
	c0,0,0,0,0,0L31.9,35c-0.1,2.6,1.6,4.9,3.8,5.3v14.6c0,0,0,0,0,0.1C35.7,55.9,36.3,61.7,42.9,63.9z M36.5,24.8
	c3.2-0.7,5.1-0.8,9.3-0.8c6.6,0,7.6-2.8,9.1-4.5c1.6-1.7,3.3-1,5.5-1c0,0,0,0,0,0c0,0.1,0.1,0.2,0.1,0.3c0.7,1.6,1.6,3,2.7,4
	c0,0.1,0,0.2,0,0.3c0,2.4,0,12.5,0,12.5h0.1c-0.5,0.3-1.4,1-1.4,2.4c0,2-0.4,4.9-2.2,4.9c-1.8,0-1.6-6.5-5.2-6.5c-3.7,0-9.8,0-9.8,0
	s-2.4,0.6-2.7,3.7c-0.2,3-2.8,3.3-2.8,3.3s-2.1,0.2-2.1-5.4c0,0,0.1-1.1-0.6-1.9V24.8z M64.3,39.1c-0.3,0.2-0.5,0.3-0.7,0.4
	c0-1.4,0-2.6,0-3.3c0.3-0.1,0.5-0.3,0.7-0.6h0.4c0,0,0.3-2.5,0.7-5.7c0.2-0.1,0.3-0.1,0.6,0C67.3,30.4,66.9,37.4,64.3,39.1z
	 M35.6,39.1c-2.2-1.5-2.8-6.9-2.1-8.7c0.3,2.6,0.6,4.3,0.6,4.3h1.2c0.1,0.4,0.2,0.7,0.4,0.9L35.6,39.1
	C35.7,39.1,35.6,39.1,35.6,39.1z"/>
<path class="st1" d="M58.8,130.7c0.8-0.7,1.3-1.2,1.3-1.2l-0.5-1.7l-2.7-9l-0.7-2.3l-24.6,9.2c-2.3-25.3-3.4-60.4-6.8-64.2
	c-0.3-0.4-0.7-0.5-1.1-0.2c-30.2,22.9-11.3,72.2-3,84.5c1.3,2,3.3,2.9,5.6,3C36.4,149.5,53.9,135,58.8,130.7z"/>
<path class="st1" d="M50.2,66.5"/>
<path class="st1" d="M50.2,66.5c0,0,2.1,0,2.8-0.3c0,0-2.8,8.9-9.1,4.6c-6.1-4.1-12.3-8.3-11.7-13.4c0.1-0.5,0.2-1,0.3-1.4
	c0.8-3.5,3.2-3.1,3.2-3.1c0.1,0.3-0.1,1.4,0,2.1c0,0.9,0.6,6.7,7.2,8.9C44.9,65.5,47.4,66.5,50.2,66.5L50.2,66.5"/>
<path class="st1" d="M53,66.2"/>
</svg>
